G04 #@! TF.GenerationSoftware,KiCad,Pcbnew,(2017-08-02 revision 9760937)-master*
G04 #@! TF.CreationDate,2017-08-15T11:40:40-05:00*
G04 #@! TF.ProjectId,PocketBeagle,506F636B6574426561676C652E6B6963,rev?*
G04 #@! TF.SameCoordinates,Original*
G04 #@! TF.FileFunction,Copper,L1,Top,Signal*
G04 #@! TF.FilePolarity,Positive*
%FSLAX46Y46*%
G04 Gerber Fmt 4.6, Leading zero omitted, Abs format (unit mm)*
G04 Created by KiCad (PCBNEW (2017-08-02 revision 9760937)-master) date Tue Aug 15 11:40:40 2017*
%MOMM*%
%LPD*%
G01*
G04 APERTURE LIST*
%ADD10R,0.797560X0.797560*%
%ADD11R,1.198880X0.899160*%
%ADD12R,1.399540X1.597660*%
%ADD13R,2.199640X1.198880*%
%ADD14R,1.597660X1.198880*%
%ADD15R,1.597660X0.698500*%
%ADD16R,0.497840X0.497840*%
%ADD17R,0.497840X0.299720*%
%ADD18R,0.299720X0.497840*%
%ADD19C,1.016000*%
%ADD20C,1.524000*%
%ADD21R,1.524000X1.524000*%
%ADD22R,0.487680X0.299720*%
%ADD23R,0.518160X0.299720*%
%ADD24R,2.397760X1.899920*%
%ADD25R,1.348740X0.398780*%
%ADD26R,1.597660X2.098040*%
%ADD27R,1.899920X1.798320*%
%ADD28R,1.899920X1.899920*%
%ADD29R,0.899160X0.398780*%
%ADD30C,0.497840*%
%ADD31R,0.497840X0.599440*%
%ADD32R,0.599440X0.497840*%
%ADD33R,0.998220X1.099820*%
%ADD34C,1.219200*%
%ADD35C,0.800000*%
%ADD36C,0.762000*%
%ADD37C,0.635000*%
%ADD38C,0.250000*%
%ADD39C,0.254000*%
%ADD40C,0.152400*%
%ADD41C,0.609600*%
G04 APERTURE END LIST*
D10*
X125433400Y-95071600D03*
X123934800Y-95071600D03*
X123668100Y-113346900D03*
X123668100Y-111848300D03*
X125954100Y-113346900D03*
X125954100Y-111848300D03*
X128240100Y-113346900D03*
X128240100Y-111848300D03*
X130526100Y-113346900D03*
X130526100Y-111848300D03*
D11*
X131255080Y-109028900D03*
X127257120Y-109028900D03*
X131255080Y-107530300D03*
X127257120Y-107530300D03*
D12*
X158962540Y-98240120D03*
D13*
X168563740Y-97338420D03*
X168563740Y-112837500D03*
D14*
X159064140Y-112847660D03*
D15*
X158464700Y-111686880D03*
X158464700Y-110587060D03*
X158464700Y-109487240D03*
X158464700Y-108387420D03*
X158464700Y-107287600D03*
X158464700Y-106187780D03*
X158464700Y-105087960D03*
X158464700Y-103988140D03*
X158464700Y-102888320D03*
D16*
X155636540Y-96557500D03*
D17*
X155636540Y-97108680D03*
X155636540Y-97606520D03*
D16*
X155636540Y-98157700D03*
X154640860Y-98157700D03*
D17*
X154640860Y-97606520D03*
X154640860Y-97108680D03*
D16*
X154640860Y-96557500D03*
X124849200Y-116524440D03*
D18*
X124298020Y-116524440D03*
X123800180Y-116524440D03*
D16*
X123249000Y-116524440D03*
X123249000Y-115528760D03*
D18*
X123800180Y-115528760D03*
X124298020Y-115528760D03*
D16*
X124849200Y-115528760D03*
X155636540Y-105015700D03*
D17*
X155636540Y-105566880D03*
X155636540Y-106064720D03*
D16*
X155636540Y-106615900D03*
X154640860Y-106615900D03*
D17*
X154640860Y-106064720D03*
X154640860Y-105566880D03*
D16*
X154640860Y-105015700D03*
X155636540Y-102577300D03*
D17*
X155636540Y-103128480D03*
X155636540Y-103626320D03*
D16*
X155636540Y-104177500D03*
X154640860Y-104177500D03*
D17*
X154640860Y-103626320D03*
X154640860Y-103128480D03*
D16*
X154640860Y-102577300D03*
X155636540Y-100138900D03*
D17*
X155636540Y-100690080D03*
X155636540Y-101187920D03*
D16*
X155636540Y-101739100D03*
X154640860Y-101739100D03*
D17*
X154640860Y-101187920D03*
X154640860Y-100690080D03*
D16*
X154640860Y-100138900D03*
X160282200Y-95335760D03*
D18*
X160833380Y-95335760D03*
X161331220Y-95335760D03*
D16*
X161882400Y-95335760D03*
X161882400Y-96331440D03*
D18*
X161331220Y-96331440D03*
X160833380Y-96331440D03*
D16*
X160282200Y-96331440D03*
X164778000Y-96331440D03*
D18*
X164226820Y-96331440D03*
X163728980Y-96331440D03*
D16*
X163177800Y-96331440D03*
X163177800Y-95335760D03*
D18*
X163728980Y-95335760D03*
X164226820Y-95335760D03*
D16*
X164778000Y-95335760D03*
X154640860Y-109054300D03*
D17*
X154640860Y-108503120D03*
X154640860Y-108005280D03*
D16*
X154640860Y-107454100D03*
X155636540Y-107454100D03*
D17*
X155636540Y-108005280D03*
X155636540Y-108503120D03*
D16*
X155636540Y-109054300D03*
D19*
X171700100Y-96078800D03*
X170955300Y-110935700D03*
X130691200Y-114921700D03*
D20*
X170091100Y-116433600D03*
X170091100Y-118973600D03*
X167551100Y-116433600D03*
X167551100Y-118973600D03*
X165011100Y-116433600D03*
X165011100Y-118973600D03*
X162471100Y-116433600D03*
X162471100Y-118973600D03*
X159931100Y-116433600D03*
X159931100Y-118973600D03*
X157391100Y-116433600D03*
X157391100Y-118973600D03*
X154851100Y-116433600D03*
X154851100Y-118973600D03*
X152311100Y-116433600D03*
X152311100Y-118973600D03*
X149771100Y-116433600D03*
X149771100Y-118973600D03*
X147231100Y-116433600D03*
X147231100Y-118973600D03*
X144691100Y-116433600D03*
X144691100Y-118973600D03*
X142151100Y-116433600D03*
X142151100Y-118973600D03*
X139611100Y-116433600D03*
X139611100Y-118973600D03*
X137071100Y-116433600D03*
X137071100Y-118973600D03*
X134531100Y-116433600D03*
X134531100Y-118973600D03*
X131991100Y-116433600D03*
X131991100Y-118973600D03*
X129451100Y-116433600D03*
X129451100Y-118973600D03*
X126911100Y-116433600D03*
D21*
X126911100Y-118973600D03*
D20*
X170091100Y-91033600D03*
X170091100Y-93573600D03*
X167551100Y-91033600D03*
X167551100Y-93573600D03*
X165011100Y-91033600D03*
X165011100Y-93573600D03*
X162471100Y-91033600D03*
X162471100Y-93573600D03*
X159931100Y-91033600D03*
X159931100Y-93573600D03*
X157391100Y-91033600D03*
X157391100Y-93573600D03*
X154851100Y-91033600D03*
X154851100Y-93573600D03*
X152311100Y-91033600D03*
X152311100Y-93573600D03*
X149771100Y-91033600D03*
X149771100Y-93573600D03*
X147231100Y-91033600D03*
X147231100Y-93573600D03*
X144691100Y-91033600D03*
X144691100Y-93573600D03*
X142151100Y-91033600D03*
X142151100Y-93573600D03*
X139611100Y-91033600D03*
X139611100Y-93573600D03*
X137071100Y-91033600D03*
X137071100Y-93573600D03*
X134531100Y-91033600D03*
X134531100Y-93573600D03*
X131991100Y-91033600D03*
X131991100Y-93573600D03*
X129451100Y-91033600D03*
X129451100Y-93573600D03*
X126911100Y-91033600D03*
D21*
X126911100Y-93573600D03*
D22*
X130660720Y-103443440D03*
X130660720Y-102945600D03*
X130660720Y-102447760D03*
X131407480Y-102447760D03*
X131407480Y-102945600D03*
D23*
X131412560Y-103443440D03*
D24*
X128621100Y-96679420D03*
X128621100Y-100575780D03*
D25*
X125125720Y-103705660D03*
X125125720Y-105651300D03*
X125125720Y-106301540D03*
X125125720Y-104355900D03*
X125125720Y-105003600D03*
D26*
X124998720Y-101904800D03*
X124998720Y-108102400D03*
D27*
X122451100Y-108803440D03*
D28*
X122451100Y-106202480D03*
X122451100Y-103804720D03*
D27*
X122451100Y-101203760D03*
D29*
X125783920Y-97979900D03*
X125783920Y-99275300D03*
X123584280Y-99275300D03*
X123584280Y-98627600D03*
X123584280Y-97979900D03*
D30*
X133576640Y-95455140D03*
X134846640Y-95455140D03*
X136116640Y-95455140D03*
X137386640Y-95455140D03*
X138656640Y-95455140D03*
X139926640Y-95455140D03*
X141196640Y-95455140D03*
X142466640Y-95455140D03*
X143734100Y-95455140D03*
X145004100Y-95455140D03*
X146274100Y-95455140D03*
X147544100Y-95455140D03*
X148814100Y-95455140D03*
X150084100Y-95455140D03*
X151354100Y-95455140D03*
X152624100Y-95455140D03*
X133576640Y-96725140D03*
X134846640Y-96725140D03*
X136116640Y-96725140D03*
X137386640Y-96725140D03*
X138656640Y-96725140D03*
X139926640Y-96725140D03*
X141196640Y-96725140D03*
X142466640Y-96725140D03*
X143734100Y-96725140D03*
X145004100Y-96725140D03*
X146274100Y-96725140D03*
X147544100Y-96725140D03*
X148814100Y-96725140D03*
X150084100Y-96725140D03*
X151354100Y-96725140D03*
X152624100Y-96725140D03*
X133576640Y-97995140D03*
X134846640Y-97995140D03*
X136116640Y-97995140D03*
X137386640Y-97995140D03*
X138656640Y-97995140D03*
X139926640Y-97995140D03*
X141196640Y-97995140D03*
X142466640Y-97995140D03*
X143734100Y-97995140D03*
X145004100Y-97995140D03*
X146274100Y-97995140D03*
X147544100Y-97995140D03*
X148814100Y-97995140D03*
X150084100Y-97995140D03*
X151354100Y-97995140D03*
X152624100Y-97995140D03*
X133576640Y-99265140D03*
X134846640Y-99265140D03*
X136116640Y-99265140D03*
X137386640Y-99265140D03*
X138656640Y-99265140D03*
X139926640Y-99265140D03*
X141196640Y-99265140D03*
X142466640Y-99265140D03*
X143734100Y-99265140D03*
X145004100Y-99265140D03*
X146274100Y-99265140D03*
X147544100Y-99265140D03*
X148814100Y-99265140D03*
X150084100Y-99265140D03*
X151354100Y-99265140D03*
X152624100Y-99265140D03*
X133576640Y-100535140D03*
X134846640Y-100535140D03*
X136116640Y-100535140D03*
X137386640Y-100535140D03*
X138656640Y-100535140D03*
X139926640Y-100535140D03*
X141196640Y-100535140D03*
X142466640Y-100535140D03*
X143734100Y-100535140D03*
X145004100Y-100535140D03*
X146274100Y-100535140D03*
X147544100Y-100535140D03*
X148814100Y-100535140D03*
X150084100Y-100535140D03*
X151354100Y-100535140D03*
X152624100Y-100535140D03*
X133576640Y-101805140D03*
X134846640Y-101805140D03*
X136116640Y-101805140D03*
X137386640Y-101805140D03*
X138656640Y-101805140D03*
X139926640Y-101805140D03*
X141196640Y-101805140D03*
X142466640Y-101805140D03*
X143734100Y-101805140D03*
X145004100Y-101805140D03*
X146274100Y-101805140D03*
X147544100Y-101805140D03*
X148814100Y-101805140D03*
X150084100Y-101805140D03*
X151354100Y-101805140D03*
X152624100Y-101805140D03*
X133576640Y-103075140D03*
X134846640Y-103075140D03*
X136116640Y-103075140D03*
X137386640Y-103075140D03*
X138656640Y-103075140D03*
X139926640Y-103075140D03*
X141196640Y-103075140D03*
X142466640Y-103075140D03*
X143734100Y-103075140D03*
X145004100Y-103075140D03*
X146274100Y-103075140D03*
X147544100Y-103075140D03*
X148814100Y-103075140D03*
X150084100Y-103075140D03*
X151354100Y-103075140D03*
X152624100Y-103075140D03*
X133576640Y-104345140D03*
X134846640Y-104345140D03*
X136116640Y-104345140D03*
X137386640Y-104345140D03*
X138656640Y-104345140D03*
X139926640Y-104345140D03*
X141196640Y-104345140D03*
X142466640Y-104345140D03*
X143734100Y-104345140D03*
X145004100Y-104345140D03*
X146274100Y-104345140D03*
X147544100Y-104345140D03*
X148814100Y-104345140D03*
X150084100Y-104345140D03*
X151354100Y-104345140D03*
X152624100Y-104345140D03*
X133576640Y-105612600D03*
X134846640Y-105612600D03*
X136116640Y-105612600D03*
X137386640Y-105612600D03*
X138656640Y-105612600D03*
X139926640Y-105612600D03*
X141196640Y-105612600D03*
X142466640Y-105612600D03*
X143734100Y-105612600D03*
X145004100Y-105612600D03*
X146274100Y-105612600D03*
X147544100Y-105612600D03*
X148814100Y-105612600D03*
X150084100Y-105612600D03*
X151354100Y-105612600D03*
X152624100Y-105612600D03*
X133576640Y-106882600D03*
X134846640Y-106882600D03*
X136116640Y-106882600D03*
X137386640Y-106882600D03*
X138656640Y-106882600D03*
X139926640Y-106882600D03*
X141196640Y-106882600D03*
X142466640Y-106882600D03*
X143734100Y-106882600D03*
X145004100Y-106882600D03*
X146274100Y-106882600D03*
X147544100Y-106882600D03*
X148814100Y-106882600D03*
X150084100Y-106882600D03*
X151354100Y-106882600D03*
X152624100Y-106882600D03*
X133576640Y-108152600D03*
X134846640Y-108152600D03*
X136116640Y-108152600D03*
X137386640Y-108152600D03*
X138656640Y-108152600D03*
X139926640Y-108152600D03*
X141196640Y-108152600D03*
X142466640Y-108152600D03*
X143734100Y-108152600D03*
X145004100Y-108152600D03*
X146274100Y-108152600D03*
X147544100Y-108152600D03*
X148814100Y-108152600D03*
X150084100Y-108152600D03*
X151354100Y-108152600D03*
X152624100Y-108152600D03*
X133576640Y-109422600D03*
X134846640Y-109422600D03*
X136116640Y-109422600D03*
X137386640Y-109422600D03*
X138656640Y-109422600D03*
X139926640Y-109422600D03*
X141196640Y-109422600D03*
X142466640Y-109422600D03*
X143734100Y-109422600D03*
X145004100Y-109422600D03*
X146274100Y-109422600D03*
X147544100Y-109422600D03*
X148814100Y-109422600D03*
X150084100Y-109422600D03*
X151354100Y-109422600D03*
X152624100Y-109422600D03*
X133576640Y-110692600D03*
X134846640Y-110692600D03*
X136116640Y-110692600D03*
X137386640Y-110692600D03*
X138656640Y-110692600D03*
X139926640Y-110692600D03*
X141196640Y-110692600D03*
X142466640Y-110692600D03*
X143734100Y-110692600D03*
X145004100Y-110692600D03*
X146274100Y-110692600D03*
X147544100Y-110692600D03*
X148814100Y-110692600D03*
X150084100Y-110692600D03*
X151354100Y-110692600D03*
X152624100Y-110692600D03*
X133576640Y-111962600D03*
X134846640Y-111962600D03*
X136116640Y-111962600D03*
X137386640Y-111962600D03*
X138656640Y-111962600D03*
X139926640Y-111962600D03*
X141196640Y-111962600D03*
X142466640Y-111962600D03*
X143734100Y-111962600D03*
X145004100Y-111962600D03*
X146274100Y-111962600D03*
X147544100Y-111962600D03*
X148814100Y-111962600D03*
X150084100Y-111962600D03*
X151354100Y-111962600D03*
X152624100Y-111962600D03*
X133576640Y-113232600D03*
X134846640Y-113232600D03*
X136116640Y-113232600D03*
X137386640Y-113232600D03*
X138656640Y-113232600D03*
X139926640Y-113232600D03*
X141196640Y-113232600D03*
X142466640Y-113232600D03*
X143734100Y-113232600D03*
X145004100Y-113232600D03*
X146274100Y-113232600D03*
X147544100Y-113232600D03*
X148814100Y-113232600D03*
X150084100Y-113232600D03*
X151354100Y-113232600D03*
X152624100Y-113232600D03*
X133576640Y-114502600D03*
X134846640Y-114502600D03*
X136116640Y-114502600D03*
X137386640Y-114502600D03*
X138656640Y-114502600D03*
X139926640Y-114502600D03*
X141196640Y-114502600D03*
X142466640Y-114502600D03*
X143734100Y-114502600D03*
X145004100Y-114502600D03*
X146274100Y-114502600D03*
X147544100Y-114502600D03*
X148814100Y-114502600D03*
X150084100Y-114502600D03*
X151354100Y-114502600D03*
X152624100Y-114502600D03*
D31*
X130917260Y-100278600D03*
X131912940Y-100278600D03*
D32*
X156738900Y-104632160D03*
X156738900Y-105627840D03*
D33*
X155052340Y-110235400D03*
X156749060Y-110235400D03*
D31*
X128991940Y-105866600D03*
X127996260Y-105866600D03*
X130917260Y-96976600D03*
X131912940Y-96976600D03*
D32*
X131415100Y-98129760D03*
X131415100Y-99125440D03*
D33*
X128580460Y-102945600D03*
X126883740Y-102945600D03*
D32*
X129764100Y-102447760D03*
X129764100Y-103443440D03*
D31*
X125181940Y-93547600D03*
X124186260Y-93547600D03*
X124186260Y-96595600D03*
X125181940Y-96595600D03*
D33*
X170901940Y-114197800D03*
X172598660Y-114197800D03*
D31*
X168057140Y-114197800D03*
X167061460Y-114197800D03*
X161879860Y-113893000D03*
X162875540Y-113893000D03*
D34*
X126868500Y-106196800D03*
D35*
X156738900Y-103834600D03*
D36*
X143099100Y-99897600D03*
X146909100Y-101167600D03*
D35*
X148179100Y-104977600D03*
D36*
X146909100Y-108787600D03*
X143099100Y-110057600D03*
X139289100Y-108787600D03*
X138019100Y-104977600D03*
X139289100Y-101167600D03*
D37*
X131034100Y-101802600D03*
X156662700Y-108482800D03*
X159786900Y-107949400D03*
X163673100Y-113893000D03*
X153919500Y-98729200D03*
X155138700Y-95681200D03*
D36*
X169769100Y-114197800D03*
D37*
X125496900Y-114959800D03*
X124684100Y-99516600D03*
X124684100Y-97738600D03*
D36*
X140432100Y-102437600D03*
D35*
X157043700Y-111302200D03*
D36*
X145639100Y-107517600D03*
X140432100Y-107517600D03*
D35*
X123058500Y-100634200D03*
X121839300Y-100634200D03*
X121839300Y-101777200D03*
X123058500Y-101777200D03*
X121839300Y-103174200D03*
X123058500Y-103174200D03*
X121839300Y-104418800D03*
X123058500Y-104418800D03*
X121839300Y-105587200D03*
X123058500Y-105587200D03*
X123058500Y-106831800D03*
X121839300Y-106831800D03*
X121839300Y-108228800D03*
X123058500Y-108228800D03*
X121839300Y-109371800D03*
X124531700Y-107390600D03*
X124531700Y-108813000D03*
X125471500Y-108813000D03*
X125471500Y-107390600D03*
D37*
X167787900Y-113131000D03*
X168549900Y-113131000D03*
X169311900Y-113131000D03*
X169311900Y-112597600D03*
X168549900Y-112597600D03*
X167787900Y-112597600D03*
D35*
X167787900Y-97586200D03*
X168549900Y-97586200D03*
X169311900Y-97586200D03*
X169311900Y-97052800D03*
X168549900Y-97052800D03*
X167787900Y-97052800D03*
D37*
X158643900Y-97814800D03*
X159329700Y-97814800D03*
X159329700Y-98653000D03*
X134209100Y-111327600D03*
X159634500Y-100405600D03*
X134209100Y-113867600D03*
X162987300Y-100405600D03*
X132939100Y-113867600D03*
X162149100Y-100405600D03*
X132939100Y-111327600D03*
X158796300Y-100405600D03*
X134209100Y-112597600D03*
X161310900Y-100405600D03*
X132939100Y-112597600D03*
X160472700Y-100405600D03*
X126030300Y-96976600D03*
X131440500Y-104672800D03*
X132177100Y-102945600D03*
X131440500Y-105511000D03*
X132177100Y-103783800D03*
X132177100Y-102107400D03*
X132050100Y-106120600D03*
D36*
X130526100Y-104215600D03*
X141956100Y-97357600D03*
X140660700Y-96062200D03*
D37*
X162530100Y-97129000D03*
X157119900Y-100177000D03*
X135479100Y-111327600D03*
X163825500Y-100405600D03*
X138019100Y-98627600D03*
X124684100Y-98627600D03*
X123287100Y-96595600D03*
X129383100Y-112597600D03*
X136749100Y-99897600D03*
X127097100Y-111073600D03*
X135479100Y-96087600D03*
X127097100Y-112089600D03*
X135479100Y-97357600D03*
X127097100Y-113105600D03*
X135479100Y-98627600D03*
D36*
X145639100Y-102437600D03*
D37*
X123058500Y-109371800D03*
X124531700Y-101193000D03*
X125471500Y-101193000D03*
X125471500Y-102615400D03*
X124531700Y-102615400D03*
X158643900Y-98653000D03*
X159482100Y-112597600D03*
X132939100Y-99897600D03*
X132939100Y-97357600D03*
X132939100Y-98627600D03*
X135479100Y-101167600D03*
X135555300Y-99872200D03*
X134209100Y-102437600D03*
X135479100Y-102437600D03*
X136749100Y-102437600D03*
X151989100Y-115010600D03*
X150719100Y-115010600D03*
X149449100Y-114121600D03*
X153767100Y-95909800D03*
X168854700Y-95147800D03*
X130653100Y-95325600D03*
X131415100Y-95833600D03*
X143607100Y-118185600D03*
X143607100Y-117245800D03*
X139289100Y-97510000D03*
X132177100Y-101294600D03*
X150719100Y-108787600D03*
X156561100Y-97992600D03*
X136749100Y-101167600D03*
X138019100Y-97357600D03*
X139289100Y-99770600D03*
X140432100Y-117931600D03*
X141321100Y-117931600D03*
X138019100Y-111327600D03*
X139289100Y-111073600D03*
X127097100Y-110057600D03*
X150719100Y-99897600D03*
X136749100Y-110057600D03*
X138019100Y-112597600D03*
X150465100Y-113867600D03*
X162149100Y-102615400D03*
X149449100Y-115010600D03*
X162149100Y-103529800D03*
X149449100Y-108533600D03*
X156561100Y-96722600D03*
X168778500Y-114807400D03*
X143099100Y-113867600D03*
X144369100Y-113867600D03*
X146985300Y-114045400D03*
X134209100Y-99897600D03*
X130449900Y-106273000D03*
X156891300Y-113893000D03*
X172001100Y-107253600D03*
X156891300Y-113054800D03*
X170501100Y-106128600D03*
X157729500Y-113054800D03*
X172001100Y-105003600D03*
X156053100Y-113893000D03*
X170501100Y-108378600D03*
X155214900Y-113893000D03*
X172001100Y-109503600D03*
X150465100Y-110057600D03*
X158643900Y-94614400D03*
X156205500Y-111759400D03*
X170501100Y-103878600D03*
X155367300Y-111759400D03*
X172001100Y-102753600D03*
X149449100Y-109803600D03*
X149449100Y-107517600D03*
X136749100Y-108787600D03*
X136749100Y-107517600D03*
X151989100Y-108787600D03*
X153005100Y-108787600D03*
X135733100Y-106247600D03*
X146909100Y-97357600D03*
D38*
X155638700Y-105565800D02*
X155638700Y-105014719D01*
D39*
X130659100Y-102445600D02*
X129764100Y-102445600D01*
X130659100Y-102445600D02*
X130659100Y-102177600D01*
X130659100Y-102177600D02*
X131034100Y-101802600D01*
D40*
X155638700Y-109055281D02*
X155638700Y-108504200D01*
X155638700Y-108504200D02*
X155638700Y-108004200D01*
X155638700Y-109055281D02*
X155638700Y-109647400D01*
X155638700Y-109647400D02*
X155050700Y-110235400D01*
X155638700Y-108504200D02*
X156641300Y-108504200D01*
X156641300Y-108504200D02*
X156662700Y-108482800D01*
X162877700Y-113893000D02*
X163673100Y-113893000D01*
X158464700Y-108387600D02*
X159577300Y-108387600D01*
X159786900Y-107949400D02*
X159786900Y-108178000D01*
X159786900Y-108178000D02*
X159577300Y-108387600D01*
X155638700Y-98158681D02*
X155068181Y-98729200D01*
X155068181Y-98729200D02*
X153919500Y-98729200D01*
X155638700Y-96556519D02*
X155138700Y-96056519D01*
X155138700Y-96056519D02*
X155138700Y-95681200D01*
D41*
X170900300Y-114197800D02*
X169769100Y-114197800D01*
D40*
X123248019Y-116526600D02*
X123799100Y-116526600D01*
X123799100Y-116526600D02*
X124299100Y-116526600D01*
X124299100Y-116526600D02*
X124850181Y-116526600D01*
X124850181Y-116526600D02*
X125496900Y-115879881D01*
X125496900Y-115879881D02*
X125496900Y-114959800D01*
D39*
X124184100Y-96595600D02*
X124184100Y-97238600D01*
X124184100Y-97238600D02*
X124684100Y-97738600D01*
D40*
X123584100Y-99277600D02*
X124445100Y-99277600D01*
X124445100Y-99277600D02*
X124684100Y-99516600D01*
X124184100Y-93547600D02*
X124684100Y-94047600D01*
X124684100Y-94047600D02*
X124684100Y-96095600D01*
X124684100Y-96095600D02*
X124184100Y-96595600D01*
D39*
X155638700Y-105565800D02*
X155638700Y-106065800D01*
D38*
X156718000Y-106037581D02*
X156718000Y-105650900D01*
X156718000Y-105650900D02*
X156738900Y-105630000D01*
X155638700Y-106616881D02*
X156138700Y-106616881D01*
X156138700Y-106616881D02*
X156718000Y-106037581D01*
D40*
X146274100Y-99262600D02*
X145639100Y-98627600D01*
X145639100Y-98627600D02*
X144902500Y-98627600D01*
X144902500Y-98627600D02*
X144216700Y-97941800D01*
X144216700Y-97941800D02*
X144216700Y-94589000D01*
X144216700Y-94589000D02*
X143705580Y-94077880D01*
X143705580Y-94077880D02*
X143705580Y-92019120D01*
X143705580Y-92019120D02*
X144691100Y-91033600D01*
X133574100Y-99262600D02*
X132177100Y-99262600D01*
X132177100Y-99262600D02*
X132042100Y-99127600D01*
X132042100Y-99127600D02*
X131415100Y-99127600D01*
X131415100Y-99127600D02*
X131415100Y-99778600D01*
X131415100Y-99778600D02*
X130915100Y-100278600D01*
X130616100Y-100577600D02*
X128621100Y-100577600D01*
X130616100Y-100577600D02*
X130915100Y-100278600D01*
X133574100Y-97992600D02*
X132177100Y-97992600D01*
X132177100Y-97992600D02*
X132042100Y-98127600D01*
X132042100Y-98127600D02*
X131415100Y-98127600D01*
X131415100Y-98127600D02*
X131415100Y-97476600D01*
X131415100Y-97476600D02*
X130915100Y-96976600D01*
X130616100Y-96677600D02*
X128621100Y-96677600D01*
X130616100Y-96677600D02*
X130915100Y-96976600D01*
X134844100Y-111962600D02*
X134209100Y-111327600D01*
X158464700Y-103987600D02*
X159481500Y-103987600D01*
X159481500Y-103987600D02*
X160015500Y-103453600D01*
X160015500Y-103453600D02*
X160015500Y-100786600D01*
X160015500Y-100786600D02*
X159634500Y-100405600D01*
X160832300Y-96333600D02*
X160832300Y-99207800D01*
X160832300Y-99207800D02*
X159634500Y-100405600D01*
X134844100Y-114502600D02*
X134209100Y-113867600D01*
X161234700Y-102158200D02*
X161234700Y-109473400D01*
X158464700Y-110587600D02*
X160120500Y-110587600D01*
X160120500Y-110587600D02*
X161234700Y-109473400D01*
X161234700Y-102158200D02*
X162987300Y-100405600D01*
X163727900Y-96333600D02*
X163727900Y-99665000D01*
X163727900Y-99665000D02*
X162987300Y-100405600D01*
X133574100Y-114502600D02*
X132939100Y-113867600D01*
X160929900Y-101624800D02*
X160929900Y-108635200D01*
X158464700Y-109487600D02*
X160077500Y-109487600D01*
X160077500Y-109487600D02*
X160929900Y-108635200D01*
X160929900Y-101624800D02*
X162149100Y-100405600D01*
X163176819Y-96333600D02*
X163176819Y-99377881D01*
X163176819Y-99377881D02*
X162149100Y-100405600D01*
X133574100Y-111962600D02*
X132939100Y-111327600D01*
X158464700Y-102887600D02*
X159590900Y-102887600D01*
X159590900Y-102887600D02*
X159710700Y-102767800D01*
X159710700Y-102767800D02*
X159710700Y-101320000D01*
X159710700Y-101320000D02*
X158796300Y-100405600D01*
X160281219Y-96333600D02*
X160281219Y-98920681D01*
X160281219Y-98920681D02*
X158796300Y-100405600D01*
X134844100Y-113232600D02*
X134209100Y-112597600D01*
X158464700Y-107287600D02*
X159458100Y-107287600D01*
X159458100Y-107287600D02*
X160625100Y-106120600D01*
X160625100Y-106120600D02*
X160625100Y-101091400D01*
X160625100Y-101091400D02*
X161310900Y-100405600D01*
X161883381Y-96333600D02*
X161883381Y-99833119D01*
X161883381Y-99833119D02*
X161310900Y-100405600D01*
X133574100Y-113232600D02*
X132939100Y-112597600D01*
X158464700Y-105087600D02*
X159524500Y-105087600D01*
X159524500Y-105087600D02*
X160320300Y-104291800D01*
X160320300Y-104291800D02*
X160320300Y-100558000D01*
X160320300Y-100558000D02*
X160472700Y-100405600D01*
X161332300Y-96333600D02*
X161332300Y-99546000D01*
X161332300Y-99546000D02*
X160472700Y-100405600D01*
X150084100Y-100532600D02*
X150871500Y-101320000D01*
X150871500Y-101320000D02*
X152547900Y-101320000D01*
X152547900Y-101320000D02*
X153729981Y-100137919D01*
X153729981Y-100137919D02*
X154638700Y-100137919D01*
X152624100Y-101802600D02*
X153737700Y-100689000D01*
X153737700Y-100689000D02*
X154638700Y-100689000D01*
X151354100Y-101802600D02*
X151836700Y-102285200D01*
X151836700Y-102285200D02*
X152878100Y-102285200D01*
X152878100Y-102285200D02*
X153974300Y-101189000D01*
X153974300Y-101189000D02*
X154638700Y-101189000D01*
X150084100Y-101802600D02*
X150871500Y-102590000D01*
X154638700Y-101740081D02*
X153956619Y-101740081D01*
X153956619Y-101740081D02*
X153106700Y-102590000D01*
X153106700Y-102590000D02*
X150871500Y-102590000D01*
X154638700Y-102576319D02*
X153729981Y-102576319D01*
X153729981Y-102576319D02*
X153233700Y-103072600D01*
X153233700Y-103072600D02*
X152624100Y-103072600D01*
X151354100Y-104342600D02*
X151836700Y-104825200D01*
X151836700Y-104825200D02*
X153233700Y-104825200D01*
X154638700Y-105014719D02*
X153423219Y-105014719D01*
X153423219Y-105014719D02*
X153233700Y-104825200D01*
X150084100Y-104342600D02*
X150871500Y-105130000D01*
X150871500Y-105130000D02*
X153081300Y-105130000D01*
X154638700Y-105565800D02*
X153517100Y-105565800D01*
X153517100Y-105565800D02*
X153081300Y-105130000D01*
X154638700Y-106065800D02*
X153559900Y-106065800D01*
X153559900Y-106065800D02*
X153106700Y-105612600D01*
X153106700Y-105612600D02*
X152624100Y-105612600D01*
X151354100Y-103072600D02*
X151836700Y-103555200D01*
X151836700Y-103555200D02*
X153208300Y-103555200D01*
X154638700Y-103127400D02*
X153636100Y-103127400D01*
X153636100Y-103127400D02*
X153208300Y-103555200D01*
X150084100Y-103072600D02*
X150871500Y-103860000D01*
X150871500Y-103860000D02*
X153360700Y-103860000D01*
X154638700Y-103627400D02*
X153593300Y-103627400D01*
X153593300Y-103627400D02*
X153360700Y-103860000D01*
X152624100Y-104342600D02*
X153259100Y-104342600D01*
X153259100Y-104342600D02*
X153423219Y-104178481D01*
X153423219Y-104178481D02*
X154638700Y-104178481D01*
X151354100Y-105612600D02*
X151836700Y-106095200D01*
X154638700Y-106616881D02*
X153653781Y-106616881D01*
X153653781Y-106616881D02*
X153132100Y-106095200D01*
X153132100Y-106095200D02*
X151836700Y-106095200D01*
X150084100Y-105612600D02*
X150871500Y-106400000D01*
X154638700Y-107453119D02*
X154032819Y-107453119D01*
X154032819Y-107453119D02*
X152979700Y-106400000D01*
X152979700Y-106400000D02*
X150871500Y-106400000D01*
D39*
X126030300Y-96976600D02*
X125649300Y-96595600D01*
X125649300Y-96595600D02*
X125184100Y-96595600D01*
X125784100Y-97977600D02*
X125507300Y-97977600D01*
X125184100Y-97019400D02*
X125184100Y-96595600D01*
X125184100Y-97019400D02*
X125784100Y-97619400D01*
X125784100Y-97619400D02*
X125784100Y-97977600D01*
D40*
X133574100Y-103072600D02*
X134056700Y-103555200D01*
X131669100Y-104901400D02*
X131440500Y-104672800D01*
X131440500Y-104672800D02*
X131211900Y-104901400D01*
X131211900Y-104901400D02*
X130068900Y-104901400D01*
X125126100Y-104353600D02*
X125939700Y-104353600D01*
X125939700Y-104353600D02*
X126106500Y-104520400D01*
X126106500Y-104520400D02*
X129687900Y-104520400D01*
X129687900Y-104520400D02*
X130068900Y-104901400D01*
X131409100Y-102945600D02*
X132177100Y-102945600D01*
X134056700Y-103555200D02*
X134056700Y-105866600D01*
X134056700Y-105866600D02*
X133828100Y-106095200D01*
X133828100Y-106095200D02*
X133320100Y-106095200D01*
X131669100Y-104901400D02*
X132126300Y-104901400D01*
X132126300Y-104901400D02*
X133320100Y-106095200D01*
X134844100Y-103072600D02*
X134361500Y-103555200D01*
X131669100Y-105282400D02*
X131440500Y-105511000D01*
X131440500Y-105511000D02*
X131211900Y-105282400D01*
X125126100Y-105003600D02*
X125928100Y-105003600D01*
X125928100Y-105003600D02*
X126106500Y-104825200D01*
X126106500Y-104825200D02*
X129535500Y-104825200D01*
X129535500Y-104825200D02*
X129992700Y-105282400D01*
X129992700Y-105282400D02*
X131211900Y-105282400D01*
X134361500Y-106019000D02*
X134361500Y-103555200D01*
X131414100Y-103445600D02*
X131838900Y-103445600D01*
X131838900Y-103445600D02*
X132177100Y-103783800D01*
X131669100Y-105282400D02*
X132050100Y-105282400D01*
X132050100Y-105282400D02*
X133167700Y-106400000D01*
X133167700Y-106400000D02*
X133980500Y-106400000D01*
X133980500Y-106400000D02*
X134361500Y-106019000D01*
X125126100Y-105653600D02*
X125963900Y-105653600D01*
X125963900Y-105653600D02*
X126487500Y-105130000D01*
X126487500Y-105130000D02*
X129383100Y-105130000D01*
X135479100Y-103707600D02*
X136114100Y-103072600D01*
X131409100Y-102445600D02*
X131838900Y-102445600D01*
X131838900Y-102445600D02*
X132177100Y-102107400D01*
X135479100Y-103707600D02*
X135479100Y-105663400D01*
X135479100Y-105663400D02*
X135021900Y-106120600D01*
X135021900Y-106120600D02*
X134717100Y-106120600D01*
X134717100Y-106120600D02*
X134209100Y-106628600D01*
X134209100Y-106628600D02*
X134209100Y-107009600D01*
X134209100Y-107009600D02*
X133828100Y-107390600D01*
X133828100Y-107390600D02*
X133320100Y-107390600D01*
X132050100Y-106120600D02*
X133320100Y-107390600D01*
X132050100Y-106120600D02*
X131211900Y-106120600D01*
X131211900Y-106120600D02*
X130678500Y-105587200D01*
X130678500Y-105587200D02*
X129840300Y-105587200D01*
X129840300Y-105587200D02*
X129383100Y-105130000D01*
D39*
X129764100Y-103445600D02*
X129264100Y-102945600D01*
X129264100Y-102945600D02*
X128582100Y-102945600D01*
X130659100Y-103445600D02*
X129764100Y-103445600D01*
D40*
X133574100Y-104342600D02*
X131923100Y-104342600D01*
X131923100Y-104342600D02*
X131669100Y-104088600D01*
X131669100Y-104088600D02*
X130653100Y-104088600D01*
X130653100Y-104088600D02*
X130526100Y-104215600D01*
D39*
X164227900Y-95333600D02*
X163727900Y-95333600D01*
X163727900Y-95333600D02*
X163176819Y-95333600D01*
X161883381Y-95333600D02*
X161332300Y-95333600D01*
X161332300Y-95333600D02*
X160832300Y-95333600D01*
X160832300Y-95333600D02*
X160281219Y-95333600D01*
D40*
X156607900Y-100689000D02*
X157119900Y-100177000D01*
X156607900Y-100689000D02*
X155638700Y-100689000D01*
D39*
X162530100Y-97129000D02*
X162530100Y-95528800D01*
X162530100Y-95528800D02*
X162334900Y-95333600D01*
X162334900Y-95333600D02*
X161883381Y-95333600D01*
X163176819Y-95333600D02*
X162725300Y-95333600D01*
X162725300Y-95333600D02*
X162530100Y-95528800D01*
X162334900Y-95333600D02*
X162563500Y-95333600D01*
X162563500Y-95333600D02*
X162606300Y-95376400D01*
X162725300Y-95333600D02*
X162496700Y-95333600D01*
X162496700Y-95333600D02*
X162453900Y-95376400D01*
D40*
X136114100Y-111962600D02*
X135479100Y-111327600D01*
X158464700Y-111687600D02*
X160239700Y-111687600D01*
X161539500Y-110387800D02*
X161539500Y-102310600D01*
X160239700Y-111687600D02*
X161539500Y-110387800D01*
X161539500Y-102310600D02*
X162834900Y-101015200D01*
X162834900Y-101015200D02*
X163215900Y-101015200D01*
X163215900Y-101015200D02*
X163825500Y-100405600D01*
X164227900Y-96333600D02*
X164227900Y-100003200D01*
X164227900Y-100003200D02*
X163825500Y-100405600D01*
X139924100Y-97992600D02*
X138654100Y-99262600D01*
X138654100Y-99262600D02*
X138019100Y-98627600D01*
X124684100Y-98627600D02*
X123584100Y-98627600D01*
X123934100Y-95071600D02*
X123287100Y-95718600D01*
X123287100Y-95718600D02*
X123287100Y-96595600D01*
X129776100Y-112597600D02*
X129383100Y-112597600D01*
X130526100Y-111847600D02*
X129776100Y-112597600D01*
X137384100Y-97992600D02*
X136901500Y-98475200D01*
X136901500Y-98475200D02*
X136901500Y-99745200D01*
X136901500Y-99745200D02*
X136749100Y-99897600D01*
X135479100Y-96087600D02*
X136114100Y-95452600D01*
X128240100Y-111847600D02*
X127466100Y-111073600D01*
X127466100Y-111073600D02*
X127097100Y-111073600D01*
X135479100Y-97357600D02*
X136114100Y-96722600D01*
X125954100Y-111847600D02*
X126855100Y-111847600D01*
X126855100Y-111847600D02*
X127097100Y-112089600D01*
X136114100Y-97992600D02*
X135479100Y-98627600D01*
X123668100Y-111847600D02*
X124418100Y-112597600D01*
X124418100Y-112597600D02*
X126589100Y-112597600D01*
X126589100Y-112597600D02*
X127097100Y-113105600D01*
X124531700Y-101193000D02*
X125001100Y-101662400D01*
X125001100Y-101662400D02*
X125001100Y-101903600D01*
X125471500Y-101193000D02*
X125001100Y-101663400D01*
X125001100Y-101663400D02*
X125001100Y-101903600D01*
X125471500Y-102615400D02*
X125001100Y-102145000D01*
X125001100Y-102145000D02*
X125001100Y-101903600D01*
X124531700Y-102615400D02*
X125001100Y-102146000D01*
X125001100Y-102146000D02*
X125001100Y-101903600D01*
X123058500Y-109371800D02*
X122490300Y-108803600D01*
X122490300Y-108803600D02*
X122451100Y-108803600D01*
X159064700Y-112847600D02*
X159314700Y-112597600D01*
X159314700Y-112597600D02*
X159482100Y-112597600D01*
X158964700Y-98237600D02*
X158964700Y-98332200D01*
X158964700Y-98332200D02*
X158643900Y-98653000D01*
X134844100Y-99262600D02*
X134209100Y-98627600D01*
X134209100Y-98627600D02*
X132939100Y-98627600D01*
X132939100Y-99897600D02*
X132558100Y-100278600D01*
X132558100Y-100278600D02*
X131915100Y-100278600D01*
X132939100Y-97357600D02*
X132558100Y-96976600D01*
X132558100Y-96976600D02*
X131915100Y-96976600D01*
X136114100Y-100532600D02*
X135479100Y-101167600D01*
X134844100Y-100532600D02*
X135504500Y-99872200D01*
X135504500Y-99872200D02*
X135555300Y-99872200D01*
X133574100Y-101802600D02*
X134209100Y-102437600D01*
X134844100Y-101802600D02*
X135479100Y-102437600D01*
X136114100Y-101802600D02*
X136749100Y-102437600D01*
D39*
X145004100Y-99262600D02*
X143734100Y-97992600D01*
D40*
X137384100Y-96722600D02*
X136901500Y-96240000D01*
X137071100Y-91033600D02*
X135936300Y-92168400D01*
X135936300Y-92168400D02*
X135936300Y-94081000D01*
X136901500Y-96240000D02*
X136901500Y-95046200D01*
X136901500Y-95046200D02*
X135936300Y-94081000D01*
X151354100Y-114502600D02*
X151862100Y-115010600D01*
X151862100Y-115010600D02*
X151989100Y-115010600D01*
X151354100Y-113232600D02*
X151836700Y-113715200D01*
X151836700Y-113715200D02*
X152979700Y-113715200D01*
X152979700Y-113715200D02*
X154376700Y-115112200D01*
X154376700Y-115112200D02*
X164206500Y-115112200D01*
X164206500Y-115112200D02*
X165882900Y-113435800D01*
X168626100Y-93090400D02*
X167711700Y-92176000D01*
X167711700Y-92176000D02*
X166153500Y-92176000D01*
X166153500Y-92176000D02*
X165011100Y-91033600D01*
X168626100Y-94081000D02*
X168626100Y-93090400D01*
X168626100Y-94081000D02*
X166568700Y-96138400D01*
X166568700Y-96138400D02*
X166568700Y-100329400D01*
X166568700Y-100329400D02*
X165882900Y-101015200D01*
X165882900Y-101015200D02*
X165882900Y-113435800D01*
X152624100Y-113232600D02*
X152954300Y-113232600D01*
X152954300Y-113232600D02*
X154529100Y-114807400D01*
X154529100Y-114807400D02*
X164054100Y-114807400D01*
X164054100Y-114807400D02*
X165578100Y-113283400D01*
X166416300Y-92938000D02*
X165654300Y-92176000D01*
X165654300Y-92176000D02*
X163613500Y-92176000D01*
X163613500Y-92176000D02*
X162471100Y-91033600D01*
X165578100Y-113283400D02*
X165578100Y-100862800D01*
X166416300Y-92938000D02*
X166416300Y-94233400D01*
X166416300Y-94233400D02*
X166263900Y-94385800D01*
X166263900Y-94385800D02*
X166263900Y-100177000D01*
X166263900Y-100177000D02*
X165578100Y-100862800D01*
X150084100Y-114502600D02*
X150592100Y-115010600D01*
X150592100Y-115010600D02*
X150719100Y-115010600D01*
X150084100Y-113232600D02*
X150668300Y-113232600D01*
X150668300Y-113232600D02*
X151455700Y-114020000D01*
X151455700Y-114020000D02*
X152827300Y-114020000D01*
X152827300Y-114020000D02*
X154224300Y-115417000D01*
X154224300Y-115417000D02*
X164358900Y-115417000D01*
X164358900Y-115417000D02*
X166187700Y-113588200D01*
X168930900Y-92413400D02*
X167551100Y-91033600D01*
X168930900Y-94233400D02*
X168930900Y-92413400D01*
X166187700Y-113588200D02*
X166187700Y-101167600D01*
X166187700Y-101167600D02*
X166873500Y-100481800D01*
X166873500Y-100481800D02*
X166873500Y-96290800D01*
X166873500Y-96290800D02*
X168930900Y-94233400D01*
X150084100Y-111962600D02*
X150871500Y-112750000D01*
X150871500Y-112750000D02*
X152928900Y-112750000D01*
X152928900Y-112750000D02*
X154681500Y-114502600D01*
X154681500Y-114502600D02*
X163901700Y-114502600D01*
X163901700Y-114502600D02*
X165273300Y-113131000D01*
X166111500Y-93090400D02*
X165501900Y-92480800D01*
X165501900Y-92480800D02*
X161378300Y-92480800D01*
X161378300Y-92480800D02*
X159931100Y-91033600D01*
X165273300Y-100710400D02*
X165273300Y-113131000D01*
X166111500Y-93090400D02*
X166111500Y-94081000D01*
X166111500Y-94081000D02*
X165959100Y-94233400D01*
X165959100Y-94233400D02*
X165959100Y-100024600D01*
X165959100Y-100024600D02*
X165273300Y-100710400D01*
X148814100Y-111962600D02*
X149296700Y-112445200D01*
X149296700Y-112445200D02*
X149296700Y-113969200D01*
X149296700Y-113969200D02*
X149449100Y-114121600D01*
X134844100Y-95452600D02*
X133421700Y-94030200D01*
X133421700Y-94030200D02*
X133421700Y-92464200D01*
X133421700Y-92464200D02*
X131991100Y-91033600D01*
X152624100Y-114502600D02*
X153513100Y-115391600D01*
X153513100Y-115391600D02*
X153513100Y-116788600D01*
X153513100Y-116788600D02*
X154402100Y-117677600D01*
X154402100Y-117677600D02*
X168847100Y-117677600D01*
X168847100Y-117677600D02*
X170091100Y-116433600D01*
X147544100Y-96722600D02*
X148026700Y-96240000D01*
X148026700Y-96240000D02*
X152979700Y-96240000D01*
X152979700Y-96240000D02*
X153309900Y-95909800D01*
X153309900Y-95909800D02*
X153767100Y-95909800D01*
X168854700Y-95147800D02*
X168473700Y-95147800D01*
X168473700Y-95147800D02*
X167178300Y-96443200D01*
X167178300Y-96443200D02*
X167178300Y-100634200D01*
X167178300Y-100634200D02*
X166492500Y-101320000D01*
X166492500Y-101320000D02*
X166492500Y-113740600D01*
X166492500Y-113740600D02*
X166111500Y-114121600D01*
X166111500Y-114121600D02*
X166111500Y-114994000D01*
X166111500Y-114994000D02*
X167551100Y-116433600D01*
X134844100Y-97992600D02*
X134183700Y-97332200D01*
X134183700Y-97332200D02*
X134183700Y-96570200D01*
X134183700Y-96570200D02*
X133574100Y-95960600D01*
X133574100Y-95960600D02*
X132405700Y-95960600D01*
X132405700Y-95960600D02*
X131669100Y-95224000D01*
X131669100Y-95224000D02*
X130754700Y-95224000D01*
X130754700Y-95224000D02*
X130653100Y-95325600D01*
X133574100Y-96722600D02*
X133142300Y-96290800D01*
X133142300Y-96290800D02*
X132278700Y-96290800D01*
X132278700Y-96290800D02*
X131821500Y-95833600D01*
X131821500Y-95833600D02*
X131415100Y-95833600D01*
X141194100Y-114502600D02*
X142032300Y-115340800D01*
X143175300Y-116864800D02*
X143022900Y-117017200D01*
X143022900Y-117017200D02*
X143022900Y-117601400D01*
X143022900Y-117601400D02*
X143607100Y-118185600D01*
X142032300Y-115340800D02*
X142565700Y-115340800D01*
X142565700Y-115340800D02*
X143175300Y-115950400D01*
X143175300Y-115950400D02*
X143175300Y-116864800D01*
X141194100Y-113232600D02*
X141829100Y-113867600D01*
X141829100Y-113867600D02*
X141829100Y-114604200D01*
X141829100Y-114604200D02*
X142260900Y-115036000D01*
X142260900Y-115036000D02*
X142718100Y-115036000D01*
X142718100Y-115036000D02*
X143607100Y-115925000D01*
X143607100Y-115925000D02*
X143607100Y-117245800D01*
X136114100Y-113232600D02*
X136749100Y-113867600D01*
X136749100Y-113867600D02*
X137511100Y-113867600D01*
X137511100Y-113867600D02*
X137866700Y-114223200D01*
X137866700Y-114223200D02*
X137866700Y-114782000D01*
X137866700Y-114782000D02*
X137307900Y-115340800D01*
X137307900Y-115340800D02*
X136622100Y-115340800D01*
X136622100Y-115340800D02*
X136012500Y-115950400D01*
X136012500Y-115950400D02*
X136012500Y-116864800D01*
X136012500Y-116864800D02*
X136622100Y-117474400D01*
X136622100Y-117474400D02*
X138570300Y-117474400D01*
X138570300Y-117474400D02*
X139611100Y-116433600D01*
X138171500Y-114020000D02*
X137384100Y-113232600D01*
X138171500Y-114020000D02*
X138171500Y-115333200D01*
X138171500Y-115333200D02*
X137071100Y-116433600D01*
X134531100Y-116433600D02*
X135954100Y-115010600D01*
X135954100Y-115010600D02*
X136876100Y-115010600D01*
X136876100Y-115010600D02*
X137384100Y-114502600D01*
X136114100Y-114502600D02*
X135733100Y-114502600D01*
X135733100Y-114502600D02*
X135098100Y-115137600D01*
X135098100Y-115137600D02*
X133287100Y-115137600D01*
X133287100Y-115137600D02*
X131991100Y-116433600D01*
X139289100Y-97510000D02*
X139289100Y-97357600D01*
X139289100Y-97357600D02*
X139924100Y-96722600D01*
X126970100Y-101929600D02*
X130068900Y-101929600D01*
X132177100Y-101294600D02*
X132050100Y-101167600D01*
X132050100Y-101167600D02*
X130830900Y-101167600D01*
X130830900Y-101167600D02*
X130068900Y-101929600D01*
X125784100Y-99277600D02*
X125784100Y-99854600D01*
X125784100Y-99854600D02*
X126589100Y-100659600D01*
X126589100Y-100659600D02*
X126589100Y-101548600D01*
X126970100Y-101929600D02*
X126589100Y-101548600D01*
X151354100Y-108152600D02*
X150719100Y-108787600D01*
X155638700Y-97607600D02*
X156176100Y-97607600D01*
X156176100Y-97607600D02*
X156561100Y-97992600D01*
X138019100Y-97357600D02*
X138654100Y-97992600D01*
X141625900Y-100050000D02*
X141981500Y-99694400D01*
X141981500Y-99694400D02*
X141981500Y-99008600D01*
X141981500Y-99008600D02*
X142210100Y-98780000D01*
X142210100Y-98780000D02*
X143988100Y-98780000D01*
X143988100Y-98780000D02*
X144216700Y-99008600D01*
X147544100Y-97992600D02*
X147061500Y-98475200D01*
X147061500Y-98475200D02*
X147061500Y-99643600D01*
X144216700Y-99008600D02*
X144216700Y-99618200D01*
X144216700Y-99618200D02*
X144648500Y-100050000D01*
X144648500Y-100050000D02*
X146655100Y-100050000D01*
X146655100Y-100050000D02*
X147061500Y-99643600D01*
X141625900Y-100050000D02*
X139568500Y-100050000D01*
X139568500Y-100050000D02*
X139289100Y-99770600D01*
X138654100Y-114502600D02*
X139568500Y-115417000D01*
X139568500Y-115417000D02*
X140051100Y-115417000D01*
X140051100Y-115417000D02*
X140660700Y-116026600D01*
X140660700Y-116026600D02*
X140660700Y-117703000D01*
X140660700Y-117703000D02*
X140432100Y-117931600D01*
X138654100Y-113232600D02*
X139289100Y-113867600D01*
X139289100Y-113867600D02*
X139289100Y-114655000D01*
X139289100Y-114655000D02*
X139746300Y-115112200D01*
X139746300Y-115112200D02*
X140203500Y-115112200D01*
X140203500Y-115112200D02*
X140965500Y-115874200D01*
X140965500Y-115874200D02*
X140965500Y-117576000D01*
X140965500Y-117576000D02*
X141321100Y-117931600D01*
X138019100Y-111327600D02*
X138704900Y-111327600D01*
X138704900Y-111327600D02*
X139136700Y-111759400D01*
X139136700Y-111759400D02*
X139136700Y-112445200D01*
X139136700Y-112445200D02*
X139924100Y-113232600D01*
X140559100Y-113867600D02*
X139924100Y-114502600D01*
X140559100Y-113867600D02*
X140559100Y-112978600D01*
X140559100Y-112978600D02*
X140178100Y-112597600D01*
X140178100Y-112597600D02*
X139822500Y-112597600D01*
X139822500Y-112597600D02*
X139441500Y-112216600D01*
X139441500Y-112216600D02*
X139441500Y-111226000D01*
X139441500Y-111226000D02*
X139289100Y-111073600D01*
X139924100Y-95452600D02*
X140736900Y-94639800D01*
X140736900Y-94639800D02*
X140736900Y-92159400D01*
X140736900Y-92159400D02*
X139611100Y-91033600D01*
X131256100Y-109029600D02*
X127256100Y-109029600D01*
X127256100Y-109029600D02*
X127256100Y-109898600D01*
X127256100Y-109898600D02*
X127097100Y-110057600D01*
X150084100Y-99262600D02*
X150719100Y-99897600D01*
X150719100Y-99897600D02*
X151354100Y-100532600D01*
X137384100Y-111962600D02*
X136749100Y-111327600D01*
X136749100Y-111327600D02*
X136749100Y-110057600D01*
X138654100Y-111962600D02*
X138019100Y-112597600D01*
X149601500Y-111861000D02*
X149601500Y-113461200D01*
X149601500Y-113461200D02*
X150007900Y-113867600D01*
X150007900Y-113867600D02*
X150465100Y-113867600D01*
X147544100Y-111962600D02*
X148026700Y-111480000D01*
X148026700Y-111480000D02*
X149220500Y-111480000D01*
X149220500Y-111480000D02*
X149601500Y-111861000D01*
X162471100Y-93573600D02*
X163511900Y-94614400D01*
X163749300Y-101320000D02*
X162987300Y-101320000D01*
X162987300Y-101320000D02*
X162149100Y-102158200D01*
X162149100Y-102158200D02*
X162149100Y-102615400D01*
X163511900Y-94614400D02*
X165044700Y-94614400D01*
X165044700Y-94614400D02*
X165349500Y-94919200D01*
X165349500Y-99719800D02*
X163749300Y-101320000D01*
X165349500Y-99719800D02*
X165349500Y-94919200D01*
X148814100Y-114502600D02*
X149322100Y-115010600D01*
X149322100Y-115010600D02*
X149449100Y-115010600D01*
X163901700Y-101624800D02*
X163139700Y-101624800D01*
X163139700Y-101624800D02*
X162758700Y-102005800D01*
X162758700Y-102005800D02*
X162758700Y-102920200D01*
X162758700Y-102920200D02*
X162149100Y-103529800D01*
X163901700Y-101624800D02*
X165654300Y-99872200D01*
X165654300Y-94216800D02*
X165011100Y-93573600D01*
X165654300Y-94216800D02*
X165654300Y-99872200D01*
X150084100Y-108152600D02*
X149703100Y-108533600D01*
X149703100Y-108533600D02*
X149449100Y-108533600D01*
X155638700Y-97107600D02*
X156176100Y-97107600D01*
X156176100Y-97107600D02*
X156561100Y-96722600D01*
X146274100Y-95452600D02*
X146756700Y-94970000D01*
X146756700Y-94970000D02*
X147848900Y-94970000D01*
X147848900Y-94970000D02*
X148661700Y-94157200D01*
X148661700Y-94157200D02*
X148661700Y-93090400D01*
X148661700Y-93090400D02*
X149474500Y-92277600D01*
X149474500Y-92277600D02*
X151067100Y-92277600D01*
X151067100Y-92277600D02*
X152311100Y-91033600D01*
X145004100Y-97992600D02*
X144521500Y-97510000D01*
X144521500Y-97510000D02*
X144521500Y-95249400D01*
X144521500Y-95249400D02*
X145766100Y-94004800D01*
X145766100Y-94004800D02*
X145766100Y-92498600D01*
X145766100Y-92498600D02*
X147231100Y-91033600D01*
X148814100Y-113232600D02*
X148204500Y-113842200D01*
X148204500Y-113842200D02*
X148204500Y-114867000D01*
X148204500Y-114867000D02*
X149771100Y-116433600D01*
X134209100Y-95325600D02*
X133116900Y-94233400D01*
X133116900Y-94233400D02*
X133116900Y-93090400D01*
X129451100Y-91033600D02*
X130669700Y-92252200D01*
X130669700Y-92252200D02*
X132278700Y-92252200D01*
X132278700Y-92252200D02*
X133116900Y-93090400D01*
X134209100Y-95325600D02*
X134209100Y-96087600D01*
X134209100Y-96087600D02*
X134844100Y-96722600D01*
X130754700Y-93014200D02*
X130145100Y-92404600D01*
X133574100Y-95452600D02*
X132354900Y-95452600D01*
X132354900Y-95452600D02*
X130754700Y-93852400D01*
X130754700Y-93852400D02*
X130754700Y-93014200D01*
X126911100Y-91033600D02*
X128282100Y-92404600D01*
X128282100Y-92404600D02*
X130145100Y-92404600D01*
X136114100Y-99262600D02*
X136596700Y-98780000D01*
X134531100Y-91033600D02*
X135631500Y-92134000D01*
X135631500Y-92134000D02*
X135631500Y-94233400D01*
X135631500Y-94233400D02*
X136596700Y-95198600D01*
X136596700Y-95198600D02*
X136596700Y-98780000D01*
X146299500Y-95935200D02*
X152827300Y-95935200D01*
X152827300Y-95935200D02*
X153614700Y-95147800D01*
X153614700Y-95147800D02*
X153614700Y-92270000D01*
X153614700Y-92270000D02*
X154851100Y-91033600D01*
X146299500Y-95935200D02*
X145766100Y-96468600D01*
X145766100Y-96468600D02*
X145766100Y-97484600D01*
X145766100Y-97484600D02*
X146274100Y-97992600D01*
X145004100Y-96722600D02*
X145486700Y-96240000D01*
X145486700Y-96240000D02*
X145486700Y-95503400D01*
X145486700Y-95503400D02*
X146324900Y-94665200D01*
X146324900Y-94665200D02*
X147620300Y-94665200D01*
X147620300Y-94665200D02*
X148356900Y-93928600D01*
X148356900Y-93928600D02*
X148356900Y-92447800D01*
X148356900Y-92447800D02*
X149771100Y-91033600D01*
X147544100Y-95452600D02*
X147892100Y-95452600D01*
X147892100Y-95452600D02*
X149771100Y-93573600D01*
X147231100Y-93573600D02*
X146571300Y-94233400D01*
X146571300Y-94233400D02*
X146223300Y-94233400D01*
X146223300Y-94233400D02*
X145004100Y-95452600D01*
X142464100Y-114502600D02*
X142464100Y-113232600D01*
X147231100Y-118973600D02*
X145689900Y-117432400D01*
X145689900Y-117432400D02*
X145689900Y-116026600D01*
X145689900Y-116026600D02*
X144699300Y-115036000D01*
X142464100Y-114502600D02*
X143022900Y-114502600D01*
X143022900Y-114502600D02*
X143556300Y-115036000D01*
X143556300Y-115036000D02*
X144699300Y-115036000D01*
X168059300Y-114197800D02*
X168668900Y-114807400D01*
X168668900Y-114807400D02*
X168778500Y-114807400D01*
X145004100Y-114502600D02*
X145004100Y-113232600D01*
X145004100Y-114502600D02*
X145004100Y-114883600D01*
X145004100Y-114883600D02*
X145994700Y-115874200D01*
X145994700Y-115874200D02*
X145994700Y-116179000D01*
X145994700Y-116179000D02*
X146249300Y-116433600D01*
X146249300Y-116433600D02*
X147231100Y-116433600D01*
X147231100Y-116433600D02*
X148509300Y-117711800D01*
X148509300Y-117711800D02*
X148509300Y-119150800D01*
X148509300Y-119150800D02*
X149652300Y-120293800D01*
X149652300Y-120293800D02*
X170302500Y-120293800D01*
X170302500Y-120293800D02*
X171140700Y-119455600D01*
X171140700Y-119455600D02*
X171140700Y-116026600D01*
X171140700Y-116026600D02*
X170531100Y-115417000D01*
X170531100Y-115417000D02*
X168278500Y-115417000D01*
X168278500Y-115417000D02*
X167059300Y-114197800D01*
X143734100Y-114502600D02*
X143099100Y-113867600D01*
X143734100Y-113232600D02*
X144369100Y-113867600D01*
X146274100Y-113232600D02*
X145791500Y-113715200D01*
X145791500Y-113715200D02*
X145791500Y-114756600D01*
X145791500Y-114756600D02*
X146147100Y-115112200D01*
X146147100Y-115112200D02*
X147975900Y-115112200D01*
X147975900Y-115112200D02*
X148661700Y-115798000D01*
X148661700Y-115798000D02*
X148661700Y-116864800D01*
X148661700Y-116864800D02*
X149347500Y-117550600D01*
X149347500Y-117550600D02*
X153428100Y-117550600D01*
X153428100Y-117550600D02*
X154851100Y-118973600D01*
X154376700Y-119989000D02*
X156375700Y-119989000D01*
X156375700Y-119989000D02*
X157391100Y-118973600D01*
X146274100Y-111962600D02*
X145486700Y-112750000D01*
X145486700Y-112750000D02*
X145486700Y-114909000D01*
X145486700Y-114909000D02*
X145994700Y-115417000D01*
X145994700Y-115417000D02*
X147823500Y-115417000D01*
X147823500Y-115417000D02*
X148356900Y-115950400D01*
X148356900Y-115950400D02*
X148356900Y-117017200D01*
X148356900Y-117017200D02*
X149195100Y-117855400D01*
X149195100Y-117855400D02*
X153233700Y-117855400D01*
X153233700Y-117855400D02*
X153614700Y-118236400D01*
X153614700Y-118236400D02*
X153614700Y-119227000D01*
X153614700Y-119227000D02*
X154376700Y-119989000D01*
X145004100Y-111962600D02*
X145486700Y-111480000D01*
X146553500Y-111480000D02*
X146985300Y-111911800D01*
X146985300Y-111911800D02*
X146985300Y-114045400D01*
X145486700Y-111480000D02*
X146553500Y-111480000D01*
X147544100Y-99262600D02*
X148814100Y-99262600D01*
X148814100Y-100532600D02*
X148814100Y-101802600D01*
X148814100Y-109422600D02*
X148814100Y-110692600D01*
X133574100Y-100532600D02*
X134209100Y-99897600D01*
X128994100Y-105866600D02*
X129662500Y-105866600D01*
X129662500Y-105866600D02*
X130068900Y-106273000D01*
X130068900Y-106273000D02*
X130449900Y-106273000D01*
X139924100Y-99262600D02*
X141194100Y-99262600D01*
X139924100Y-110692600D02*
X139924100Y-111962600D01*
X141194100Y-110692600D02*
X141194100Y-111962600D01*
X150084100Y-110692600D02*
X150871500Y-111480000D01*
X150871500Y-111480000D02*
X153030500Y-111480000D01*
X153030500Y-111480000D02*
X154529100Y-112978600D01*
X154529100Y-112978600D02*
X155976900Y-112978600D01*
X155976900Y-112978600D02*
X156891300Y-113893000D01*
X156891300Y-113893000D02*
X157196100Y-114197800D01*
X157196100Y-114197800D02*
X161572900Y-114197800D01*
X161572900Y-114197800D02*
X161877700Y-113893000D01*
X151354100Y-110692600D02*
X151836700Y-111175200D01*
X151836700Y-111175200D02*
X153182900Y-111175200D01*
X153182900Y-111175200D02*
X154681500Y-112673800D01*
X154681500Y-112673800D02*
X156510300Y-112673800D01*
X156510300Y-112673800D02*
X156891300Y-113054800D01*
X152624100Y-110692600D02*
X153157500Y-110692600D01*
X153157500Y-110692600D02*
X154833900Y-112369000D01*
X154833900Y-112369000D02*
X157043700Y-112369000D01*
X157043700Y-112369000D02*
X157729500Y-113054800D01*
X152624100Y-111962600D02*
X153055900Y-111962600D01*
X153055900Y-111962600D02*
X154376700Y-113283400D01*
X154376700Y-113283400D02*
X155443500Y-113283400D01*
X155443500Y-113283400D02*
X156053100Y-113893000D01*
X151354100Y-111962600D02*
X151836700Y-112445200D01*
X151836700Y-112445200D02*
X153081300Y-112445200D01*
X153081300Y-112445200D02*
X154529100Y-113893000D01*
X154529100Y-113893000D02*
X155214900Y-113893000D01*
X143734100Y-111962600D02*
X143734100Y-111429200D01*
X143734100Y-111429200D02*
X144216700Y-110946600D01*
X144216700Y-110946600D02*
X144216700Y-110337000D01*
X144216700Y-110337000D02*
X144648500Y-109905200D01*
X144648500Y-109905200D02*
X147772700Y-109905200D01*
X147772700Y-109905200D02*
X148026700Y-109651200D01*
X148026700Y-109651200D02*
X148026700Y-106527000D01*
X148026700Y-106527000D02*
X148458500Y-106095200D01*
X148458500Y-106095200D02*
X149068100Y-106095200D01*
X149068100Y-106095200D02*
X149296700Y-105866600D01*
X149296700Y-105866600D02*
X149296700Y-97586200D01*
X149296700Y-97586200D02*
X149677700Y-97205200D01*
X149677700Y-97205200D02*
X152903500Y-97205200D01*
X154638700Y-96556519D02*
X154638700Y-97107600D01*
X152903500Y-97205200D02*
X153552181Y-96556519D01*
X153552181Y-96556519D02*
X154638700Y-96556519D01*
X142464100Y-111962600D02*
X142946700Y-112445200D01*
X142946700Y-112445200D02*
X143937300Y-112445200D01*
X143937300Y-112445200D02*
X144216700Y-112165800D01*
X144216700Y-112165800D02*
X144216700Y-111403800D01*
X144216700Y-111403800D02*
X144521500Y-111099000D01*
X144521500Y-111099000D02*
X144521500Y-110489400D01*
X144521500Y-110489400D02*
X144800900Y-110210000D01*
X144800900Y-110210000D02*
X147925100Y-110210000D01*
X147925100Y-110210000D02*
X148331500Y-109803600D01*
X148331500Y-109803600D02*
X148331500Y-106679400D01*
X148331500Y-106679400D02*
X148610900Y-106400000D01*
X148610900Y-106400000D02*
X149220500Y-106400000D01*
X149220500Y-106400000D02*
X149601500Y-106019000D01*
X149601500Y-106019000D02*
X149601500Y-97738600D01*
X149601500Y-97738600D02*
X149830100Y-97510000D01*
X149830100Y-97510000D02*
X152903500Y-97510000D01*
X152903500Y-97510000D02*
X153552181Y-98158681D01*
X154638700Y-97607600D02*
X154638700Y-98158681D01*
X153552181Y-98158681D02*
X154638700Y-98158681D01*
X137384100Y-99262600D02*
X138019100Y-99897600D01*
X138019100Y-99897600D02*
X138019100Y-103326600D01*
X138019100Y-103326600D02*
X137638100Y-103707600D01*
X137638100Y-103707600D02*
X137130100Y-103707600D01*
X137130100Y-103707600D02*
X136749100Y-104088600D01*
X136749100Y-104088600D02*
X136749100Y-105866600D01*
X136749100Y-105866600D02*
X137130100Y-106247600D01*
X137130100Y-106247600D02*
X137638100Y-106247600D01*
X137638100Y-106247600D02*
X138019100Y-106628600D01*
X138019100Y-106628600D02*
X138019100Y-109676600D01*
X138019100Y-109676600D02*
X138400100Y-110057600D01*
X138400100Y-110057600D02*
X141448100Y-110057600D01*
X141448100Y-110057600D02*
X141829100Y-110438600D01*
X144902500Y-111175200D02*
X149220500Y-111175200D01*
X150465100Y-110057600D02*
X149982500Y-110057600D01*
X149220500Y-111175200D02*
X149601500Y-110794200D01*
X149601500Y-110794200D02*
X149601500Y-110438600D01*
X149601500Y-110438600D02*
X149982500Y-110057600D01*
X144902500Y-111175200D02*
X144521500Y-111556200D01*
X144521500Y-111556200D02*
X144521500Y-112318200D01*
X144521500Y-112318200D02*
X144089700Y-112750000D01*
X144089700Y-112750000D02*
X142489500Y-112750000D01*
X142489500Y-112750000D02*
X141829100Y-112089600D01*
X141829100Y-112089600D02*
X141829100Y-110438600D01*
X158643900Y-94614400D02*
X158872500Y-94385800D01*
X158872500Y-94385800D02*
X158872500Y-90575800D01*
X158872500Y-90575800D02*
X159482100Y-89966200D01*
X159482100Y-89966200D02*
X169023700Y-89966200D01*
X169023700Y-89966200D02*
X170091100Y-91033600D01*
X151354100Y-109422600D02*
X151836700Y-109905200D01*
X151836700Y-109905200D02*
X153284500Y-109905200D01*
X153284500Y-109905200D02*
X154529100Y-111149800D01*
X154529100Y-111149800D02*
X155595900Y-111149800D01*
X155595900Y-111149800D02*
X156205500Y-111759400D01*
X153132100Y-110210000D02*
X154681500Y-111759400D01*
X154681500Y-111759400D02*
X155367300Y-111759400D01*
X150084100Y-109422600D02*
X150668300Y-109422600D01*
X150668300Y-109422600D02*
X151455700Y-110210000D01*
X151455700Y-110210000D02*
X153132100Y-110210000D01*
X148814100Y-108152600D02*
X148814100Y-108711400D01*
X148814100Y-108711400D02*
X149449100Y-109346400D01*
X149449100Y-109346400D02*
X149449100Y-109803600D01*
X148814100Y-106882600D02*
X149449100Y-107517600D01*
X137384100Y-108152600D02*
X136749100Y-108787600D01*
X137384100Y-106882600D02*
X136749100Y-107517600D01*
X125184100Y-93547600D02*
X125184100Y-94174600D01*
X125184100Y-94174600D02*
X125434100Y-94424600D01*
X125434100Y-94424600D02*
X125434100Y-95071600D01*
X123799100Y-114828800D02*
X123799100Y-115526600D01*
X123799100Y-114828800D02*
X125280300Y-113347600D01*
X125280300Y-113347600D02*
X125954100Y-113347600D01*
X123248019Y-115526600D02*
X123248019Y-114922681D01*
X123248019Y-114922681D02*
X123668100Y-114502600D01*
X123668100Y-114502600D02*
X123668100Y-113347600D01*
X124299100Y-114786000D02*
X124299100Y-115526600D01*
X124299100Y-114786000D02*
X125039700Y-114045400D01*
X125039700Y-114045400D02*
X127542300Y-114045400D01*
X127542300Y-114045400D02*
X128240100Y-113347600D01*
X124850181Y-114692119D02*
X124850181Y-115526600D01*
X124850181Y-114692119D02*
X125192100Y-114350200D01*
X130526100Y-113347600D02*
X129598300Y-113347600D01*
X129598300Y-113347600D02*
X128595700Y-114350200D01*
X128595700Y-114350200D02*
X125192100Y-114350200D01*
X146274100Y-110692600D02*
X145004100Y-110692600D01*
X150084100Y-106882600D02*
X150871500Y-107670000D01*
X150871500Y-107670000D02*
X152878100Y-107670000D01*
X152878100Y-107670000D02*
X154263381Y-109055281D01*
X154263381Y-109055281D02*
X154638700Y-109055281D01*
X151354100Y-106882600D02*
X151836700Y-107365200D01*
X154638700Y-108504200D02*
X154169500Y-108504200D01*
X154169500Y-108504200D02*
X153030500Y-107365200D01*
X153030500Y-107365200D02*
X151836700Y-107365200D01*
X154638700Y-108004200D02*
X154126700Y-108004200D01*
X154126700Y-108004200D02*
X153005100Y-106882600D01*
X153005100Y-106882600D02*
X152624100Y-106882600D01*
X152624100Y-108152600D02*
X151989100Y-108787600D01*
X152624100Y-109422600D02*
X153005100Y-109041600D01*
X153005100Y-109041600D02*
X153005100Y-108787600D01*
X146274100Y-96722600D02*
X146909100Y-97357600D01*
G36*
X143784900Y-99770600D02*
X143786364Y-99785466D01*
X143790700Y-99799760D01*
X143797742Y-99812934D01*
X143807218Y-99824482D01*
X144442218Y-100459482D01*
X144453766Y-100468958D01*
X144466940Y-100476000D01*
X144481234Y-100480336D01*
X144496100Y-100481800D01*
X147594900Y-100481800D01*
X147594900Y-103580600D01*
X147596364Y-103595466D01*
X147600700Y-103609760D01*
X147607742Y-103622934D01*
X147617218Y-103634482D01*
X148252218Y-104269482D01*
X148263766Y-104278958D01*
X148276940Y-104286000D01*
X148291234Y-104290336D01*
X148306100Y-104291800D01*
X148864900Y-104291800D01*
X148864900Y-105663400D01*
X148306100Y-105663400D01*
X148291234Y-105664864D01*
X148276940Y-105669200D01*
X148263766Y-105676242D01*
X148252218Y-105685718D01*
X147617218Y-106320718D01*
X147607742Y-106332266D01*
X147600700Y-106345440D01*
X147596364Y-106359734D01*
X147594900Y-106374600D01*
X147594900Y-109473400D01*
X144496100Y-109473400D01*
X144481234Y-109474864D01*
X144466940Y-109479200D01*
X144453766Y-109486242D01*
X144442218Y-109495718D01*
X143807218Y-110130718D01*
X143797742Y-110142266D01*
X143790700Y-110155440D01*
X143786364Y-110169734D01*
X143784900Y-110184600D01*
X143784900Y-110743400D01*
X142413300Y-110743400D01*
X142413300Y-110184600D01*
X142411836Y-110169734D01*
X142407500Y-110155440D01*
X142400458Y-110142266D01*
X142390982Y-110130718D01*
X141755982Y-109495718D01*
X141744434Y-109486242D01*
X141731260Y-109479200D01*
X141716966Y-109474864D01*
X141702100Y-109473400D01*
X138603300Y-109473400D01*
X138603300Y-106374600D01*
X138601836Y-106359734D01*
X138597500Y-106345440D01*
X138590458Y-106332266D01*
X138580982Y-106320718D01*
X137945982Y-105685718D01*
X137934434Y-105676242D01*
X137921260Y-105669200D01*
X137906966Y-105664864D01*
X137892100Y-105663400D01*
X137333300Y-105663400D01*
X137333300Y-104291800D01*
X137892100Y-104291800D01*
X137906966Y-104290336D01*
X137921260Y-104286000D01*
X137934434Y-104278958D01*
X137945982Y-104269482D01*
X138580982Y-103634482D01*
X138590458Y-103622934D01*
X138597500Y-103609760D01*
X138601836Y-103595466D01*
X138603300Y-103580600D01*
X138603300Y-101845291D01*
X139448492Y-101845291D01*
X139465397Y-101937399D01*
X139499870Y-102024470D01*
X139550600Y-102103186D01*
X139568500Y-102121722D01*
X139568500Y-102757474D01*
X139559068Y-102766711D01*
X139506161Y-102843980D01*
X139469270Y-102930054D01*
X139449799Y-103021654D01*
X139448492Y-103115291D01*
X139465397Y-103207399D01*
X139499870Y-103294470D01*
X139550600Y-103373186D01*
X139615652Y-103440550D01*
X139692550Y-103493995D01*
X139778364Y-103531486D01*
X139869826Y-103551596D01*
X139963452Y-103553557D01*
X140055676Y-103537295D01*
X140142985Y-103503430D01*
X140222053Y-103453252D01*
X140248360Y-103428200D01*
X140432100Y-103428200D01*
X140519581Y-103410799D01*
X140593745Y-103361245D01*
X140738856Y-103216134D01*
X140769870Y-103294470D01*
X140820600Y-103373186D01*
X140837939Y-103391141D01*
X140838220Y-103486190D01*
X140290537Y-104033873D01*
X140232496Y-103975424D01*
X140154859Y-103923057D01*
X140068530Y-103886768D01*
X139976796Y-103867938D01*
X139883152Y-103867284D01*
X139791164Y-103884831D01*
X139704336Y-103919912D01*
X139625976Y-103971189D01*
X139559068Y-104036711D01*
X139506161Y-104113980D01*
X139469270Y-104200054D01*
X139449799Y-104291654D01*
X139448492Y-104385291D01*
X139465397Y-104477399D01*
X139499870Y-104564470D01*
X139550600Y-104643186D01*
X139560300Y-104653231D01*
X139560300Y-105302965D01*
X139559068Y-105304171D01*
X139506161Y-105381440D01*
X139469270Y-105467514D01*
X139449799Y-105559114D01*
X139448492Y-105652751D01*
X139465397Y-105744859D01*
X139499870Y-105831930D01*
X139550600Y-105910646D01*
X139615652Y-105978010D01*
X139692550Y-106031455D01*
X139778364Y-106068946D01*
X139869826Y-106089056D01*
X139963452Y-106091017D01*
X140055676Y-106074755D01*
X140142985Y-106040890D01*
X140222053Y-105990712D01*
X140289870Y-105926131D01*
X140292133Y-105922923D01*
X140838724Y-106469514D01*
X140838948Y-106564495D01*
X140829068Y-106574171D01*
X140776161Y-106651440D01*
X140739270Y-106737514D01*
X140738925Y-106739135D01*
X140593745Y-106593955D01*
X140519581Y-106544401D01*
X140432100Y-106527000D01*
X140246514Y-106527000D01*
X140232496Y-106512884D01*
X140154859Y-106460517D01*
X140068530Y-106424228D01*
X139976796Y-106405398D01*
X139883152Y-106404744D01*
X139791164Y-106422291D01*
X139704336Y-106457372D01*
X139625976Y-106508649D01*
X139559068Y-106574171D01*
X139506161Y-106651440D01*
X139469270Y-106737514D01*
X139449799Y-106829114D01*
X139448492Y-106922751D01*
X139465397Y-107014859D01*
X139499870Y-107101930D01*
X139550600Y-107180646D01*
X139568500Y-107199182D01*
X139568500Y-107834934D01*
X139559068Y-107844171D01*
X139506161Y-107921440D01*
X139469270Y-108007514D01*
X139449799Y-108099114D01*
X139448492Y-108192751D01*
X139465397Y-108284859D01*
X139499870Y-108371930D01*
X139550600Y-108450646D01*
X139615652Y-108518010D01*
X139692550Y-108571455D01*
X139778364Y-108608946D01*
X139869826Y-108629056D01*
X139963452Y-108631017D01*
X140055676Y-108614755D01*
X140142985Y-108580890D01*
X140222053Y-108530712D01*
X140245693Y-108508200D01*
X140432100Y-108508200D01*
X140519581Y-108490799D01*
X140593745Y-108441245D01*
X140739576Y-108295414D01*
X140769870Y-108371930D01*
X140820600Y-108450646D01*
X140885652Y-108518010D01*
X140962550Y-108571455D01*
X141048364Y-108608946D01*
X141139826Y-108629056D01*
X141233452Y-108631017D01*
X141325676Y-108614755D01*
X141412985Y-108580890D01*
X141492053Y-108530712D01*
X141559870Y-108466131D01*
X141613851Y-108389609D01*
X141651940Y-108304058D01*
X141672687Y-108212739D01*
X141674181Y-108105777D01*
X141655992Y-108013914D01*
X141620306Y-107927333D01*
X141568482Y-107849333D01*
X141553515Y-107834261D01*
X141552545Y-107203106D01*
X141559870Y-107196131D01*
X141613851Y-107119609D01*
X141651940Y-107034058D01*
X141672687Y-106942739D01*
X141674181Y-106835777D01*
X141655992Y-106743914D01*
X141620306Y-106657333D01*
X141568482Y-106579333D01*
X141551561Y-106562293D01*
X141550597Y-105934962D01*
X141559870Y-105926131D01*
X141613851Y-105849609D01*
X141651940Y-105764058D01*
X141672687Y-105672739D01*
X141674181Y-105565777D01*
X141655992Y-105473914D01*
X141620306Y-105387333D01*
X141568482Y-105309333D01*
X141549606Y-105290325D01*
X141548652Y-104669354D01*
X141559870Y-104658671D01*
X141613851Y-104582149D01*
X141651940Y-104496598D01*
X141672687Y-104405279D01*
X141674181Y-104298317D01*
X141655992Y-104206454D01*
X141620306Y-104119873D01*
X141568482Y-104041873D01*
X141547655Y-104020900D01*
X141546703Y-103401210D01*
X141559870Y-103388671D01*
X141613851Y-103312149D01*
X141651940Y-103226598D01*
X141672687Y-103135279D01*
X141674181Y-103028317D01*
X141655992Y-102936454D01*
X141620306Y-102849873D01*
X141568482Y-102771873D01*
X141545701Y-102748932D01*
X141544754Y-102133065D01*
X141559870Y-102118671D01*
X141613851Y-102042149D01*
X141651940Y-101956598D01*
X141672687Y-101865279D01*
X141672966Y-101845291D01*
X141988492Y-101845291D01*
X142005397Y-101937399D01*
X142039870Y-102024470D01*
X142090600Y-102103186D01*
X142108500Y-102121722D01*
X142108500Y-102757474D01*
X142099068Y-102766711D01*
X142046161Y-102843980D01*
X142009270Y-102930054D01*
X141989799Y-103021654D01*
X141988492Y-103115291D01*
X142005397Y-103207399D01*
X142039870Y-103294470D01*
X142090600Y-103373186D01*
X142108500Y-103391722D01*
X142108500Y-104027474D01*
X142099068Y-104036711D01*
X142046161Y-104113980D01*
X142009270Y-104200054D01*
X141989799Y-104291654D01*
X141988492Y-104385291D01*
X142005397Y-104477399D01*
X142039870Y-104564470D01*
X142090600Y-104643186D01*
X142108500Y-104661722D01*
X142108500Y-105294934D01*
X142099068Y-105304171D01*
X142046161Y-105381440D01*
X142009270Y-105467514D01*
X141989799Y-105559114D01*
X141988492Y-105652751D01*
X142005397Y-105744859D01*
X142039870Y-105831930D01*
X142090600Y-105910646D01*
X142108500Y-105929182D01*
X142108500Y-106564934D01*
X142099068Y-106574171D01*
X142046161Y-106651440D01*
X142009270Y-106737514D01*
X141989799Y-106829114D01*
X141988492Y-106922751D01*
X142005397Y-107014859D01*
X142039870Y-107101930D01*
X142090600Y-107180646D01*
X142108500Y-107199182D01*
X142108500Y-107834934D01*
X142099068Y-107844171D01*
X142046161Y-107921440D01*
X142009270Y-108007514D01*
X141989799Y-108099114D01*
X141988492Y-108192751D01*
X142005397Y-108284859D01*
X142039870Y-108371930D01*
X142090600Y-108450646D01*
X142155652Y-108518010D01*
X142232550Y-108571455D01*
X142318364Y-108608946D01*
X142409826Y-108629056D01*
X142503452Y-108631017D01*
X142595676Y-108614755D01*
X142682985Y-108580890D01*
X142762053Y-108530712D01*
X142785693Y-108508200D01*
X143413639Y-108508200D01*
X143423112Y-108518010D01*
X143500010Y-108571455D01*
X143585824Y-108608946D01*
X143677286Y-108629056D01*
X143770912Y-108631017D01*
X143863136Y-108614755D01*
X143950445Y-108580890D01*
X144029513Y-108530712D01*
X144097330Y-108466131D01*
X144151311Y-108389609D01*
X144189400Y-108304058D01*
X144210147Y-108212739D01*
X144211641Y-108105777D01*
X144193452Y-108013914D01*
X144157766Y-107927333D01*
X144105942Y-107849333D01*
X144089700Y-107832977D01*
X144089700Y-107203397D01*
X144097330Y-107196131D01*
X144151311Y-107119609D01*
X144189400Y-107034058D01*
X144210147Y-106942739D01*
X144210426Y-106922751D01*
X144525952Y-106922751D01*
X144542857Y-107014859D01*
X144577330Y-107101930D01*
X144602200Y-107140520D01*
X144602200Y-107894306D01*
X144583621Y-107921440D01*
X144546730Y-108007514D01*
X144527259Y-108099114D01*
X144525952Y-108192751D01*
X144542857Y-108284859D01*
X144577330Y-108371930D01*
X144628060Y-108450646D01*
X144693112Y-108518010D01*
X144770010Y-108571455D01*
X144855824Y-108608946D01*
X144947286Y-108629056D01*
X145040912Y-108631017D01*
X145133136Y-108614755D01*
X145220445Y-108580890D01*
X145253993Y-108559600D01*
X146022953Y-108559600D01*
X146040010Y-108571455D01*
X146125824Y-108608946D01*
X146217286Y-108629056D01*
X146310912Y-108631017D01*
X146403136Y-108614755D01*
X146490445Y-108580890D01*
X146569513Y-108530712D01*
X146637330Y-108466131D01*
X146691311Y-108389609D01*
X146729400Y-108304058D01*
X146750147Y-108212739D01*
X146751641Y-108105777D01*
X146733452Y-108013914D01*
X146697766Y-107927333D01*
X146659600Y-107869890D01*
X146659600Y-107164562D01*
X146691311Y-107119609D01*
X146729400Y-107034058D01*
X146750147Y-106942739D01*
X146751641Y-106835777D01*
X146733452Y-106743914D01*
X146697766Y-106657333D01*
X146645942Y-106579333D01*
X146607569Y-106540691D01*
X146592645Y-106518355D01*
X146518481Y-106468801D01*
X146512978Y-106467706D01*
X146502319Y-106460517D01*
X146415990Y-106424228D01*
X146324256Y-106405398D01*
X146230612Y-106404744D01*
X146138624Y-106422291D01*
X146066577Y-106451400D01*
X145210630Y-106451400D01*
X145145990Y-106424228D01*
X145054256Y-106405398D01*
X144960612Y-106404744D01*
X144868624Y-106422291D01*
X144781796Y-106457372D01*
X144773507Y-106462796D01*
X144743319Y-106468801D01*
X144669155Y-106518355D01*
X144619601Y-106592519D01*
X144617814Y-106601502D01*
X144583621Y-106651440D01*
X144546730Y-106737514D01*
X144527259Y-106829114D01*
X144525952Y-106922751D01*
X144210426Y-106922751D01*
X144211641Y-106835777D01*
X144193452Y-106743914D01*
X144157766Y-106657333D01*
X144105942Y-106579333D01*
X144089700Y-106562977D01*
X144089700Y-106469290D01*
X144590790Y-105968200D01*
X144683639Y-105968200D01*
X144693112Y-105978010D01*
X144770010Y-106031455D01*
X144855824Y-106068946D01*
X144947286Y-106089056D01*
X145040912Y-106091017D01*
X145133136Y-106074755D01*
X145220445Y-106040890D01*
X145299513Y-105990712D01*
X145367330Y-105926131D01*
X145421311Y-105849609D01*
X145459400Y-105764058D01*
X145480147Y-105672739D01*
X145480426Y-105652751D01*
X145795952Y-105652751D01*
X145812857Y-105744859D01*
X145847330Y-105831930D01*
X145898060Y-105910646D01*
X145963112Y-105978010D01*
X146040010Y-106031455D01*
X146125824Y-106068946D01*
X146217286Y-106089056D01*
X146310912Y-106091017D01*
X146403136Y-106074755D01*
X146490445Y-106040890D01*
X146569513Y-105990712D01*
X146637330Y-105926131D01*
X146691311Y-105849609D01*
X146729400Y-105764058D01*
X146750147Y-105672739D01*
X146751641Y-105565777D01*
X146733452Y-105473914D01*
X146697766Y-105387333D01*
X146645942Y-105309333D01*
X146579956Y-105242884D01*
X146502319Y-105190517D01*
X146415990Y-105154228D01*
X146324256Y-105135398D01*
X146230612Y-105134744D01*
X146138624Y-105152291D01*
X146051796Y-105187372D01*
X145973436Y-105238649D01*
X145906528Y-105304171D01*
X145853621Y-105381440D01*
X145816730Y-105467514D01*
X145797259Y-105559114D01*
X145795952Y-105652751D01*
X145480426Y-105652751D01*
X145481641Y-105565777D01*
X145463452Y-105473914D01*
X145427766Y-105387333D01*
X145375942Y-105309333D01*
X145359700Y-105292977D01*
X145359700Y-104665937D01*
X145367330Y-104658671D01*
X145421311Y-104582149D01*
X145459400Y-104496598D01*
X145480147Y-104405279D01*
X145480426Y-104385291D01*
X145795952Y-104385291D01*
X145812857Y-104477399D01*
X145847330Y-104564470D01*
X145898060Y-104643186D01*
X145963112Y-104710550D01*
X146040010Y-104763995D01*
X146125824Y-104801486D01*
X146217286Y-104821596D01*
X146310912Y-104823557D01*
X146403136Y-104807295D01*
X146490445Y-104773430D01*
X146569513Y-104723252D01*
X146637330Y-104658671D01*
X146691311Y-104582149D01*
X146729400Y-104496598D01*
X146750147Y-104405279D01*
X146751641Y-104298317D01*
X146733452Y-104206454D01*
X146697766Y-104119873D01*
X146645942Y-104041873D01*
X146579956Y-103975424D01*
X146502319Y-103923057D01*
X146415990Y-103886768D01*
X146324256Y-103867938D01*
X146230612Y-103867284D01*
X146138624Y-103884831D01*
X146051796Y-103919912D01*
X145973436Y-103971189D01*
X145906528Y-104036711D01*
X145853621Y-104113980D01*
X145816730Y-104200054D01*
X145797259Y-104291654D01*
X145795952Y-104385291D01*
X145480426Y-104385291D01*
X145481641Y-104298317D01*
X145463452Y-104206454D01*
X145427766Y-104119873D01*
X145375942Y-104041873D01*
X145309956Y-103975424D01*
X145232319Y-103923057D01*
X145145990Y-103886768D01*
X145054256Y-103867938D01*
X144960612Y-103867284D01*
X144868624Y-103884831D01*
X144781796Y-103919912D01*
X144703436Y-103971189D01*
X144687291Y-103987000D01*
X144590790Y-103987000D01*
X144089700Y-103485910D01*
X144089700Y-103395937D01*
X144097330Y-103388671D01*
X144151311Y-103312149D01*
X144189400Y-103226598D01*
X144210147Y-103135279D01*
X144211641Y-103028317D01*
X144193452Y-102936454D01*
X144157766Y-102849873D01*
X144105942Y-102771873D01*
X144089700Y-102755517D01*
X144089700Y-102125937D01*
X144097330Y-102118671D01*
X144151311Y-102042149D01*
X144189400Y-101956598D01*
X144210147Y-101865279D01*
X144210426Y-101845291D01*
X144525952Y-101845291D01*
X144542857Y-101937399D01*
X144576800Y-102023131D01*
X144576800Y-102859895D01*
X144546730Y-102930054D01*
X144527259Y-103021654D01*
X144525952Y-103115291D01*
X144542857Y-103207399D01*
X144577330Y-103294470D01*
X144628060Y-103373186D01*
X144693112Y-103440550D01*
X144770010Y-103493995D01*
X144855824Y-103531486D01*
X144947286Y-103551596D01*
X145040912Y-103553557D01*
X145133136Y-103537295D01*
X145220445Y-103503430D01*
X145298019Y-103454200D01*
X145982752Y-103454200D01*
X146040010Y-103493995D01*
X146125824Y-103531486D01*
X146217286Y-103551596D01*
X146310912Y-103553557D01*
X146403136Y-103537295D01*
X146490445Y-103503430D01*
X146569513Y-103453252D01*
X146637330Y-103388671D01*
X146691311Y-103312149D01*
X146729400Y-103226598D01*
X146750147Y-103135279D01*
X146751641Y-103028317D01*
X146733452Y-102936454D01*
X146697766Y-102849873D01*
X146685000Y-102830659D01*
X146685000Y-102051095D01*
X146691311Y-102042149D01*
X146729400Y-101956598D01*
X146750147Y-101865279D01*
X146751641Y-101758317D01*
X146733452Y-101666454D01*
X146697766Y-101579873D01*
X146645942Y-101501873D01*
X146579956Y-101435424D01*
X146502319Y-101383057D01*
X146415990Y-101346768D01*
X146324256Y-101327938D01*
X146230612Y-101327284D01*
X146138624Y-101344831D01*
X146051796Y-101379912D01*
X145987173Y-101422200D01*
X145290351Y-101422200D01*
X145232319Y-101383057D01*
X145145990Y-101346768D01*
X145054256Y-101327938D01*
X144960612Y-101327284D01*
X144868624Y-101344831D01*
X144781796Y-101379912D01*
X144703436Y-101431189D01*
X144645294Y-101488127D01*
X144643755Y-101489155D01*
X144642830Y-101490540D01*
X144636528Y-101496711D01*
X144583621Y-101573980D01*
X144546730Y-101660054D01*
X144527259Y-101751654D01*
X144525952Y-101845291D01*
X144210426Y-101845291D01*
X144211641Y-101758317D01*
X144193452Y-101666454D01*
X144157766Y-101579873D01*
X144105942Y-101501873D01*
X144039956Y-101435424D01*
X143962319Y-101383057D01*
X143875990Y-101346768D01*
X143784256Y-101327938D01*
X143690612Y-101327284D01*
X143598624Y-101344831D01*
X143511796Y-101379912D01*
X143433436Y-101431189D01*
X143417291Y-101447000D01*
X142783991Y-101447000D01*
X142772496Y-101435424D01*
X142694859Y-101383057D01*
X142608530Y-101346768D01*
X142516796Y-101327938D01*
X142423152Y-101327284D01*
X142331164Y-101344831D01*
X142244336Y-101379912D01*
X142165976Y-101431189D01*
X142099068Y-101496711D01*
X142046161Y-101573980D01*
X142009270Y-101660054D01*
X141989799Y-101751654D01*
X141988492Y-101845291D01*
X141672966Y-101845291D01*
X141674181Y-101758317D01*
X141655992Y-101666454D01*
X141620306Y-101579873D01*
X141568482Y-101501873D01*
X141502496Y-101435424D01*
X141424859Y-101383057D01*
X141338530Y-101346768D01*
X141246796Y-101327938D01*
X141153152Y-101327284D01*
X141061164Y-101344831D01*
X140974336Y-101379912D01*
X140895976Y-101431189D01*
X140829068Y-101496711D01*
X140776161Y-101573980D01*
X140739442Y-101659652D01*
X140593745Y-101513955D01*
X140519581Y-101464401D01*
X140432100Y-101447000D01*
X140243991Y-101447000D01*
X140232496Y-101435424D01*
X140154859Y-101383057D01*
X140068530Y-101346768D01*
X139976796Y-101327938D01*
X139883152Y-101327284D01*
X139791164Y-101344831D01*
X139704336Y-101379912D01*
X139625976Y-101431189D01*
X139559068Y-101496711D01*
X139506161Y-101573980D01*
X139469270Y-101660054D01*
X139449799Y-101751654D01*
X139448492Y-101845291D01*
X138603300Y-101845291D01*
X138603300Y-100481800D01*
X141702100Y-100481800D01*
X141716966Y-100480336D01*
X141731260Y-100476000D01*
X141744434Y-100468958D01*
X141755982Y-100459482D01*
X142390982Y-99824482D01*
X142400458Y-99812934D01*
X142407500Y-99799760D01*
X142411836Y-99785466D01*
X142413300Y-99770600D01*
X142413300Y-99211800D01*
X143784900Y-99211800D01*
X143784900Y-99770600D01*
X143784900Y-99770600D01*
G37*
X143784900Y-99770600D02*
X143786364Y-99785466D01*
X143790700Y-99799760D01*
X143797742Y-99812934D01*
X143807218Y-99824482D01*
X144442218Y-100459482D01*
X144453766Y-100468958D01*
X144466940Y-100476000D01*
X144481234Y-100480336D01*
X144496100Y-100481800D01*
X147594900Y-100481800D01*
X147594900Y-103580600D01*
X147596364Y-103595466D01*
X147600700Y-103609760D01*
X147607742Y-103622934D01*
X147617218Y-103634482D01*
X148252218Y-104269482D01*
X148263766Y-104278958D01*
X148276940Y-104286000D01*
X148291234Y-104290336D01*
X148306100Y-104291800D01*
X148864900Y-104291800D01*
X148864900Y-105663400D01*
X148306100Y-105663400D01*
X148291234Y-105664864D01*
X148276940Y-105669200D01*
X148263766Y-105676242D01*
X148252218Y-105685718D01*
X147617218Y-106320718D01*
X147607742Y-106332266D01*
X147600700Y-106345440D01*
X147596364Y-106359734D01*
X147594900Y-106374600D01*
X147594900Y-109473400D01*
X144496100Y-109473400D01*
X144481234Y-109474864D01*
X144466940Y-109479200D01*
X144453766Y-109486242D01*
X144442218Y-109495718D01*
X143807218Y-110130718D01*
X143797742Y-110142266D01*
X143790700Y-110155440D01*
X143786364Y-110169734D01*
X143784900Y-110184600D01*
X143784900Y-110743400D01*
X142413300Y-110743400D01*
X142413300Y-110184600D01*
X142411836Y-110169734D01*
X142407500Y-110155440D01*
X142400458Y-110142266D01*
X142390982Y-110130718D01*
X141755982Y-109495718D01*
X141744434Y-109486242D01*
X141731260Y-109479200D01*
X141716966Y-109474864D01*
X141702100Y-109473400D01*
X138603300Y-109473400D01*
X138603300Y-106374600D01*
X138601836Y-106359734D01*
X138597500Y-106345440D01*
X138590458Y-106332266D01*
X138580982Y-106320718D01*
X137945982Y-105685718D01*
X137934434Y-105676242D01*
X137921260Y-105669200D01*
X137906966Y-105664864D01*
X137892100Y-105663400D01*
X137333300Y-105663400D01*
X137333300Y-104291800D01*
X137892100Y-104291800D01*
X137906966Y-104290336D01*
X137921260Y-104286000D01*
X137934434Y-104278958D01*
X137945982Y-104269482D01*
X138580982Y-103634482D01*
X138590458Y-103622934D01*
X138597500Y-103609760D01*
X138601836Y-103595466D01*
X138603300Y-103580600D01*
X138603300Y-101845291D01*
X139448492Y-101845291D01*
X139465397Y-101937399D01*
X139499870Y-102024470D01*
X139550600Y-102103186D01*
X139568500Y-102121722D01*
X139568500Y-102757474D01*
X139559068Y-102766711D01*
X139506161Y-102843980D01*
X139469270Y-102930054D01*
X139449799Y-103021654D01*
X139448492Y-103115291D01*
X139465397Y-103207399D01*
X139499870Y-103294470D01*
X139550600Y-103373186D01*
X139615652Y-103440550D01*
X139692550Y-103493995D01*
X139778364Y-103531486D01*
X139869826Y-103551596D01*
X139963452Y-103553557D01*
X140055676Y-103537295D01*
X140142985Y-103503430D01*
X140222053Y-103453252D01*
X140248360Y-103428200D01*
X140432100Y-103428200D01*
X140519581Y-103410799D01*
X140593745Y-103361245D01*
X140738856Y-103216134D01*
X140769870Y-103294470D01*
X140820600Y-103373186D01*
X140837939Y-103391141D01*
X140838220Y-103486190D01*
X140290537Y-104033873D01*
X140232496Y-103975424D01*
X140154859Y-103923057D01*
X140068530Y-103886768D01*
X139976796Y-103867938D01*
X139883152Y-103867284D01*
X139791164Y-103884831D01*
X139704336Y-103919912D01*
X139625976Y-103971189D01*
X139559068Y-104036711D01*
X139506161Y-104113980D01*
X139469270Y-104200054D01*
X139449799Y-104291654D01*
X139448492Y-104385291D01*
X139465397Y-104477399D01*
X139499870Y-104564470D01*
X139550600Y-104643186D01*
X139560300Y-104653231D01*
X139560300Y-105302965D01*
X139559068Y-105304171D01*
X139506161Y-105381440D01*
X139469270Y-105467514D01*
X139449799Y-105559114D01*
X139448492Y-105652751D01*
X139465397Y-105744859D01*
X139499870Y-105831930D01*
X139550600Y-105910646D01*
X139615652Y-105978010D01*
X139692550Y-106031455D01*
X139778364Y-106068946D01*
X139869826Y-106089056D01*
X139963452Y-106091017D01*
X140055676Y-106074755D01*
X140142985Y-106040890D01*
X140222053Y-105990712D01*
X140289870Y-105926131D01*
X140292133Y-105922923D01*
X140838724Y-106469514D01*
X140838948Y-106564495D01*
X140829068Y-106574171D01*
X140776161Y-106651440D01*
X140739270Y-106737514D01*
X140738925Y-106739135D01*
X140593745Y-106593955D01*
X140519581Y-106544401D01*
X140432100Y-106527000D01*
X140246514Y-106527000D01*
X140232496Y-106512884D01*
X140154859Y-106460517D01*
X140068530Y-106424228D01*
X139976796Y-106405398D01*
X139883152Y-106404744D01*
X139791164Y-106422291D01*
X139704336Y-106457372D01*
X139625976Y-106508649D01*
X139559068Y-106574171D01*
X139506161Y-106651440D01*
X139469270Y-106737514D01*
X139449799Y-106829114D01*
X139448492Y-106922751D01*
X139465397Y-107014859D01*
X139499870Y-107101930D01*
X139550600Y-107180646D01*
X139568500Y-107199182D01*
X139568500Y-107834934D01*
X139559068Y-107844171D01*
X139506161Y-107921440D01*
X139469270Y-108007514D01*
X139449799Y-108099114D01*
X139448492Y-108192751D01*
X139465397Y-108284859D01*
X139499870Y-108371930D01*
X139550600Y-108450646D01*
X139615652Y-108518010D01*
X139692550Y-108571455D01*
X139778364Y-108608946D01*
X139869826Y-108629056D01*
X139963452Y-108631017D01*
X140055676Y-108614755D01*
X140142985Y-108580890D01*
X140222053Y-108530712D01*
X140245693Y-108508200D01*
X140432100Y-108508200D01*
X140519581Y-108490799D01*
X140593745Y-108441245D01*
X140739576Y-108295414D01*
X140769870Y-108371930D01*
X140820600Y-108450646D01*
X140885652Y-108518010D01*
X140962550Y-108571455D01*
X141048364Y-108608946D01*
X141139826Y-108629056D01*
X141233452Y-108631017D01*
X141325676Y-108614755D01*
X141412985Y-108580890D01*
X141492053Y-108530712D01*
X141559870Y-108466131D01*
X141613851Y-108389609D01*
X141651940Y-108304058D01*
X141672687Y-108212739D01*
X141674181Y-108105777D01*
X141655992Y-108013914D01*
X141620306Y-107927333D01*
X141568482Y-107849333D01*
X141553515Y-107834261D01*
X141552545Y-107203106D01*
X141559870Y-107196131D01*
X141613851Y-107119609D01*
X141651940Y-107034058D01*
X141672687Y-106942739D01*
X141674181Y-106835777D01*
X141655992Y-106743914D01*
X141620306Y-106657333D01*
X141568482Y-106579333D01*
X141551561Y-106562293D01*
X141550597Y-105934962D01*
X141559870Y-105926131D01*
X141613851Y-105849609D01*
X141651940Y-105764058D01*
X141672687Y-105672739D01*
X141674181Y-105565777D01*
X141655992Y-105473914D01*
X141620306Y-105387333D01*
X141568482Y-105309333D01*
X141549606Y-105290325D01*
X141548652Y-104669354D01*
X141559870Y-104658671D01*
X141613851Y-104582149D01*
X141651940Y-104496598D01*
X141672687Y-104405279D01*
X141674181Y-104298317D01*
X141655992Y-104206454D01*
X141620306Y-104119873D01*
X141568482Y-104041873D01*
X141547655Y-104020900D01*
X141546703Y-103401210D01*
X141559870Y-103388671D01*
X141613851Y-103312149D01*
X141651940Y-103226598D01*
X141672687Y-103135279D01*
X141674181Y-103028317D01*
X141655992Y-102936454D01*
X141620306Y-102849873D01*
X141568482Y-102771873D01*
X141545701Y-102748932D01*
X141544754Y-102133065D01*
X141559870Y-102118671D01*
X141613851Y-102042149D01*
X141651940Y-101956598D01*
X141672687Y-101865279D01*
X141672966Y-101845291D01*
X141988492Y-101845291D01*
X142005397Y-101937399D01*
X142039870Y-102024470D01*
X142090600Y-102103186D01*
X142108500Y-102121722D01*
X142108500Y-102757474D01*
X142099068Y-102766711D01*
X142046161Y-102843980D01*
X142009270Y-102930054D01*
X141989799Y-103021654D01*
X141988492Y-103115291D01*
X142005397Y-103207399D01*
X142039870Y-103294470D01*
X142090600Y-103373186D01*
X142108500Y-103391722D01*
X142108500Y-104027474D01*
X142099068Y-104036711D01*
X142046161Y-104113980D01*
X142009270Y-104200054D01*
X141989799Y-104291654D01*
X141988492Y-104385291D01*
X142005397Y-104477399D01*
X142039870Y-104564470D01*
X142090600Y-104643186D01*
X142108500Y-104661722D01*
X142108500Y-105294934D01*
X142099068Y-105304171D01*
X142046161Y-105381440D01*
X142009270Y-105467514D01*
X141989799Y-105559114D01*
X141988492Y-105652751D01*
X142005397Y-105744859D01*
X142039870Y-105831930D01*
X142090600Y-105910646D01*
X142108500Y-105929182D01*
X142108500Y-106564934D01*
X142099068Y-106574171D01*
X142046161Y-106651440D01*
X142009270Y-106737514D01*
X141989799Y-106829114D01*
X141988492Y-106922751D01*
X142005397Y-107014859D01*
X142039870Y-107101930D01*
X142090600Y-107180646D01*
X142108500Y-107199182D01*
X142108500Y-107834934D01*
X142099068Y-107844171D01*
X142046161Y-107921440D01*
X142009270Y-108007514D01*
X141989799Y-108099114D01*
X141988492Y-108192751D01*
X142005397Y-108284859D01*
X142039870Y-108371930D01*
X142090600Y-108450646D01*
X142155652Y-108518010D01*
X142232550Y-108571455D01*
X142318364Y-108608946D01*
X142409826Y-108629056D01*
X142503452Y-108631017D01*
X142595676Y-108614755D01*
X142682985Y-108580890D01*
X142762053Y-108530712D01*
X142785693Y-108508200D01*
X143413639Y-108508200D01*
X143423112Y-108518010D01*
X143500010Y-108571455D01*
X143585824Y-108608946D01*
X143677286Y-108629056D01*
X143770912Y-108631017D01*
X143863136Y-108614755D01*
X143950445Y-108580890D01*
X144029513Y-108530712D01*
X144097330Y-108466131D01*
X144151311Y-108389609D01*
X144189400Y-108304058D01*
X144210147Y-108212739D01*
X144211641Y-108105777D01*
X144193452Y-108013914D01*
X144157766Y-107927333D01*
X144105942Y-107849333D01*
X144089700Y-107832977D01*
X144089700Y-107203397D01*
X144097330Y-107196131D01*
X144151311Y-107119609D01*
X144189400Y-107034058D01*
X144210147Y-106942739D01*
X144210426Y-106922751D01*
X144525952Y-106922751D01*
X144542857Y-107014859D01*
X144577330Y-107101930D01*
X144602200Y-107140520D01*
X144602200Y-107894306D01*
X144583621Y-107921440D01*
X144546730Y-108007514D01*
X144527259Y-108099114D01*
X144525952Y-108192751D01*
X144542857Y-108284859D01*
X144577330Y-108371930D01*
X144628060Y-108450646D01*
X144693112Y-108518010D01*
X144770010Y-108571455D01*
X144855824Y-108608946D01*
X144947286Y-108629056D01*
X145040912Y-108631017D01*
X145133136Y-108614755D01*
X145220445Y-108580890D01*
X145253993Y-108559600D01*
X146022953Y-108559600D01*
X146040010Y-108571455D01*
X146125824Y-108608946D01*
X146217286Y-108629056D01*
X146310912Y-108631017D01*
X146403136Y-108614755D01*
X146490445Y-108580890D01*
X146569513Y-108530712D01*
X146637330Y-108466131D01*
X146691311Y-108389609D01*
X146729400Y-108304058D01*
X146750147Y-108212739D01*
X146751641Y-108105777D01*
X146733452Y-108013914D01*
X146697766Y-107927333D01*
X146659600Y-107869890D01*
X146659600Y-107164562D01*
X146691311Y-107119609D01*
X146729400Y-107034058D01*
X146750147Y-106942739D01*
X146751641Y-106835777D01*
X146733452Y-106743914D01*
X146697766Y-106657333D01*
X146645942Y-106579333D01*
X146607569Y-106540691D01*
X146592645Y-106518355D01*
X146518481Y-106468801D01*
X146512978Y-106467706D01*
X146502319Y-106460517D01*
X146415990Y-106424228D01*
X146324256Y-106405398D01*
X146230612Y-106404744D01*
X146138624Y-106422291D01*
X146066577Y-106451400D01*
X145210630Y-106451400D01*
X145145990Y-106424228D01*
X145054256Y-106405398D01*
X144960612Y-106404744D01*
X144868624Y-106422291D01*
X144781796Y-106457372D01*
X144773507Y-106462796D01*
X144743319Y-106468801D01*
X144669155Y-106518355D01*
X144619601Y-106592519D01*
X144617814Y-106601502D01*
X144583621Y-106651440D01*
X144546730Y-106737514D01*
X144527259Y-106829114D01*
X144525952Y-106922751D01*
X144210426Y-106922751D01*
X144211641Y-106835777D01*
X144193452Y-106743914D01*
X144157766Y-106657333D01*
X144105942Y-106579333D01*
X144089700Y-106562977D01*
X144089700Y-106469290D01*
X144590790Y-105968200D01*
X144683639Y-105968200D01*
X144693112Y-105978010D01*
X144770010Y-106031455D01*
X144855824Y-106068946D01*
X144947286Y-106089056D01*
X145040912Y-106091017D01*
X145133136Y-106074755D01*
X145220445Y-106040890D01*
X145299513Y-105990712D01*
X145367330Y-105926131D01*
X145421311Y-105849609D01*
X145459400Y-105764058D01*
X145480147Y-105672739D01*
X145480426Y-105652751D01*
X145795952Y-105652751D01*
X145812857Y-105744859D01*
X145847330Y-105831930D01*
X145898060Y-105910646D01*
X145963112Y-105978010D01*
X146040010Y-106031455D01*
X146125824Y-106068946D01*
X146217286Y-106089056D01*
X146310912Y-106091017D01*
X146403136Y-106074755D01*
X146490445Y-106040890D01*
X146569513Y-105990712D01*
X146637330Y-105926131D01*
X146691311Y-105849609D01*
X146729400Y-105764058D01*
X146750147Y-105672739D01*
X146751641Y-105565777D01*
X146733452Y-105473914D01*
X146697766Y-105387333D01*
X146645942Y-105309333D01*
X146579956Y-105242884D01*
X146502319Y-105190517D01*
X146415990Y-105154228D01*
X146324256Y-105135398D01*
X146230612Y-105134744D01*
X146138624Y-105152291D01*
X146051796Y-105187372D01*
X145973436Y-105238649D01*
X145906528Y-105304171D01*
X145853621Y-105381440D01*
X145816730Y-105467514D01*
X145797259Y-105559114D01*
X145795952Y-105652751D01*
X145480426Y-105652751D01*
X145481641Y-105565777D01*
X145463452Y-105473914D01*
X145427766Y-105387333D01*
X145375942Y-105309333D01*
X145359700Y-105292977D01*
X145359700Y-104665937D01*
X145367330Y-104658671D01*
X145421311Y-104582149D01*
X145459400Y-104496598D01*
X145480147Y-104405279D01*
X145480426Y-104385291D01*
X145795952Y-104385291D01*
X145812857Y-104477399D01*
X145847330Y-104564470D01*
X145898060Y-104643186D01*
X145963112Y-104710550D01*
X146040010Y-104763995D01*
X146125824Y-104801486D01*
X146217286Y-104821596D01*
X146310912Y-104823557D01*
X146403136Y-104807295D01*
X146490445Y-104773430D01*
X146569513Y-104723252D01*
X146637330Y-104658671D01*
X146691311Y-104582149D01*
X146729400Y-104496598D01*
X146750147Y-104405279D01*
X146751641Y-104298317D01*
X146733452Y-104206454D01*
X146697766Y-104119873D01*
X146645942Y-104041873D01*
X146579956Y-103975424D01*
X146502319Y-103923057D01*
X146415990Y-103886768D01*
X146324256Y-103867938D01*
X146230612Y-103867284D01*
X146138624Y-103884831D01*
X146051796Y-103919912D01*
X145973436Y-103971189D01*
X145906528Y-104036711D01*
X145853621Y-104113980D01*
X145816730Y-104200054D01*
X145797259Y-104291654D01*
X145795952Y-104385291D01*
X145480426Y-104385291D01*
X145481641Y-104298317D01*
X145463452Y-104206454D01*
X145427766Y-104119873D01*
X145375942Y-104041873D01*
X145309956Y-103975424D01*
X145232319Y-103923057D01*
X145145990Y-103886768D01*
X145054256Y-103867938D01*
X144960612Y-103867284D01*
X144868624Y-103884831D01*
X144781796Y-103919912D01*
X144703436Y-103971189D01*
X144687291Y-103987000D01*
X144590790Y-103987000D01*
X144089700Y-103485910D01*
X144089700Y-103395937D01*
X144097330Y-103388671D01*
X144151311Y-103312149D01*
X144189400Y-103226598D01*
X144210147Y-103135279D01*
X144211641Y-103028317D01*
X144193452Y-102936454D01*
X144157766Y-102849873D01*
X144105942Y-102771873D01*
X144089700Y-102755517D01*
X144089700Y-102125937D01*
X144097330Y-102118671D01*
X144151311Y-102042149D01*
X144189400Y-101956598D01*
X144210147Y-101865279D01*
X144210426Y-101845291D01*
X144525952Y-101845291D01*
X144542857Y-101937399D01*
X144576800Y-102023131D01*
X144576800Y-102859895D01*
X144546730Y-102930054D01*
X144527259Y-103021654D01*
X144525952Y-103115291D01*
X144542857Y-103207399D01*
X144577330Y-103294470D01*
X144628060Y-103373186D01*
X144693112Y-103440550D01*
X144770010Y-103493995D01*
X144855824Y-103531486D01*
X144947286Y-103551596D01*
X145040912Y-103553557D01*
X145133136Y-103537295D01*
X145220445Y-103503430D01*
X145298019Y-103454200D01*
X145982752Y-103454200D01*
X146040010Y-103493995D01*
X146125824Y-103531486D01*
X146217286Y-103551596D01*
X146310912Y-103553557D01*
X146403136Y-103537295D01*
X146490445Y-103503430D01*
X146569513Y-103453252D01*
X146637330Y-103388671D01*
X146691311Y-103312149D01*
X146729400Y-103226598D01*
X146750147Y-103135279D01*
X146751641Y-103028317D01*
X146733452Y-102936454D01*
X146697766Y-102849873D01*
X146685000Y-102830659D01*
X146685000Y-102051095D01*
X146691311Y-102042149D01*
X146729400Y-101956598D01*
X146750147Y-101865279D01*
X146751641Y-101758317D01*
X146733452Y-101666454D01*
X146697766Y-101579873D01*
X146645942Y-101501873D01*
X146579956Y-101435424D01*
X146502319Y-101383057D01*
X146415990Y-101346768D01*
X146324256Y-101327938D01*
X146230612Y-101327284D01*
X146138624Y-101344831D01*
X146051796Y-101379912D01*
X145987173Y-101422200D01*
X145290351Y-101422200D01*
X145232319Y-101383057D01*
X145145990Y-101346768D01*
X145054256Y-101327938D01*
X144960612Y-101327284D01*
X144868624Y-101344831D01*
X144781796Y-101379912D01*
X144703436Y-101431189D01*
X144645294Y-101488127D01*
X144643755Y-101489155D01*
X144642830Y-101490540D01*
X144636528Y-101496711D01*
X144583621Y-101573980D01*
X144546730Y-101660054D01*
X144527259Y-101751654D01*
X144525952Y-101845291D01*
X144210426Y-101845291D01*
X144211641Y-101758317D01*
X144193452Y-101666454D01*
X144157766Y-101579873D01*
X144105942Y-101501873D01*
X144039956Y-101435424D01*
X143962319Y-101383057D01*
X143875990Y-101346768D01*
X143784256Y-101327938D01*
X143690612Y-101327284D01*
X143598624Y-101344831D01*
X143511796Y-101379912D01*
X143433436Y-101431189D01*
X143417291Y-101447000D01*
X142783991Y-101447000D01*
X142772496Y-101435424D01*
X142694859Y-101383057D01*
X142608530Y-101346768D01*
X142516796Y-101327938D01*
X142423152Y-101327284D01*
X142331164Y-101344831D01*
X142244336Y-101379912D01*
X142165976Y-101431189D01*
X142099068Y-101496711D01*
X142046161Y-101573980D01*
X142009270Y-101660054D01*
X141989799Y-101751654D01*
X141988492Y-101845291D01*
X141672966Y-101845291D01*
X141674181Y-101758317D01*
X141655992Y-101666454D01*
X141620306Y-101579873D01*
X141568482Y-101501873D01*
X141502496Y-101435424D01*
X141424859Y-101383057D01*
X141338530Y-101346768D01*
X141246796Y-101327938D01*
X141153152Y-101327284D01*
X141061164Y-101344831D01*
X140974336Y-101379912D01*
X140895976Y-101431189D01*
X140829068Y-101496711D01*
X140776161Y-101573980D01*
X140739442Y-101659652D01*
X140593745Y-101513955D01*
X140519581Y-101464401D01*
X140432100Y-101447000D01*
X140243991Y-101447000D01*
X140232496Y-101435424D01*
X140154859Y-101383057D01*
X140068530Y-101346768D01*
X139976796Y-101327938D01*
X139883152Y-101327284D01*
X139791164Y-101344831D01*
X139704336Y-101379912D01*
X139625976Y-101431189D01*
X139559068Y-101496711D01*
X139506161Y-101573980D01*
X139469270Y-101660054D01*
X139449799Y-101751654D01*
X139448492Y-101845291D01*
X138603300Y-101845291D01*
X138603300Y-100481800D01*
X141702100Y-100481800D01*
X141716966Y-100480336D01*
X141731260Y-100476000D01*
X141744434Y-100468958D01*
X141755982Y-100459482D01*
X142390982Y-99824482D01*
X142400458Y-99812934D01*
X142407500Y-99799760D01*
X142411836Y-99785466D01*
X142413300Y-99770600D01*
X142413300Y-99211800D01*
X143784900Y-99211800D01*
X143784900Y-99770600D01*
G36*
X158110500Y-99827564D02*
X158110500Y-101517036D01*
X157370818Y-102256718D01*
X157361342Y-102268266D01*
X157354300Y-102281440D01*
X157349964Y-102295734D01*
X157348500Y-102310600D01*
X157348500Y-104749000D01*
X155824500Y-104749000D01*
X155809634Y-104750464D01*
X155795340Y-104754800D01*
X155782166Y-104761842D01*
X155770618Y-104771318D01*
X155761142Y-104782866D01*
X155754100Y-104796040D01*
X155749764Y-104810334D01*
X155748300Y-104825200D01*
X155748300Y-105511000D01*
X155398864Y-105511000D01*
X155291100Y-105403236D01*
X155291100Y-101047556D01*
X155299715Y-101052161D01*
X155342807Y-101065232D01*
X155387620Y-101069646D01*
X155885460Y-101069646D01*
X155930273Y-101065232D01*
X155973365Y-101052161D01*
X156013078Y-101030934D01*
X156047887Y-101002367D01*
X156054918Y-100993800D01*
X156607900Y-100993800D01*
X156635912Y-100991053D01*
X156663969Y-100988599D01*
X156665510Y-100988151D01*
X156667103Y-100987995D01*
X156694068Y-100979854D01*
X156721093Y-100972002D01*
X156722513Y-100971266D01*
X156724050Y-100970802D01*
X156748956Y-100957559D01*
X156773906Y-100944626D01*
X156775157Y-100943628D01*
X156776574Y-100942874D01*
X156798448Y-100925035D01*
X156820395Y-100907514D01*
X156822622Y-100905319D01*
X156822673Y-100905277D01*
X156822712Y-100905230D01*
X156823426Y-100904526D01*
X157014876Y-100713076D01*
X157054927Y-100721882D01*
X157161999Y-100724125D01*
X157267468Y-100705528D01*
X157367315Y-100666799D01*
X157457739Y-100609415D01*
X157535295Y-100535559D01*
X157597028Y-100448047D01*
X157640588Y-100350210D01*
X157664315Y-100245776D01*
X157666023Y-100123452D01*
X157645221Y-100018396D01*
X157604410Y-99919381D01*
X157545145Y-99830179D01*
X157469681Y-99754187D01*
X157380895Y-99694300D01*
X157282167Y-99652799D01*
X157177259Y-99631264D01*
X157070166Y-99630516D01*
X156964967Y-99650584D01*
X156865670Y-99690703D01*
X156776056Y-99749345D01*
X156699539Y-99824275D01*
X156639034Y-99912642D01*
X156596844Y-100011077D01*
X156574578Y-100115832D01*
X156573083Y-100222918D01*
X156583914Y-100281934D01*
X156481648Y-100384200D01*
X156053145Y-100384200D01*
X156047887Y-100377793D01*
X156013078Y-100349226D01*
X155973365Y-100327999D01*
X155930273Y-100314928D01*
X155885460Y-100310514D01*
X155387620Y-100310514D01*
X155342807Y-100314928D01*
X155299715Y-100327999D01*
X155291100Y-100332604D01*
X155291100Y-99675164D01*
X155322664Y-99643600D01*
X156281700Y-99643600D01*
X156296566Y-99642136D01*
X156310860Y-99637800D01*
X156324034Y-99630758D01*
X156335582Y-99621282D01*
X156770464Y-99186400D01*
X157469336Y-99186400D01*
X158110500Y-99827564D01*
X158110500Y-99827564D01*
G37*
X158110500Y-99827564D02*
X158110500Y-101517036D01*
X157370818Y-102256718D01*
X157361342Y-102268266D01*
X157354300Y-102281440D01*
X157349964Y-102295734D01*
X157348500Y-102310600D01*
X157348500Y-104749000D01*
X155824500Y-104749000D01*
X155809634Y-104750464D01*
X155795340Y-104754800D01*
X155782166Y-104761842D01*
X155770618Y-104771318D01*
X155761142Y-104782866D01*
X155754100Y-104796040D01*
X155749764Y-104810334D01*
X155748300Y-104825200D01*
X155748300Y-105511000D01*
X155398864Y-105511000D01*
X155291100Y-105403236D01*
X155291100Y-101047556D01*
X155299715Y-101052161D01*
X155342807Y-101065232D01*
X155387620Y-101069646D01*
X155885460Y-101069646D01*
X155930273Y-101065232D01*
X155973365Y-101052161D01*
X156013078Y-101030934D01*
X156047887Y-101002367D01*
X156054918Y-100993800D01*
X156607900Y-100993800D01*
X156635912Y-100991053D01*
X156663969Y-100988599D01*
X156665510Y-100988151D01*
X156667103Y-100987995D01*
X156694068Y-100979854D01*
X156721093Y-100972002D01*
X156722513Y-100971266D01*
X156724050Y-100970802D01*
X156748956Y-100957559D01*
X156773906Y-100944626D01*
X156775157Y-100943628D01*
X156776574Y-100942874D01*
X156798448Y-100925035D01*
X156820395Y-100907514D01*
X156822622Y-100905319D01*
X156822673Y-100905277D01*
X156822712Y-100905230D01*
X156823426Y-100904526D01*
X157014876Y-100713076D01*
X157054927Y-100721882D01*
X157161999Y-100724125D01*
X157267468Y-100705528D01*
X157367315Y-100666799D01*
X157457739Y-100609415D01*
X157535295Y-100535559D01*
X157597028Y-100448047D01*
X157640588Y-100350210D01*
X157664315Y-100245776D01*
X157666023Y-100123452D01*
X157645221Y-100018396D01*
X157604410Y-99919381D01*
X157545145Y-99830179D01*
X157469681Y-99754187D01*
X157380895Y-99694300D01*
X157282167Y-99652799D01*
X157177259Y-99631264D01*
X157070166Y-99630516D01*
X156964967Y-99650584D01*
X156865670Y-99690703D01*
X156776056Y-99749345D01*
X156699539Y-99824275D01*
X156639034Y-99912642D01*
X156596844Y-100011077D01*
X156574578Y-100115832D01*
X156573083Y-100222918D01*
X156583914Y-100281934D01*
X156481648Y-100384200D01*
X156053145Y-100384200D01*
X156047887Y-100377793D01*
X156013078Y-100349226D01*
X155973365Y-100327999D01*
X155930273Y-100314928D01*
X155885460Y-100310514D01*
X155387620Y-100310514D01*
X155342807Y-100314928D01*
X155299715Y-100327999D01*
X155291100Y-100332604D01*
X155291100Y-99675164D01*
X155322664Y-99643600D01*
X156281700Y-99643600D01*
X156296566Y-99642136D01*
X156310860Y-99637800D01*
X156324034Y-99630758D01*
X156335582Y-99621282D01*
X156770464Y-99186400D01*
X157469336Y-99186400D01*
X158110500Y-99827564D01*
G36*
X128468700Y-105694964D02*
X128468700Y-106349200D01*
X128470164Y-106364066D01*
X128474500Y-106378360D01*
X128481542Y-106391534D01*
X128491018Y-106403082D01*
X128795818Y-106707882D01*
X128807366Y-106717358D01*
X128820540Y-106724400D01*
X128834834Y-106728736D01*
X128849700Y-106730200D01*
X130150812Y-106730200D01*
X130182191Y-106752009D01*
X130280329Y-106794885D01*
X130384927Y-106817882D01*
X130491999Y-106820125D01*
X130597468Y-106801528D01*
X130697315Y-106762799D01*
X130748684Y-106730200D01*
X132018536Y-106730200D01*
X132354900Y-107066564D01*
X132354900Y-108070236D01*
X132247136Y-108178000D01*
X126595264Y-108178000D01*
X126258900Y-107841636D01*
X126258900Y-107035000D01*
X126257436Y-107020134D01*
X126253100Y-107005840D01*
X126246058Y-106992666D01*
X126236582Y-106981118D01*
X126007982Y-106752518D01*
X125996434Y-106743042D01*
X125983260Y-106736000D01*
X125968966Y-106731664D01*
X125954100Y-106730200D01*
X124309264Y-106730200D01*
X124125300Y-106546236D01*
X124125300Y-106196800D01*
X125954100Y-106196800D01*
X125968966Y-106195336D01*
X125983260Y-106191000D01*
X125996434Y-106183958D01*
X126007982Y-106174482D01*
X126671464Y-105511000D01*
X128284736Y-105511000D01*
X128468700Y-105694964D01*
X128468700Y-105694964D01*
G37*
X128468700Y-105694964D02*
X128468700Y-106349200D01*
X128470164Y-106364066D01*
X128474500Y-106378360D01*
X128481542Y-106391534D01*
X128491018Y-106403082D01*
X128795818Y-106707882D01*
X128807366Y-106717358D01*
X128820540Y-106724400D01*
X128834834Y-106728736D01*
X128849700Y-106730200D01*
X130150812Y-106730200D01*
X130182191Y-106752009D01*
X130280329Y-106794885D01*
X130384927Y-106817882D01*
X130491999Y-106820125D01*
X130597468Y-106801528D01*
X130697315Y-106762799D01*
X130748684Y-106730200D01*
X132018536Y-106730200D01*
X132354900Y-107066564D01*
X132354900Y-108070236D01*
X132247136Y-108178000D01*
X126595264Y-108178000D01*
X126258900Y-107841636D01*
X126258900Y-107035000D01*
X126257436Y-107020134D01*
X126253100Y-107005840D01*
X126246058Y-106992666D01*
X126236582Y-106981118D01*
X126007982Y-106752518D01*
X125996434Y-106743042D01*
X125983260Y-106736000D01*
X125968966Y-106731664D01*
X125954100Y-106730200D01*
X124309264Y-106730200D01*
X124125300Y-106546236D01*
X124125300Y-106196800D01*
X125954100Y-106196800D01*
X125968966Y-106195336D01*
X125983260Y-106191000D01*
X125996434Y-106183958D01*
X126007982Y-106174482D01*
X126671464Y-105511000D01*
X128284736Y-105511000D01*
X128468700Y-105694964D01*
G36*
X143784900Y-103580600D02*
X143786364Y-103595466D01*
X143790700Y-103609760D01*
X143797742Y-103622934D01*
X143807218Y-103634482D01*
X144442218Y-104269482D01*
X144453766Y-104278958D01*
X144466940Y-104286000D01*
X144481234Y-104290336D01*
X144496100Y-104291800D01*
X145054900Y-104291800D01*
X145054900Y-105663400D01*
X144496100Y-105663400D01*
X144481234Y-105664864D01*
X144466940Y-105669200D01*
X144453766Y-105676242D01*
X144442218Y-105685718D01*
X143807218Y-106320718D01*
X143797742Y-106332266D01*
X143790700Y-106345440D01*
X143786364Y-106359734D01*
X143784900Y-106374600D01*
X143784900Y-108203400D01*
X142413300Y-108203400D01*
X142413300Y-101751800D01*
X143784900Y-101751800D01*
X143784900Y-103580600D01*
X143784900Y-103580600D01*
G37*
X143784900Y-103580600D02*
X143786364Y-103595466D01*
X143790700Y-103609760D01*
X143797742Y-103622934D01*
X143807218Y-103634482D01*
X144442218Y-104269482D01*
X144453766Y-104278958D01*
X144466940Y-104286000D01*
X144481234Y-104290336D01*
X144496100Y-104291800D01*
X145054900Y-104291800D01*
X145054900Y-105663400D01*
X144496100Y-105663400D01*
X144481234Y-105664864D01*
X144466940Y-105669200D01*
X144453766Y-105676242D01*
X144442218Y-105685718D01*
X143807218Y-106320718D01*
X143797742Y-106332266D01*
X143790700Y-106345440D01*
X143786364Y-106359734D01*
X143784900Y-106374600D01*
X143784900Y-108203400D01*
X142413300Y-108203400D01*
X142413300Y-101751800D01*
X143784900Y-101751800D01*
X143784900Y-103580600D01*
G36*
X141249283Y-108204000D02*
X141147620Y-108204000D01*
X141143300Y-106374420D01*
X141141801Y-106359558D01*
X141137431Y-106345273D01*
X141130358Y-106332116D01*
X141120982Y-106320718D01*
X140358982Y-105558718D01*
X140347434Y-105549242D01*
X140334260Y-105542200D01*
X140319966Y-105537864D01*
X140305011Y-105536400D01*
X139865100Y-105536911D01*
X139865100Y-104419312D01*
X140305189Y-104418800D01*
X140320053Y-104417319D01*
X140334342Y-104412966D01*
X140347508Y-104405909D01*
X140358982Y-104396482D01*
X141120982Y-103634482D01*
X141130458Y-103622934D01*
X141137500Y-103609760D01*
X141141836Y-103595466D01*
X141143300Y-103580374D01*
X141137866Y-101744780D01*
X141239357Y-101744780D01*
X141249283Y-108204000D01*
X141249283Y-108204000D01*
G37*
X141249283Y-108204000D02*
X141147620Y-108204000D01*
X141143300Y-106374420D01*
X141141801Y-106359558D01*
X141137431Y-106345273D01*
X141130358Y-106332116D01*
X141120982Y-106320718D01*
X140358982Y-105558718D01*
X140347434Y-105549242D01*
X140334260Y-105542200D01*
X140319966Y-105537864D01*
X140305011Y-105536400D01*
X139865100Y-105536911D01*
X139865100Y-104419312D01*
X140305189Y-104418800D01*
X140320053Y-104417319D01*
X140334342Y-104412966D01*
X140347508Y-104405909D01*
X140358982Y-104396482D01*
X141120982Y-103634482D01*
X141130458Y-103622934D01*
X141137500Y-103609760D01*
X141141836Y-103595466D01*
X141143300Y-103580374D01*
X141137866Y-101744780D01*
X141239357Y-101744780D01*
X141249283Y-108204000D01*
G36*
X140609900Y-101961164D02*
X140609900Y-102914036D01*
X140400536Y-103123400D01*
X139873300Y-103123400D01*
X139873300Y-101751800D01*
X140400536Y-101751800D01*
X140609900Y-101961164D01*
X140609900Y-101961164D01*
G37*
X140609900Y-101961164D02*
X140609900Y-102914036D01*
X140400536Y-103123400D01*
X139873300Y-103123400D01*
X139873300Y-101751800D01*
X140400536Y-101751800D01*
X140609900Y-101961164D01*
G36*
X129467832Y-103136002D02*
X129481013Y-103143030D01*
X129495312Y-103147351D01*
X129510100Y-103148800D01*
X129814900Y-103148800D01*
X129814900Y-103453600D01*
X129816364Y-103468466D01*
X129820700Y-103482760D01*
X129827742Y-103495934D01*
X129837218Y-103507482D01*
X129848766Y-103516958D01*
X129861940Y-103524000D01*
X129876234Y-103528336D01*
X129891100Y-103529800D01*
X130703900Y-103529800D01*
X130703900Y-103834600D01*
X130705364Y-103849466D01*
X130709700Y-103863760D01*
X130716742Y-103876934D01*
X130726218Y-103888482D01*
X130926336Y-104088600D01*
X130621536Y-104393400D01*
X130303664Y-104393400D01*
X129944982Y-104034718D01*
X129933434Y-104025242D01*
X129920260Y-104018200D01*
X129905966Y-104013864D01*
X129891100Y-104012400D01*
X127890664Y-104012400D01*
X127808300Y-103930036D01*
X127808300Y-102894800D01*
X129106029Y-102894800D01*
X129467832Y-103136002D01*
X129467832Y-103136002D01*
G37*
X129467832Y-103136002D02*
X129481013Y-103143030D01*
X129495312Y-103147351D01*
X129510100Y-103148800D01*
X129814900Y-103148800D01*
X129814900Y-103453600D01*
X129816364Y-103468466D01*
X129820700Y-103482760D01*
X129827742Y-103495934D01*
X129837218Y-103507482D01*
X129848766Y-103516958D01*
X129861940Y-103524000D01*
X129876234Y-103528336D01*
X129891100Y-103529800D01*
X130703900Y-103529800D01*
X130703900Y-103834600D01*
X130705364Y-103849466D01*
X130709700Y-103863760D01*
X130716742Y-103876934D01*
X130726218Y-103888482D01*
X130926336Y-104088600D01*
X130621536Y-104393400D01*
X130303664Y-104393400D01*
X129944982Y-104034718D01*
X129933434Y-104025242D01*
X129920260Y-104018200D01*
X129905966Y-104013864D01*
X129891100Y-104012400D01*
X127890664Y-104012400D01*
X127808300Y-103930036D01*
X127808300Y-102894800D01*
X129106029Y-102894800D01*
X129467832Y-103136002D01*
G36*
X142514900Y-98043400D02*
X141987664Y-98043400D01*
X141778300Y-97834036D01*
X141778300Y-95611164D01*
X141987664Y-95401800D01*
X142514900Y-95401800D01*
X142514900Y-98043400D01*
X142514900Y-98043400D01*
G37*
X142514900Y-98043400D02*
X141987664Y-98043400D01*
X141778300Y-97834036D01*
X141778300Y-95611164D01*
X141987664Y-95401800D01*
X142514900Y-95401800D01*
X142514900Y-98043400D01*
G36*
X141244900Y-98043400D02*
X140717664Y-98043400D01*
X140508300Y-97834036D01*
X140508300Y-95611164D01*
X140717664Y-95401800D01*
X141244900Y-95401800D01*
X141244900Y-98043400D01*
X141244900Y-98043400D01*
G37*
X141244900Y-98043400D02*
X140717664Y-98043400D01*
X140508300Y-97834036D01*
X140508300Y-95611164D01*
X140717664Y-95401800D01*
X141244900Y-95401800D01*
X141244900Y-98043400D01*
G36*
X146354800Y-108254800D02*
X144907000Y-108254800D01*
X144907000Y-106756200D01*
X146354800Y-106756200D01*
X146354800Y-108254800D01*
X146354800Y-108254800D01*
G37*
X146354800Y-108254800D02*
X144907000Y-108254800D01*
X144907000Y-106756200D01*
X146354800Y-106756200D01*
X146354800Y-108254800D01*
G36*
X158572200Y-106654000D02*
X157657800Y-106654000D01*
X157642934Y-106655464D01*
X157628640Y-106659800D01*
X157615466Y-106666842D01*
X157603918Y-106676318D01*
X157508295Y-106771941D01*
X157503443Y-106775923D01*
X157499461Y-106780775D01*
X157451518Y-106828718D01*
X157442042Y-106840266D01*
X157435000Y-106853440D01*
X157430664Y-106867734D01*
X157429200Y-106882600D01*
X157429200Y-111270636D01*
X157245236Y-111454600D01*
X156658663Y-111454600D01*
X156630745Y-111412579D01*
X156555281Y-111336587D01*
X156466495Y-111276700D01*
X156428832Y-111260868D01*
X156286200Y-111118236D01*
X156286200Y-108879098D01*
X156307049Y-108900688D01*
X156394991Y-108961809D01*
X156493129Y-109004685D01*
X156597727Y-109027682D01*
X156704799Y-109029925D01*
X156810268Y-109011328D01*
X156910115Y-108972599D01*
X157000539Y-108915215D01*
X157078095Y-108841359D01*
X157139828Y-108753847D01*
X157183388Y-108656010D01*
X157207115Y-108551576D01*
X157208823Y-108429252D01*
X157188021Y-108324196D01*
X157147210Y-108225181D01*
X157087945Y-108135979D01*
X157012481Y-108059987D01*
X156923695Y-108000100D01*
X156824967Y-107958599D01*
X156720059Y-107937064D01*
X156612966Y-107936316D01*
X156507767Y-107956384D01*
X156408470Y-107996503D01*
X156318856Y-108055145D01*
X156286200Y-108087124D01*
X156286200Y-107873200D01*
X156284736Y-107858334D01*
X156280400Y-107844040D01*
X156273358Y-107830866D01*
X156263882Y-107819318D01*
X156035282Y-107590718D01*
X156023734Y-107581242D01*
X156010560Y-107574200D01*
X155996266Y-107569864D01*
X155981400Y-107568400D01*
X155403364Y-107568400D01*
X155371800Y-107536836D01*
X155371800Y-106442728D01*
X155387620Y-106444286D01*
X155885460Y-106444286D01*
X155930273Y-106439872D01*
X155973365Y-106426801D01*
X156013078Y-106405574D01*
X156047887Y-106377007D01*
X156076454Y-106342198D01*
X156097681Y-106302485D01*
X156110752Y-106259393D01*
X156115166Y-106214580D01*
X156115166Y-106018398D01*
X156393964Y-105739600D01*
X158572200Y-105739600D01*
X158572200Y-106654000D01*
X158572200Y-106654000D01*
G37*
X158572200Y-106654000D02*
X157657800Y-106654000D01*
X157642934Y-106655464D01*
X157628640Y-106659800D01*
X157615466Y-106666842D01*
X157603918Y-106676318D01*
X157508295Y-106771941D01*
X157503443Y-106775923D01*
X157499461Y-106780775D01*
X157451518Y-106828718D01*
X157442042Y-106840266D01*
X157435000Y-106853440D01*
X157430664Y-106867734D01*
X157429200Y-106882600D01*
X157429200Y-111270636D01*
X157245236Y-111454600D01*
X156658663Y-111454600D01*
X156630745Y-111412579D01*
X156555281Y-111336587D01*
X156466495Y-111276700D01*
X156428832Y-111260868D01*
X156286200Y-111118236D01*
X156286200Y-108879098D01*
X156307049Y-108900688D01*
X156394991Y-108961809D01*
X156493129Y-109004685D01*
X156597727Y-109027682D01*
X156704799Y-109029925D01*
X156810268Y-109011328D01*
X156910115Y-108972599D01*
X157000539Y-108915215D01*
X157078095Y-108841359D01*
X157139828Y-108753847D01*
X157183388Y-108656010D01*
X157207115Y-108551576D01*
X157208823Y-108429252D01*
X157188021Y-108324196D01*
X157147210Y-108225181D01*
X157087945Y-108135979D01*
X157012481Y-108059987D01*
X156923695Y-108000100D01*
X156824967Y-107958599D01*
X156720059Y-107937064D01*
X156612966Y-107936316D01*
X156507767Y-107956384D01*
X156408470Y-107996503D01*
X156318856Y-108055145D01*
X156286200Y-108087124D01*
X156286200Y-107873200D01*
X156284736Y-107858334D01*
X156280400Y-107844040D01*
X156273358Y-107830866D01*
X156263882Y-107819318D01*
X156035282Y-107590718D01*
X156023734Y-107581242D01*
X156010560Y-107574200D01*
X155996266Y-107569864D01*
X155981400Y-107568400D01*
X155403364Y-107568400D01*
X155371800Y-107536836D01*
X155371800Y-106442728D01*
X155387620Y-106444286D01*
X155885460Y-106444286D01*
X155930273Y-106439872D01*
X155973365Y-106426801D01*
X156013078Y-106405574D01*
X156047887Y-106377007D01*
X156076454Y-106342198D01*
X156097681Y-106302485D01*
X156110752Y-106259393D01*
X156115166Y-106214580D01*
X156115166Y-106018398D01*
X156393964Y-105739600D01*
X158572200Y-105739600D01*
X158572200Y-106654000D01*
G36*
X140609900Y-107041164D02*
X140609900Y-107994036D01*
X140400536Y-108203400D01*
X139873300Y-108203400D01*
X139873300Y-106831800D01*
X140400536Y-106831800D01*
X140609900Y-107041164D01*
X140609900Y-107041164D01*
G37*
X140609900Y-107041164D02*
X140609900Y-107994036D01*
X140400536Y-108203400D01*
X139873300Y-108203400D01*
X139873300Y-106831800D01*
X140400536Y-106831800D01*
X140609900Y-107041164D01*
G36*
X146380200Y-103149400D02*
X144881600Y-103149400D01*
X144881600Y-101727000D01*
X146380200Y-101727000D01*
X146380200Y-103149400D01*
X146380200Y-103149400D01*
G37*
X146380200Y-103149400D02*
X144881600Y-103149400D01*
X144881600Y-101727000D01*
X146380200Y-101727000D01*
X146380200Y-103149400D01*
G36*
X167884193Y-87993294D02*
X169695554Y-88540177D01*
X171366202Y-89428477D01*
X172832488Y-90624350D01*
X174038574Y-92082257D01*
X174938511Y-93746656D01*
X175498027Y-95554163D01*
X175697312Y-97450229D01*
X175697500Y-97504089D01*
X175697500Y-112488752D01*
X175511406Y-114386692D01*
X174964522Y-116198056D01*
X174076223Y-117868702D01*
X172880350Y-119334988D01*
X171422441Y-120541075D01*
X169758045Y-121441011D01*
X167950537Y-122000527D01*
X166054470Y-122199812D01*
X166000611Y-122200000D01*
X131015948Y-122200000D01*
X129118008Y-122013906D01*
X127306644Y-121467022D01*
X125635998Y-120578723D01*
X124169712Y-119382850D01*
X123200770Y-118211600D01*
X125919394Y-118211600D01*
X125919394Y-119735600D01*
X125923808Y-119780413D01*
X125936879Y-119823505D01*
X125958106Y-119863218D01*
X125986673Y-119898027D01*
X126021482Y-119926594D01*
X126061195Y-119947821D01*
X126104287Y-119960892D01*
X126149100Y-119965306D01*
X127673100Y-119965306D01*
X127717913Y-119960892D01*
X127761005Y-119947821D01*
X127800718Y-119926594D01*
X127835527Y-119898027D01*
X127864094Y-119863218D01*
X127885321Y-119823505D01*
X127898392Y-119780413D01*
X127902806Y-119735600D01*
X127902806Y-119056892D01*
X128459198Y-119056892D01*
X128494267Y-119247967D01*
X128565781Y-119428592D01*
X128671017Y-119591886D01*
X128805966Y-119731630D01*
X128965488Y-119842501D01*
X129143507Y-119920275D01*
X129333242Y-119961991D01*
X129527466Y-119966059D01*
X129718781Y-119932325D01*
X129899900Y-119862074D01*
X130063925Y-119757980D01*
X130204608Y-119624010D01*
X130316589Y-119465266D01*
X130395605Y-119287795D01*
X130438644Y-119098356D01*
X130439222Y-119056892D01*
X130999198Y-119056892D01*
X131034267Y-119247967D01*
X131105781Y-119428592D01*
X131211017Y-119591886D01*
X131345966Y-119731630D01*
X131505488Y-119842501D01*
X131683507Y-119920275D01*
X131873242Y-119961991D01*
X132067466Y-119966059D01*
X132258781Y-119932325D01*
X132439900Y-119862074D01*
X132603925Y-119757980D01*
X132744608Y-119624010D01*
X132856589Y-119465266D01*
X132935605Y-119287795D01*
X132978644Y-119098356D01*
X132979222Y-119056892D01*
X133539198Y-119056892D01*
X133574267Y-119247967D01*
X133645781Y-119428592D01*
X133751017Y-119591886D01*
X133885966Y-119731630D01*
X134045488Y-119842501D01*
X134223507Y-119920275D01*
X134413242Y-119961991D01*
X134607466Y-119966059D01*
X134798781Y-119932325D01*
X134979900Y-119862074D01*
X135143925Y-119757980D01*
X135284608Y-119624010D01*
X135396589Y-119465266D01*
X135475605Y-119287795D01*
X135518644Y-119098356D01*
X135519222Y-119056892D01*
X136079198Y-119056892D01*
X136114267Y-119247967D01*
X136185781Y-119428592D01*
X136291017Y-119591886D01*
X136425966Y-119731630D01*
X136585488Y-119842501D01*
X136763507Y-119920275D01*
X136953242Y-119961991D01*
X137147466Y-119966059D01*
X137338781Y-119932325D01*
X137519900Y-119862074D01*
X137683925Y-119757980D01*
X137824608Y-119624010D01*
X137936589Y-119465266D01*
X138015605Y-119287795D01*
X138058644Y-119098356D01*
X138061742Y-118876467D01*
X138024009Y-118685900D01*
X137949980Y-118506291D01*
X137842474Y-118344482D01*
X137705587Y-118206637D01*
X137544533Y-118098004D01*
X137365446Y-118022723D01*
X137175147Y-117983660D01*
X136980885Y-117982304D01*
X136790059Y-118018706D01*
X136609938Y-118091479D01*
X136447383Y-118197852D01*
X136308585Y-118333774D01*
X136198830Y-118494066D01*
X136122301Y-118672623D01*
X136081910Y-118862645D01*
X136079198Y-119056892D01*
X135519222Y-119056892D01*
X135521742Y-118876467D01*
X135484009Y-118685900D01*
X135409980Y-118506291D01*
X135302474Y-118344482D01*
X135165587Y-118206637D01*
X135004533Y-118098004D01*
X134825446Y-118022723D01*
X134635147Y-117983660D01*
X134440885Y-117982304D01*
X134250059Y-118018706D01*
X134069938Y-118091479D01*
X133907383Y-118197852D01*
X133768585Y-118333774D01*
X133658830Y-118494066D01*
X133582301Y-118672623D01*
X133541910Y-118862645D01*
X133539198Y-119056892D01*
X132979222Y-119056892D01*
X132981742Y-118876467D01*
X132944009Y-118685900D01*
X132869980Y-118506291D01*
X132762474Y-118344482D01*
X132625587Y-118206637D01*
X132464533Y-118098004D01*
X132285446Y-118022723D01*
X132095147Y-117983660D01*
X131900885Y-117982304D01*
X131710059Y-118018706D01*
X131529938Y-118091479D01*
X131367383Y-118197852D01*
X131228585Y-118333774D01*
X131118830Y-118494066D01*
X131042301Y-118672623D01*
X131001910Y-118862645D01*
X130999198Y-119056892D01*
X130439222Y-119056892D01*
X130441742Y-118876467D01*
X130404009Y-118685900D01*
X130329980Y-118506291D01*
X130222474Y-118344482D01*
X130085587Y-118206637D01*
X129924533Y-118098004D01*
X129745446Y-118022723D01*
X129555147Y-117983660D01*
X129360885Y-117982304D01*
X129170059Y-118018706D01*
X128989938Y-118091479D01*
X128827383Y-118197852D01*
X128688585Y-118333774D01*
X128578830Y-118494066D01*
X128502301Y-118672623D01*
X128461910Y-118862645D01*
X128459198Y-119056892D01*
X127902806Y-119056892D01*
X127902806Y-118211600D01*
X127898392Y-118166787D01*
X127885321Y-118123695D01*
X127864094Y-118083982D01*
X127835527Y-118049173D01*
X127800718Y-118020606D01*
X127761005Y-117999379D01*
X127717913Y-117986308D01*
X127673100Y-117981894D01*
X126149100Y-117981894D01*
X126104287Y-117986308D01*
X126061195Y-117999379D01*
X126021482Y-118020606D01*
X125986673Y-118049173D01*
X125958106Y-118083982D01*
X125936879Y-118123695D01*
X125923808Y-118166787D01*
X125919394Y-118211600D01*
X123200770Y-118211600D01*
X122963625Y-117924941D01*
X122063689Y-116260545D01*
X121504173Y-114453037D01*
X121304888Y-112556970D01*
X121304700Y-112503111D01*
X121304700Y-97518448D01*
X121390683Y-96641518D01*
X122740283Y-96641518D01*
X122759615Y-96746854D01*
X122799040Y-96846429D01*
X122857054Y-96936450D01*
X122931449Y-97013488D01*
X123019391Y-97074609D01*
X123117529Y-97117485D01*
X123222127Y-97140482D01*
X123329199Y-97142725D01*
X123434668Y-97124128D01*
X123534515Y-97085399D01*
X123624939Y-97028015D01*
X123702495Y-96954159D01*
X123712151Y-96940471D01*
X123725119Y-96983225D01*
X123746346Y-97022938D01*
X123774913Y-97057747D01*
X123809722Y-97086314D01*
X123828500Y-97096351D01*
X123828500Y-97238600D01*
X123831713Y-97271372D01*
X123834569Y-97304013D01*
X123835089Y-97305803D01*
X123835272Y-97307670D01*
X123844781Y-97339164D01*
X123853930Y-97370659D01*
X123854791Y-97372319D01*
X123855331Y-97374109D01*
X123870756Y-97403119D01*
X123885869Y-97432274D01*
X123887035Y-97433734D01*
X123887913Y-97435386D01*
X123908662Y-97460826D01*
X123929167Y-97486512D01*
X123931733Y-97489114D01*
X123931777Y-97489168D01*
X123931827Y-97489209D01*
X123932653Y-97490047D01*
X123993410Y-97550804D01*
X123134700Y-97550804D01*
X123089887Y-97555218D01*
X123046795Y-97568289D01*
X123007082Y-97589516D01*
X122972273Y-97618083D01*
X122943706Y-97652892D01*
X122922479Y-97692605D01*
X122909408Y-97735697D01*
X122904994Y-97780510D01*
X122904994Y-98179290D01*
X122909408Y-98224103D01*
X122922479Y-98267195D01*
X122942018Y-98303750D01*
X122922479Y-98340305D01*
X122909408Y-98383397D01*
X122904994Y-98428210D01*
X122904994Y-98826990D01*
X122909408Y-98871803D01*
X122922479Y-98914895D01*
X122942018Y-98951450D01*
X122922479Y-98988005D01*
X122909408Y-99031097D01*
X122904994Y-99075910D01*
X122904994Y-99474690D01*
X122909408Y-99519503D01*
X122922479Y-99562595D01*
X122943706Y-99602308D01*
X122972273Y-99637117D01*
X123007082Y-99665684D01*
X123046795Y-99686911D01*
X123089887Y-99699982D01*
X123134700Y-99704396D01*
X124033860Y-99704396D01*
X124078673Y-99699982D01*
X124121765Y-99686911D01*
X124156755Y-99668208D01*
X124196040Y-99767429D01*
X124254054Y-99857450D01*
X124328449Y-99934488D01*
X124416391Y-99995609D01*
X124514529Y-100038485D01*
X124619127Y-100061482D01*
X124726199Y-100063725D01*
X124831668Y-100045128D01*
X124931515Y-100006399D01*
X125021939Y-99949015D01*
X125099495Y-99875159D01*
X125161228Y-99787647D01*
X125204788Y-99689810D01*
X125209885Y-99667375D01*
X125246435Y-99686911D01*
X125289527Y-99699982D01*
X125334340Y-99704396D01*
X125479300Y-99704396D01*
X125479300Y-99854600D01*
X125482047Y-99882612D01*
X125484501Y-99910669D01*
X125484949Y-99912210D01*
X125485105Y-99913803D01*
X125493246Y-99940768D01*
X125501098Y-99967793D01*
X125501834Y-99969213D01*
X125502298Y-99970750D01*
X125515541Y-99995656D01*
X125528474Y-100020606D01*
X125529472Y-100021857D01*
X125530226Y-100023274D01*
X125548065Y-100045148D01*
X125565586Y-100067095D01*
X125567781Y-100069322D01*
X125567823Y-100069373D01*
X125567870Y-100069412D01*
X125568574Y-100070126D01*
X125801700Y-100303252D01*
X125801700Y-102158200D01*
X124963500Y-102158200D01*
X124948634Y-102159664D01*
X124934340Y-102164000D01*
X124921166Y-102171042D01*
X124909618Y-102180518D01*
X123697218Y-103392918D01*
X123687742Y-103404466D01*
X123680700Y-103417640D01*
X123676364Y-103431934D01*
X123674900Y-103446800D01*
X123674900Y-106813200D01*
X123676364Y-106828066D01*
X123680700Y-106842360D01*
X123687742Y-106855534D01*
X123697218Y-106867082D01*
X124071418Y-107241282D01*
X124082966Y-107250758D01*
X124096140Y-107257800D01*
X124110434Y-107262136D01*
X124125300Y-107263600D01*
X125573100Y-107263600D01*
X125573100Y-111219814D01*
X125555320Y-111219814D01*
X125510507Y-111224228D01*
X125467415Y-111237299D01*
X125427702Y-111258526D01*
X125392893Y-111287093D01*
X125364326Y-111321902D01*
X125343099Y-111361615D01*
X125330028Y-111404707D01*
X125325614Y-111449520D01*
X125325614Y-112247080D01*
X125330028Y-112291893D01*
X125330303Y-112292800D01*
X124544352Y-112292800D01*
X124296586Y-112045034D01*
X124296586Y-111449520D01*
X124292172Y-111404707D01*
X124279101Y-111361615D01*
X124257874Y-111321902D01*
X124229307Y-111287093D01*
X124194498Y-111258526D01*
X124154785Y-111237299D01*
X124111693Y-111224228D01*
X124066880Y-111219814D01*
X123269320Y-111219814D01*
X123224507Y-111224228D01*
X123181415Y-111237299D01*
X123141702Y-111258526D01*
X123106893Y-111287093D01*
X123078326Y-111321902D01*
X123057099Y-111361615D01*
X123044028Y-111404707D01*
X123039614Y-111449520D01*
X123039614Y-112247080D01*
X123044028Y-112291893D01*
X123057099Y-112334985D01*
X123078326Y-112374698D01*
X123106893Y-112409507D01*
X123141702Y-112438074D01*
X123181415Y-112459301D01*
X123224507Y-112472372D01*
X123269320Y-112476786D01*
X123866234Y-112476786D01*
X124112530Y-112723082D01*
X124111693Y-112722828D01*
X124066880Y-112718414D01*
X123269320Y-112718414D01*
X123224507Y-112722828D01*
X123181415Y-112735899D01*
X123141702Y-112757126D01*
X123106893Y-112785693D01*
X123078326Y-112820502D01*
X123057099Y-112860215D01*
X123044028Y-112903307D01*
X123039614Y-112948120D01*
X123039614Y-113745680D01*
X123044028Y-113790493D01*
X123057099Y-113833585D01*
X123078326Y-113873298D01*
X123106893Y-113908107D01*
X123141702Y-113936674D01*
X123181415Y-113957901D01*
X123224507Y-113970972D01*
X123269320Y-113975386D01*
X123363300Y-113975386D01*
X123363300Y-114376348D01*
X123032493Y-114707155D01*
X123014626Y-114728906D01*
X122996524Y-114750479D01*
X122995751Y-114751885D01*
X122994735Y-114753122D01*
X122981405Y-114777981D01*
X122967867Y-114802608D01*
X122967385Y-114804128D01*
X122966624Y-114805547D01*
X122958366Y-114832560D01*
X122949880Y-114859310D01*
X122949702Y-114860900D01*
X122949232Y-114862436D01*
X122946384Y-114890480D01*
X122943249Y-114918425D01*
X122943227Y-114921560D01*
X122943221Y-114921618D01*
X122943226Y-114921672D01*
X122943219Y-114922681D01*
X122943219Y-115058202D01*
X122912175Y-115067619D01*
X122872462Y-115088846D01*
X122837653Y-115117413D01*
X122809086Y-115152222D01*
X122787859Y-115191935D01*
X122774788Y-115235027D01*
X122770374Y-115279840D01*
X122770374Y-115777680D01*
X122774788Y-115822493D01*
X122787859Y-115865585D01*
X122809086Y-115905298D01*
X122837653Y-115940107D01*
X122872462Y-115968674D01*
X122912175Y-115989901D01*
X122955267Y-116002972D01*
X123000080Y-116007386D01*
X123497920Y-116007386D01*
X123542733Y-116002972D01*
X123574120Y-115993451D01*
X123605507Y-116002972D01*
X123650320Y-116007386D01*
X123950040Y-116007386D01*
X123994853Y-116002972D01*
X124037945Y-115989901D01*
X124049100Y-115983939D01*
X124060255Y-115989901D01*
X124103347Y-116002972D01*
X124148160Y-116007386D01*
X124447880Y-116007386D01*
X124492693Y-116002972D01*
X124524080Y-115993451D01*
X124555467Y-116002972D01*
X124600280Y-116007386D01*
X124938343Y-116007386D01*
X124899915Y-116045814D01*
X124600280Y-116045814D01*
X124555467Y-116050228D01*
X124524080Y-116059749D01*
X124492693Y-116050228D01*
X124447880Y-116045814D01*
X124148160Y-116045814D01*
X124103347Y-116050228D01*
X124060255Y-116063299D01*
X124049100Y-116069261D01*
X124037945Y-116063299D01*
X123994853Y-116050228D01*
X123950040Y-116045814D01*
X123650320Y-116045814D01*
X123605507Y-116050228D01*
X123574120Y-116059749D01*
X123542733Y-116050228D01*
X123497920Y-116045814D01*
X123000080Y-116045814D01*
X122955267Y-116050228D01*
X122912175Y-116063299D01*
X122872462Y-116084526D01*
X122837653Y-116113093D01*
X122809086Y-116147902D01*
X122787859Y-116187615D01*
X122774788Y-116230707D01*
X122770374Y-116275520D01*
X122770374Y-116773360D01*
X122774788Y-116818173D01*
X122787859Y-116861265D01*
X122809086Y-116900978D01*
X122837653Y-116935787D01*
X122872462Y-116964354D01*
X122912175Y-116985581D01*
X122955267Y-116998652D01*
X123000080Y-117003066D01*
X123497920Y-117003066D01*
X123542733Y-116998652D01*
X123574120Y-116989131D01*
X123605507Y-116998652D01*
X123650320Y-117003066D01*
X123950040Y-117003066D01*
X123994853Y-116998652D01*
X124037945Y-116985581D01*
X124049100Y-116979619D01*
X124060255Y-116985581D01*
X124103347Y-116998652D01*
X124148160Y-117003066D01*
X124447880Y-117003066D01*
X124492693Y-116998652D01*
X124524080Y-116989131D01*
X124555467Y-116998652D01*
X124600280Y-117003066D01*
X125098120Y-117003066D01*
X125142933Y-116998652D01*
X125186025Y-116985581D01*
X125225738Y-116964354D01*
X125260547Y-116935787D01*
X125289114Y-116900978D01*
X125310341Y-116861265D01*
X125323412Y-116818173D01*
X125327826Y-116773360D01*
X125327826Y-116516892D01*
X125919198Y-116516892D01*
X125954267Y-116707967D01*
X126025781Y-116888592D01*
X126131017Y-117051886D01*
X126265966Y-117191630D01*
X126425488Y-117302501D01*
X126603507Y-117380275D01*
X126793242Y-117421991D01*
X126987466Y-117426059D01*
X127178781Y-117392325D01*
X127359900Y-117322074D01*
X127523925Y-117217980D01*
X127664608Y-117084010D01*
X127776589Y-116925266D01*
X127855605Y-116747795D01*
X127898644Y-116558356D01*
X127899222Y-116516892D01*
X128459198Y-116516892D01*
X128494267Y-116707967D01*
X128565781Y-116888592D01*
X128671017Y-117051886D01*
X128805966Y-117191630D01*
X128965488Y-117302501D01*
X129143507Y-117380275D01*
X129333242Y-117421991D01*
X129527466Y-117426059D01*
X129718781Y-117392325D01*
X129899900Y-117322074D01*
X130063925Y-117217980D01*
X130204608Y-117084010D01*
X130316589Y-116925266D01*
X130395605Y-116747795D01*
X130438644Y-116558356D01*
X130441742Y-116336467D01*
X130404009Y-116145900D01*
X130329980Y-115966291D01*
X130222474Y-115804482D01*
X130085587Y-115666637D01*
X129924533Y-115558004D01*
X129745446Y-115482723D01*
X129555147Y-115443660D01*
X129360885Y-115442304D01*
X129170059Y-115478706D01*
X128989938Y-115551479D01*
X128827383Y-115657852D01*
X128688585Y-115793774D01*
X128578830Y-115954066D01*
X128502301Y-116132623D01*
X128461910Y-116322645D01*
X128459198Y-116516892D01*
X127899222Y-116516892D01*
X127901742Y-116336467D01*
X127864009Y-116145900D01*
X127789980Y-115966291D01*
X127682474Y-115804482D01*
X127545587Y-115666637D01*
X127384533Y-115558004D01*
X127205446Y-115482723D01*
X127015147Y-115443660D01*
X126820885Y-115442304D01*
X126630059Y-115478706D01*
X126449938Y-115551479D01*
X126287383Y-115657852D01*
X126148585Y-115793774D01*
X126038830Y-115954066D01*
X125962301Y-116132623D01*
X125921910Y-116322645D01*
X125919198Y-116516892D01*
X125327826Y-116516892D01*
X125327826Y-116480007D01*
X125712426Y-116095407D01*
X125730275Y-116073677D01*
X125748395Y-116052083D01*
X125749170Y-116050674D01*
X125750184Y-116049439D01*
X125763492Y-116024621D01*
X125777052Y-115999954D01*
X125777535Y-115998431D01*
X125778295Y-115997014D01*
X125786549Y-115970016D01*
X125795039Y-115943252D01*
X125795217Y-115941662D01*
X125795687Y-115940126D01*
X125798540Y-115912037D01*
X125801670Y-115884137D01*
X125801692Y-115881013D01*
X125801699Y-115880944D01*
X125801693Y-115880880D01*
X125801700Y-115879881D01*
X125801700Y-115413182D01*
X125834739Y-115392215D01*
X125912295Y-115318359D01*
X125974028Y-115230847D01*
X126017588Y-115133010D01*
X126041315Y-115028576D01*
X126043023Y-114906252D01*
X126022221Y-114801196D01*
X125981410Y-114702181D01*
X125950063Y-114655000D01*
X128595700Y-114655000D01*
X128623712Y-114652253D01*
X128651769Y-114649799D01*
X128653310Y-114649351D01*
X128654903Y-114649195D01*
X128681868Y-114641054D01*
X128708893Y-114633202D01*
X128710313Y-114632466D01*
X128711850Y-114632002D01*
X128736773Y-114618750D01*
X128761706Y-114605826D01*
X128762957Y-114604828D01*
X128764374Y-114604074D01*
X128786248Y-114586235D01*
X128808195Y-114568714D01*
X128810422Y-114566519D01*
X128810473Y-114566477D01*
X128810512Y-114566430D01*
X128811226Y-114565726D01*
X128874352Y-114502600D01*
X129580136Y-114502600D01*
X129782217Y-114704681D01*
X129758330Y-114817062D01*
X129755772Y-115000250D01*
X129788844Y-115180446D01*
X129856287Y-115350787D01*
X129955531Y-115504784D01*
X130082797Y-115636571D01*
X130233236Y-115741129D01*
X130401120Y-115814476D01*
X130580052Y-115853817D01*
X130763218Y-115857653D01*
X130909411Y-115831875D01*
X131059500Y-115981964D01*
X131059500Y-116092494D01*
X131042301Y-116132623D01*
X131001910Y-116322645D01*
X130999198Y-116516892D01*
X131034267Y-116707967D01*
X131059500Y-116771699D01*
X131059500Y-116864800D01*
X131060964Y-116879666D01*
X131065300Y-116893960D01*
X131072342Y-116907134D01*
X131081818Y-116918682D01*
X131203758Y-117040622D01*
X131211017Y-117051886D01*
X131345966Y-117191630D01*
X131374820Y-117211684D01*
X131615218Y-117452082D01*
X131626766Y-117461558D01*
X131639940Y-117468600D01*
X131654234Y-117472936D01*
X131669100Y-117474400D01*
X136191048Y-117474400D01*
X136406574Y-117689926D01*
X136428330Y-117707797D01*
X136449898Y-117725895D01*
X136451303Y-117726668D01*
X136452542Y-117727685D01*
X136477399Y-117741013D01*
X136502027Y-117754552D01*
X136503550Y-117755035D01*
X136504967Y-117755795D01*
X136531965Y-117764049D01*
X136558729Y-117772539D01*
X136560319Y-117772717D01*
X136561855Y-117773187D01*
X136589944Y-117776040D01*
X136617844Y-117779170D01*
X136620968Y-117779192D01*
X136621037Y-117779199D01*
X136621101Y-117779193D01*
X136622100Y-117779200D01*
X137962136Y-117779200D01*
X138720281Y-118537345D01*
X138662301Y-118672623D01*
X138621910Y-118862645D01*
X138619198Y-119056892D01*
X138654267Y-119247967D01*
X138725781Y-119428592D01*
X138831017Y-119591886D01*
X138965966Y-119731630D01*
X139125488Y-119842501D01*
X139235144Y-119890408D01*
X139235218Y-119890482D01*
X139246766Y-119899958D01*
X139259940Y-119907000D01*
X139274234Y-119911336D01*
X139285611Y-119912456D01*
X139303507Y-119920275D01*
X139493242Y-119961991D01*
X139687466Y-119966059D01*
X139878781Y-119932325D01*
X139929120Y-119912800D01*
X141826397Y-119912800D01*
X141843507Y-119920275D01*
X142033242Y-119961991D01*
X142227466Y-119966059D01*
X142418781Y-119932325D01*
X142469120Y-119912800D01*
X144366397Y-119912800D01*
X144383507Y-119920275D01*
X144573242Y-119961991D01*
X144767466Y-119966059D01*
X144958781Y-119932325D01*
X145009120Y-119912800D01*
X146906397Y-119912800D01*
X146923507Y-119920275D01*
X147113242Y-119961991D01*
X147307466Y-119966059D01*
X147498781Y-119932325D01*
X147549120Y-119912800D01*
X148840248Y-119912800D01*
X149436774Y-120509326D01*
X149458525Y-120527193D01*
X149480098Y-120545295D01*
X149481504Y-120546068D01*
X149482741Y-120547084D01*
X149507565Y-120560394D01*
X149532227Y-120573952D01*
X149533752Y-120574436D01*
X149535166Y-120575194D01*
X149562104Y-120583430D01*
X149588929Y-120591939D01*
X149590522Y-120592118D01*
X149592054Y-120592586D01*
X149620059Y-120595431D01*
X149648044Y-120598570D01*
X149651178Y-120598592D01*
X149651236Y-120598598D01*
X149651290Y-120598593D01*
X149652300Y-120598600D01*
X170302500Y-120598600D01*
X170330512Y-120595853D01*
X170358569Y-120593399D01*
X170360110Y-120592951D01*
X170361703Y-120592795D01*
X170388668Y-120584654D01*
X170415693Y-120576802D01*
X170417113Y-120576066D01*
X170418650Y-120575602D01*
X170443556Y-120562359D01*
X170468506Y-120549426D01*
X170469757Y-120548428D01*
X170471174Y-120547674D01*
X170493048Y-120529835D01*
X170514995Y-120512314D01*
X170517222Y-120510119D01*
X170517273Y-120510077D01*
X170517312Y-120510030D01*
X170518026Y-120509326D01*
X171356226Y-119671126D01*
X171374075Y-119649396D01*
X171392195Y-119627802D01*
X171392970Y-119626393D01*
X171393984Y-119625158D01*
X171407302Y-119600321D01*
X171420852Y-119575673D01*
X171421334Y-119574153D01*
X171422095Y-119572734D01*
X171430353Y-119545721D01*
X171438839Y-119518971D01*
X171439017Y-119517381D01*
X171439487Y-119515845D01*
X171442340Y-119487756D01*
X171445470Y-119459856D01*
X171445492Y-119456732D01*
X171445499Y-119456663D01*
X171445493Y-119456599D01*
X171445500Y-119455600D01*
X171445500Y-116058164D01*
X171727982Y-115775682D01*
X171737458Y-115764134D01*
X171744500Y-115750960D01*
X171748836Y-115736666D01*
X171750300Y-115721800D01*
X171750300Y-113512000D01*
X171748836Y-113497134D01*
X171744500Y-113482840D01*
X171737458Y-113469666D01*
X171727982Y-113458118D01*
X171716434Y-113448642D01*
X171703260Y-113441600D01*
X171688966Y-113437264D01*
X171674100Y-113435800D01*
X171489200Y-113435800D01*
X171488955Y-113435669D01*
X171445863Y-113422598D01*
X171401050Y-113418184D01*
X170402830Y-113418184D01*
X170358017Y-113422598D01*
X170314925Y-113435669D01*
X170314680Y-113435800D01*
X166797300Y-113435800D01*
X166797300Y-111014250D01*
X170019872Y-111014250D01*
X170052944Y-111194446D01*
X170120387Y-111364787D01*
X170219631Y-111518784D01*
X170346897Y-111650571D01*
X170497336Y-111755129D01*
X170665220Y-111828476D01*
X170844152Y-111867817D01*
X171027318Y-111871653D01*
X171207740Y-111839840D01*
X171378548Y-111773588D01*
X171533234Y-111675421D01*
X171665906Y-111549079D01*
X171771512Y-111399373D01*
X171846029Y-111232006D01*
X171886618Y-111053353D01*
X171889540Y-110844097D01*
X171853955Y-110664380D01*
X171784141Y-110494998D01*
X171682756Y-110342401D01*
X171553663Y-110212404D01*
X171401778Y-110109956D01*
X171232887Y-110038961D01*
X171053423Y-110002122D01*
X170870221Y-110000843D01*
X170690260Y-110035173D01*
X170520395Y-110103803D01*
X170367094Y-110204120D01*
X170236199Y-110332302D01*
X170132693Y-110483468D01*
X170060521Y-110651859D01*
X170022430Y-110831062D01*
X170019872Y-111014250D01*
X166797300Y-111014250D01*
X166797300Y-110097068D01*
X168233854Y-110097068D01*
X168259616Y-110237435D01*
X168312151Y-110370124D01*
X168389459Y-110490083D01*
X168488595Y-110592740D01*
X168605782Y-110674188D01*
X168736557Y-110731322D01*
X168875939Y-110761967D01*
X169018619Y-110764956D01*
X169159163Y-110740174D01*
X169292216Y-110688566D01*
X169412711Y-110612098D01*
X169516058Y-110513681D01*
X169598322Y-110397066D01*
X169656368Y-110266692D01*
X169687985Y-110127528D01*
X169690261Y-109964524D01*
X169662542Y-109824531D01*
X169608159Y-109692588D01*
X169529183Y-109573721D01*
X169505149Y-109549518D01*
X171454283Y-109549518D01*
X171473615Y-109654854D01*
X171513040Y-109754429D01*
X171571054Y-109844450D01*
X171645449Y-109921488D01*
X171733391Y-109982609D01*
X171831529Y-110025485D01*
X171936127Y-110048482D01*
X172043199Y-110050725D01*
X172148668Y-110032128D01*
X172248515Y-109993399D01*
X172338939Y-109936015D01*
X172416495Y-109862159D01*
X172478228Y-109774647D01*
X172521788Y-109676810D01*
X172545515Y-109572376D01*
X172547223Y-109450052D01*
X172526421Y-109344996D01*
X172485610Y-109245981D01*
X172426345Y-109156779D01*
X172350881Y-109080787D01*
X172262095Y-109020900D01*
X172163367Y-108979399D01*
X172058459Y-108957864D01*
X171951366Y-108957116D01*
X171846167Y-108977184D01*
X171746870Y-109017303D01*
X171657256Y-109075945D01*
X171580739Y-109150875D01*
X171520234Y-109239242D01*
X171478044Y-109337677D01*
X171455778Y-109442432D01*
X171454283Y-109549518D01*
X169505149Y-109549518D01*
X169428624Y-109472457D01*
X169310311Y-109392654D01*
X169178751Y-109337351D01*
X169038954Y-109308655D01*
X168896247Y-109307658D01*
X168756063Y-109334400D01*
X168623744Y-109387860D01*
X168504328Y-109466004D01*
X168402365Y-109565854D01*
X168321737Y-109683607D01*
X168265517Y-109814778D01*
X168235846Y-109954370D01*
X168233854Y-110097068D01*
X166797300Y-110097068D01*
X166797300Y-108424518D01*
X169954283Y-108424518D01*
X169973615Y-108529854D01*
X170013040Y-108629429D01*
X170071054Y-108719450D01*
X170145449Y-108796488D01*
X170233391Y-108857609D01*
X170331529Y-108900485D01*
X170436127Y-108923482D01*
X170543199Y-108925725D01*
X170648668Y-108907128D01*
X170748515Y-108868399D01*
X170838939Y-108811015D01*
X170916495Y-108737159D01*
X170978228Y-108649647D01*
X171021788Y-108551810D01*
X171045515Y-108447376D01*
X171047223Y-108325052D01*
X171026421Y-108219996D01*
X170985610Y-108120981D01*
X170926345Y-108031779D01*
X170850881Y-107955787D01*
X170762095Y-107895900D01*
X170663367Y-107854399D01*
X170558459Y-107832864D01*
X170451366Y-107832116D01*
X170346167Y-107852184D01*
X170246870Y-107892303D01*
X170157256Y-107950945D01*
X170080739Y-108025875D01*
X170020234Y-108114242D01*
X169978044Y-108212677D01*
X169955778Y-108317432D01*
X169954283Y-108424518D01*
X166797300Y-108424518D01*
X166797300Y-107299518D01*
X171454283Y-107299518D01*
X171473615Y-107404854D01*
X171513040Y-107504429D01*
X171571054Y-107594450D01*
X171645449Y-107671488D01*
X171733391Y-107732609D01*
X171831529Y-107775485D01*
X171936127Y-107798482D01*
X172043199Y-107800725D01*
X172148668Y-107782128D01*
X172248515Y-107743399D01*
X172338939Y-107686015D01*
X172416495Y-107612159D01*
X172478228Y-107524647D01*
X172521788Y-107426810D01*
X172545515Y-107322376D01*
X172547223Y-107200052D01*
X172526421Y-107094996D01*
X172485610Y-106995981D01*
X172426345Y-106906779D01*
X172350881Y-106830787D01*
X172262095Y-106770900D01*
X172163367Y-106729399D01*
X172058459Y-106707864D01*
X171951366Y-106707116D01*
X171846167Y-106727184D01*
X171746870Y-106767303D01*
X171657256Y-106825945D01*
X171580739Y-106900875D01*
X171520234Y-106989242D01*
X171478044Y-107087677D01*
X171455778Y-107192432D01*
X171454283Y-107299518D01*
X166797300Y-107299518D01*
X166797300Y-106174518D01*
X169954283Y-106174518D01*
X169973615Y-106279854D01*
X170013040Y-106379429D01*
X170071054Y-106469450D01*
X170145449Y-106546488D01*
X170233391Y-106607609D01*
X170331529Y-106650485D01*
X170436127Y-106673482D01*
X170543199Y-106675725D01*
X170648668Y-106657128D01*
X170748515Y-106618399D01*
X170838939Y-106561015D01*
X170916495Y-106487159D01*
X170978228Y-106399647D01*
X171021788Y-106301810D01*
X171045515Y-106197376D01*
X171047223Y-106075052D01*
X171026421Y-105969996D01*
X170985610Y-105870981D01*
X170926345Y-105781779D01*
X170850881Y-105705787D01*
X170762095Y-105645900D01*
X170663367Y-105604399D01*
X170558459Y-105582864D01*
X170451366Y-105582116D01*
X170346167Y-105602184D01*
X170246870Y-105642303D01*
X170157256Y-105700945D01*
X170080739Y-105775875D01*
X170020234Y-105864242D01*
X169978044Y-105962677D01*
X169955778Y-106067432D01*
X169954283Y-106174518D01*
X166797300Y-106174518D01*
X166797300Y-105847364D01*
X167565472Y-105079192D01*
X167574166Y-105078336D01*
X167588460Y-105074000D01*
X167601634Y-105066958D01*
X167613182Y-105057482D01*
X167619717Y-105049518D01*
X171454283Y-105049518D01*
X171473615Y-105154854D01*
X171513040Y-105254429D01*
X171571054Y-105344450D01*
X171645449Y-105421488D01*
X171733391Y-105482609D01*
X171831529Y-105525485D01*
X171936127Y-105548482D01*
X172043199Y-105550725D01*
X172148668Y-105532128D01*
X172248515Y-105493399D01*
X172338939Y-105436015D01*
X172416495Y-105362159D01*
X172478228Y-105274647D01*
X172521788Y-105176810D01*
X172545515Y-105072376D01*
X172547223Y-104950052D01*
X172526421Y-104844996D01*
X172485610Y-104745981D01*
X172426345Y-104656779D01*
X172350881Y-104580787D01*
X172262095Y-104520900D01*
X172163367Y-104479399D01*
X172058459Y-104457864D01*
X171951366Y-104457116D01*
X171846167Y-104477184D01*
X171746870Y-104517303D01*
X171657256Y-104575945D01*
X171580739Y-104650875D01*
X171520234Y-104739242D01*
X171478044Y-104837677D01*
X171455778Y-104942432D01*
X171454283Y-105049518D01*
X167619717Y-105049518D01*
X167622658Y-105045934D01*
X167629700Y-105032760D01*
X167634036Y-105018466D01*
X167635500Y-105003600D01*
X167635500Y-103924518D01*
X169954283Y-103924518D01*
X169973615Y-104029854D01*
X170013040Y-104129429D01*
X170071054Y-104219450D01*
X170145449Y-104296488D01*
X170233391Y-104357609D01*
X170331529Y-104400485D01*
X170436127Y-104423482D01*
X170543199Y-104425725D01*
X170648668Y-104407128D01*
X170748515Y-104368399D01*
X170838939Y-104311015D01*
X170916495Y-104237159D01*
X170978228Y-104149647D01*
X171021788Y-104051810D01*
X171045515Y-103947376D01*
X171047223Y-103825052D01*
X171026421Y-103719996D01*
X170985610Y-103620981D01*
X170926345Y-103531779D01*
X170850881Y-103455787D01*
X170762095Y-103395900D01*
X170663367Y-103354399D01*
X170558459Y-103332864D01*
X170451366Y-103332116D01*
X170346167Y-103352184D01*
X170246870Y-103392303D01*
X170157256Y-103450945D01*
X170080739Y-103525875D01*
X170020234Y-103614242D01*
X169978044Y-103712677D01*
X169955778Y-103817432D01*
X169954283Y-103924518D01*
X167635500Y-103924518D01*
X167635500Y-102799518D01*
X171454283Y-102799518D01*
X171473615Y-102904854D01*
X171513040Y-103004429D01*
X171571054Y-103094450D01*
X171645449Y-103171488D01*
X171733391Y-103232609D01*
X171831529Y-103275485D01*
X171936127Y-103298482D01*
X172043199Y-103300725D01*
X172148668Y-103282128D01*
X172248515Y-103243399D01*
X172338939Y-103186015D01*
X172416495Y-103112159D01*
X172478228Y-103024647D01*
X172521788Y-102926810D01*
X172545515Y-102822376D01*
X172547223Y-102700052D01*
X172526421Y-102594996D01*
X172485610Y-102495981D01*
X172426345Y-102406779D01*
X172350881Y-102330787D01*
X172262095Y-102270900D01*
X172163367Y-102229399D01*
X172058459Y-102207864D01*
X171951366Y-102207116D01*
X171846167Y-102227184D01*
X171746870Y-102267303D01*
X171657256Y-102325945D01*
X171580739Y-102400875D01*
X171520234Y-102489242D01*
X171478044Y-102587677D01*
X171455778Y-102692432D01*
X171454283Y-102799518D01*
X167635500Y-102799518D01*
X167635500Y-102101148D01*
X168233854Y-102101148D01*
X168259616Y-102241515D01*
X168312151Y-102374204D01*
X168389459Y-102494163D01*
X168488595Y-102596820D01*
X168605782Y-102678268D01*
X168736557Y-102735402D01*
X168875939Y-102766047D01*
X169018619Y-102769036D01*
X169159163Y-102744254D01*
X169292216Y-102692646D01*
X169412711Y-102616178D01*
X169516058Y-102517761D01*
X169598322Y-102401146D01*
X169656368Y-102270772D01*
X169687985Y-102131608D01*
X169690261Y-101968604D01*
X169662542Y-101828611D01*
X169608159Y-101696668D01*
X169529183Y-101577801D01*
X169428624Y-101476537D01*
X169310311Y-101396734D01*
X169178751Y-101341431D01*
X169038954Y-101312735D01*
X168896247Y-101311738D01*
X168756063Y-101338480D01*
X168623744Y-101391940D01*
X168504328Y-101470084D01*
X168402365Y-101569934D01*
X168321737Y-101687687D01*
X168265517Y-101818858D01*
X168235846Y-101958450D01*
X168233854Y-102101148D01*
X167635500Y-102101148D01*
X167635500Y-96627164D01*
X168105314Y-96157350D01*
X170764672Y-96157350D01*
X170797744Y-96337546D01*
X170865187Y-96507887D01*
X170964431Y-96661884D01*
X171091697Y-96793671D01*
X171242136Y-96898229D01*
X171410020Y-96971576D01*
X171588952Y-97010917D01*
X171772118Y-97014753D01*
X171952540Y-96982940D01*
X172123348Y-96916688D01*
X172278034Y-96818521D01*
X172410706Y-96692179D01*
X172516312Y-96542473D01*
X172590829Y-96375106D01*
X172631418Y-96196453D01*
X172634340Y-95987197D01*
X172598755Y-95807480D01*
X172528941Y-95638098D01*
X172427556Y-95485501D01*
X172298463Y-95355504D01*
X172146578Y-95253056D01*
X171977687Y-95182061D01*
X171798223Y-95145222D01*
X171615021Y-95143943D01*
X171435060Y-95178273D01*
X171265195Y-95246903D01*
X171111894Y-95347220D01*
X170980999Y-95475402D01*
X170877493Y-95626568D01*
X170805321Y-95794959D01*
X170767230Y-95974162D01*
X170764672Y-96157350D01*
X168105314Y-96157350D01*
X168505264Y-95757400D01*
X169388100Y-95757400D01*
X169402966Y-95755936D01*
X169417260Y-95751600D01*
X169430434Y-95744558D01*
X169441982Y-95735082D01*
X171118382Y-94058682D01*
X171127858Y-94047134D01*
X171134900Y-94033960D01*
X171139236Y-94019666D01*
X171140700Y-94004800D01*
X171140700Y-90652000D01*
X171139236Y-90637134D01*
X171134900Y-90622840D01*
X171127858Y-90609666D01*
X171118382Y-90598118D01*
X170584982Y-90064718D01*
X170573434Y-90055242D01*
X170560260Y-90048200D01*
X170545966Y-90043864D01*
X170531100Y-90042400D01*
X170014638Y-90042400D01*
X170000885Y-90042304D01*
X170000382Y-90042400D01*
X169530952Y-90042400D01*
X169239226Y-89750674D01*
X169217475Y-89732807D01*
X169195902Y-89714705D01*
X169194496Y-89713932D01*
X169193259Y-89712916D01*
X169168400Y-89699586D01*
X169143773Y-89686048D01*
X169142253Y-89685566D01*
X169140834Y-89684805D01*
X169113821Y-89676547D01*
X169087071Y-89668061D01*
X169085481Y-89667883D01*
X169083945Y-89667413D01*
X169055901Y-89664565D01*
X169027956Y-89661430D01*
X169024821Y-89661408D01*
X169024763Y-89661402D01*
X169024709Y-89661407D01*
X169023700Y-89661400D01*
X159482100Y-89661400D01*
X159454084Y-89664147D01*
X159426032Y-89666601D01*
X159424491Y-89667049D01*
X159422897Y-89667205D01*
X159395920Y-89675350D01*
X159368907Y-89683198D01*
X159367487Y-89683934D01*
X159365950Y-89684398D01*
X159341044Y-89697641D01*
X159316094Y-89710574D01*
X159314843Y-89711572D01*
X159313426Y-89712326D01*
X159291583Y-89730141D01*
X159269605Y-89747685D01*
X159267376Y-89749883D01*
X159267327Y-89749923D01*
X159267289Y-89749969D01*
X159266574Y-89750674D01*
X158974848Y-90042400D01*
X157314638Y-90042400D01*
X157300885Y-90042304D01*
X157300382Y-90042400D01*
X154774638Y-90042400D01*
X154760885Y-90042304D01*
X154760382Y-90042400D01*
X152234638Y-90042400D01*
X152220885Y-90042304D01*
X152220382Y-90042400D01*
X149694638Y-90042400D01*
X149680885Y-90042304D01*
X149680382Y-90042400D01*
X147154638Y-90042400D01*
X147140885Y-90042304D01*
X147140382Y-90042400D01*
X144614638Y-90042400D01*
X144600885Y-90042304D01*
X144600382Y-90042400D01*
X143219190Y-90042400D01*
X142752745Y-89575955D01*
X142678581Y-89526401D01*
X142591100Y-89509000D01*
X141702100Y-89509000D01*
X141614619Y-89526401D01*
X141540455Y-89575955D01*
X141074010Y-90042400D01*
X139534638Y-90042400D01*
X139520885Y-90042304D01*
X139520382Y-90042400D01*
X136994638Y-90042400D01*
X136980885Y-90042304D01*
X136980382Y-90042400D01*
X134454638Y-90042400D01*
X134440885Y-90042304D01*
X134440382Y-90042400D01*
X131914638Y-90042400D01*
X131900885Y-90042304D01*
X131900382Y-90042400D01*
X129374638Y-90042400D01*
X129360885Y-90042304D01*
X129360382Y-90042400D01*
X126834638Y-90042400D01*
X126820885Y-90042304D01*
X126820382Y-90042400D01*
X126487500Y-90042400D01*
X126472634Y-90043864D01*
X126458340Y-90048200D01*
X126445166Y-90055242D01*
X126433618Y-90064718D01*
X125824018Y-90674318D01*
X125814542Y-90685866D01*
X125807500Y-90699040D01*
X125803164Y-90713334D01*
X125801700Y-90728200D01*
X125801700Y-94443114D01*
X125738900Y-94443114D01*
X125738900Y-94424600D01*
X125736153Y-94396588D01*
X125733699Y-94368531D01*
X125733251Y-94366990D01*
X125733095Y-94365397D01*
X125724954Y-94338432D01*
X125717102Y-94311407D01*
X125716366Y-94309987D01*
X125715902Y-94308450D01*
X125702659Y-94283544D01*
X125689726Y-94258594D01*
X125688728Y-94257343D01*
X125687974Y-94255926D01*
X125670154Y-94234077D01*
X125652614Y-94212104D01*
X125650417Y-94209876D01*
X125650377Y-94209827D01*
X125650331Y-94209789D01*
X125649626Y-94209074D01*
X125504439Y-94063887D01*
X125518765Y-94059541D01*
X125558478Y-94038314D01*
X125593287Y-94009747D01*
X125621854Y-93974938D01*
X125643081Y-93935225D01*
X125656152Y-93892133D01*
X125660566Y-93847320D01*
X125660566Y-93247880D01*
X125656152Y-93203067D01*
X125643081Y-93159975D01*
X125621854Y-93120262D01*
X125593287Y-93085453D01*
X125558478Y-93056886D01*
X125518765Y-93035659D01*
X125475673Y-93022588D01*
X125430860Y-93018174D01*
X124933020Y-93018174D01*
X124888207Y-93022588D01*
X124845115Y-93035659D01*
X124805402Y-93056886D01*
X124770593Y-93085453D01*
X124742026Y-93120262D01*
X124720799Y-93159975D01*
X124707728Y-93203067D01*
X124703314Y-93247880D01*
X124703314Y-93635762D01*
X124664886Y-93597334D01*
X124664886Y-93247880D01*
X124660472Y-93203067D01*
X124647401Y-93159975D01*
X124626174Y-93120262D01*
X124597607Y-93085453D01*
X124562798Y-93056886D01*
X124523085Y-93035659D01*
X124479993Y-93022588D01*
X124435180Y-93018174D01*
X123937340Y-93018174D01*
X123892527Y-93022588D01*
X123849435Y-93035659D01*
X123809722Y-93056886D01*
X123774913Y-93085453D01*
X123746346Y-93120262D01*
X123725119Y-93159975D01*
X123712048Y-93203067D01*
X123707634Y-93247880D01*
X123707634Y-93847320D01*
X123712048Y-93892133D01*
X123725119Y-93935225D01*
X123746346Y-93974938D01*
X123774913Y-94009747D01*
X123809722Y-94038314D01*
X123849435Y-94059541D01*
X123892527Y-94072612D01*
X123937340Y-94077026D01*
X124282474Y-94077026D01*
X124379300Y-94173852D01*
X124379300Y-94447803D01*
X124378393Y-94447528D01*
X124333580Y-94443114D01*
X123536020Y-94443114D01*
X123491207Y-94447528D01*
X123448115Y-94460599D01*
X123408402Y-94481826D01*
X123373593Y-94510393D01*
X123345026Y-94545202D01*
X123323799Y-94584915D01*
X123310728Y-94628007D01*
X123306314Y-94672820D01*
X123306314Y-95268334D01*
X123071574Y-95503074D01*
X123053707Y-95524825D01*
X123035605Y-95546398D01*
X123034832Y-95547804D01*
X123033816Y-95549041D01*
X123020486Y-95573900D01*
X123006948Y-95598527D01*
X123006466Y-95600047D01*
X123005705Y-95601466D01*
X122997447Y-95628479D01*
X122988961Y-95655229D01*
X122988783Y-95656819D01*
X122988313Y-95658355D01*
X122985465Y-95686399D01*
X122982330Y-95714344D01*
X122982308Y-95717479D01*
X122982302Y-95717537D01*
X122982307Y-95717591D01*
X122982300Y-95718600D01*
X122982300Y-96142395D01*
X122943256Y-96167945D01*
X122866739Y-96242875D01*
X122806234Y-96331242D01*
X122764044Y-96429677D01*
X122741778Y-96534432D01*
X122740283Y-96641518D01*
X121390683Y-96641518D01*
X121490794Y-95620507D01*
X122037677Y-93809146D01*
X122925977Y-92138498D01*
X124121850Y-90672212D01*
X125579757Y-89466126D01*
X127244156Y-88566189D01*
X129051663Y-88006673D01*
X130947729Y-87807388D01*
X131001589Y-87807200D01*
X165986252Y-87807200D01*
X167884193Y-87993294D01*
X167884193Y-87993294D01*
G37*
X167884193Y-87993294D02*
X169695554Y-88540177D01*
X171366202Y-89428477D01*
X172832488Y-90624350D01*
X174038574Y-92082257D01*
X174938511Y-93746656D01*
X175498027Y-95554163D01*
X175697312Y-97450229D01*
X175697500Y-97504089D01*
X175697500Y-112488752D01*
X175511406Y-114386692D01*
X174964522Y-116198056D01*
X174076223Y-117868702D01*
X172880350Y-119334988D01*
X171422441Y-120541075D01*
X169758045Y-121441011D01*
X167950537Y-122000527D01*
X166054470Y-122199812D01*
X166000611Y-122200000D01*
X131015948Y-122200000D01*
X129118008Y-122013906D01*
X127306644Y-121467022D01*
X125635998Y-120578723D01*
X124169712Y-119382850D01*
X123200770Y-118211600D01*
X125919394Y-118211600D01*
X125919394Y-119735600D01*
X125923808Y-119780413D01*
X125936879Y-119823505D01*
X125958106Y-119863218D01*
X125986673Y-119898027D01*
X126021482Y-119926594D01*
X126061195Y-119947821D01*
X126104287Y-119960892D01*
X126149100Y-119965306D01*
X127673100Y-119965306D01*
X127717913Y-119960892D01*
X127761005Y-119947821D01*
X127800718Y-119926594D01*
X127835527Y-119898027D01*
X127864094Y-119863218D01*
X127885321Y-119823505D01*
X127898392Y-119780413D01*
X127902806Y-119735600D01*
X127902806Y-119056892D01*
X128459198Y-119056892D01*
X128494267Y-119247967D01*
X128565781Y-119428592D01*
X128671017Y-119591886D01*
X128805966Y-119731630D01*
X128965488Y-119842501D01*
X129143507Y-119920275D01*
X129333242Y-119961991D01*
X129527466Y-119966059D01*
X129718781Y-119932325D01*
X129899900Y-119862074D01*
X130063925Y-119757980D01*
X130204608Y-119624010D01*
X130316589Y-119465266D01*
X130395605Y-119287795D01*
X130438644Y-119098356D01*
X130439222Y-119056892D01*
X130999198Y-119056892D01*
X131034267Y-119247967D01*
X131105781Y-119428592D01*
X131211017Y-119591886D01*
X131345966Y-119731630D01*
X131505488Y-119842501D01*
X131683507Y-119920275D01*
X131873242Y-119961991D01*
X132067466Y-119966059D01*
X132258781Y-119932325D01*
X132439900Y-119862074D01*
X132603925Y-119757980D01*
X132744608Y-119624010D01*
X132856589Y-119465266D01*
X132935605Y-119287795D01*
X132978644Y-119098356D01*
X132979222Y-119056892D01*
X133539198Y-119056892D01*
X133574267Y-119247967D01*
X133645781Y-119428592D01*
X133751017Y-119591886D01*
X133885966Y-119731630D01*
X134045488Y-119842501D01*
X134223507Y-119920275D01*
X134413242Y-119961991D01*
X134607466Y-119966059D01*
X134798781Y-119932325D01*
X134979900Y-119862074D01*
X135143925Y-119757980D01*
X135284608Y-119624010D01*
X135396589Y-119465266D01*
X135475605Y-119287795D01*
X135518644Y-119098356D01*
X135519222Y-119056892D01*
X136079198Y-119056892D01*
X136114267Y-119247967D01*
X136185781Y-119428592D01*
X136291017Y-119591886D01*
X136425966Y-119731630D01*
X136585488Y-119842501D01*
X136763507Y-119920275D01*
X136953242Y-119961991D01*
X137147466Y-119966059D01*
X137338781Y-119932325D01*
X137519900Y-119862074D01*
X137683925Y-119757980D01*
X137824608Y-119624010D01*
X137936589Y-119465266D01*
X138015605Y-119287795D01*
X138058644Y-119098356D01*
X138061742Y-118876467D01*
X138024009Y-118685900D01*
X137949980Y-118506291D01*
X137842474Y-118344482D01*
X137705587Y-118206637D01*
X137544533Y-118098004D01*
X137365446Y-118022723D01*
X137175147Y-117983660D01*
X136980885Y-117982304D01*
X136790059Y-118018706D01*
X136609938Y-118091479D01*
X136447383Y-118197852D01*
X136308585Y-118333774D01*
X136198830Y-118494066D01*
X136122301Y-118672623D01*
X136081910Y-118862645D01*
X136079198Y-119056892D01*
X135519222Y-119056892D01*
X135521742Y-118876467D01*
X135484009Y-118685900D01*
X135409980Y-118506291D01*
X135302474Y-118344482D01*
X135165587Y-118206637D01*
X135004533Y-118098004D01*
X134825446Y-118022723D01*
X134635147Y-117983660D01*
X134440885Y-117982304D01*
X134250059Y-118018706D01*
X134069938Y-118091479D01*
X133907383Y-118197852D01*
X133768585Y-118333774D01*
X133658830Y-118494066D01*
X133582301Y-118672623D01*
X133541910Y-118862645D01*
X133539198Y-119056892D01*
X132979222Y-119056892D01*
X132981742Y-118876467D01*
X132944009Y-118685900D01*
X132869980Y-118506291D01*
X132762474Y-118344482D01*
X132625587Y-118206637D01*
X132464533Y-118098004D01*
X132285446Y-118022723D01*
X132095147Y-117983660D01*
X131900885Y-117982304D01*
X131710059Y-118018706D01*
X131529938Y-118091479D01*
X131367383Y-118197852D01*
X131228585Y-118333774D01*
X131118830Y-118494066D01*
X131042301Y-118672623D01*
X131001910Y-118862645D01*
X130999198Y-119056892D01*
X130439222Y-119056892D01*
X130441742Y-118876467D01*
X130404009Y-118685900D01*
X130329980Y-118506291D01*
X130222474Y-118344482D01*
X130085587Y-118206637D01*
X129924533Y-118098004D01*
X129745446Y-118022723D01*
X129555147Y-117983660D01*
X129360885Y-117982304D01*
X129170059Y-118018706D01*
X128989938Y-118091479D01*
X128827383Y-118197852D01*
X128688585Y-118333774D01*
X128578830Y-118494066D01*
X128502301Y-118672623D01*
X128461910Y-118862645D01*
X128459198Y-119056892D01*
X127902806Y-119056892D01*
X127902806Y-118211600D01*
X127898392Y-118166787D01*
X127885321Y-118123695D01*
X127864094Y-118083982D01*
X127835527Y-118049173D01*
X127800718Y-118020606D01*
X127761005Y-117999379D01*
X127717913Y-117986308D01*
X127673100Y-117981894D01*
X126149100Y-117981894D01*
X126104287Y-117986308D01*
X126061195Y-117999379D01*
X126021482Y-118020606D01*
X125986673Y-118049173D01*
X125958106Y-118083982D01*
X125936879Y-118123695D01*
X125923808Y-118166787D01*
X125919394Y-118211600D01*
X123200770Y-118211600D01*
X122963625Y-117924941D01*
X122063689Y-116260545D01*
X121504173Y-114453037D01*
X121304888Y-112556970D01*
X121304700Y-112503111D01*
X121304700Y-97518448D01*
X121390683Y-96641518D01*
X122740283Y-96641518D01*
X122759615Y-96746854D01*
X122799040Y-96846429D01*
X122857054Y-96936450D01*
X122931449Y-97013488D01*
X123019391Y-97074609D01*
X123117529Y-97117485D01*
X123222127Y-97140482D01*
X123329199Y-97142725D01*
X123434668Y-97124128D01*
X123534515Y-97085399D01*
X123624939Y-97028015D01*
X123702495Y-96954159D01*
X123712151Y-96940471D01*
X123725119Y-96983225D01*
X123746346Y-97022938D01*
X123774913Y-97057747D01*
X123809722Y-97086314D01*
X123828500Y-97096351D01*
X123828500Y-97238600D01*
X123831713Y-97271372D01*
X123834569Y-97304013D01*
X123835089Y-97305803D01*
X123835272Y-97307670D01*
X123844781Y-97339164D01*
X123853930Y-97370659D01*
X123854791Y-97372319D01*
X123855331Y-97374109D01*
X123870756Y-97403119D01*
X123885869Y-97432274D01*
X123887035Y-97433734D01*
X123887913Y-97435386D01*
X123908662Y-97460826D01*
X123929167Y-97486512D01*
X123931733Y-97489114D01*
X123931777Y-97489168D01*
X123931827Y-97489209D01*
X123932653Y-97490047D01*
X123993410Y-97550804D01*
X123134700Y-97550804D01*
X123089887Y-97555218D01*
X123046795Y-97568289D01*
X123007082Y-97589516D01*
X122972273Y-97618083D01*
X122943706Y-97652892D01*
X122922479Y-97692605D01*
X122909408Y-97735697D01*
X122904994Y-97780510D01*
X122904994Y-98179290D01*
X122909408Y-98224103D01*
X122922479Y-98267195D01*
X122942018Y-98303750D01*
X122922479Y-98340305D01*
X122909408Y-98383397D01*
X122904994Y-98428210D01*
X122904994Y-98826990D01*
X122909408Y-98871803D01*
X122922479Y-98914895D01*
X122942018Y-98951450D01*
X122922479Y-98988005D01*
X122909408Y-99031097D01*
X122904994Y-99075910D01*
X122904994Y-99474690D01*
X122909408Y-99519503D01*
X122922479Y-99562595D01*
X122943706Y-99602308D01*
X122972273Y-99637117D01*
X123007082Y-99665684D01*
X123046795Y-99686911D01*
X123089887Y-99699982D01*
X123134700Y-99704396D01*
X124033860Y-99704396D01*
X124078673Y-99699982D01*
X124121765Y-99686911D01*
X124156755Y-99668208D01*
X124196040Y-99767429D01*
X124254054Y-99857450D01*
X124328449Y-99934488D01*
X124416391Y-99995609D01*
X124514529Y-100038485D01*
X124619127Y-100061482D01*
X124726199Y-100063725D01*
X124831668Y-100045128D01*
X124931515Y-100006399D01*
X125021939Y-99949015D01*
X125099495Y-99875159D01*
X125161228Y-99787647D01*
X125204788Y-99689810D01*
X125209885Y-99667375D01*
X125246435Y-99686911D01*
X125289527Y-99699982D01*
X125334340Y-99704396D01*
X125479300Y-99704396D01*
X125479300Y-99854600D01*
X125482047Y-99882612D01*
X125484501Y-99910669D01*
X125484949Y-99912210D01*
X125485105Y-99913803D01*
X125493246Y-99940768D01*
X125501098Y-99967793D01*
X125501834Y-99969213D01*
X125502298Y-99970750D01*
X125515541Y-99995656D01*
X125528474Y-100020606D01*
X125529472Y-100021857D01*
X125530226Y-100023274D01*
X125548065Y-100045148D01*
X125565586Y-100067095D01*
X125567781Y-100069322D01*
X125567823Y-100069373D01*
X125567870Y-100069412D01*
X125568574Y-100070126D01*
X125801700Y-100303252D01*
X125801700Y-102158200D01*
X124963500Y-102158200D01*
X124948634Y-102159664D01*
X124934340Y-102164000D01*
X124921166Y-102171042D01*
X124909618Y-102180518D01*
X123697218Y-103392918D01*
X123687742Y-103404466D01*
X123680700Y-103417640D01*
X123676364Y-103431934D01*
X123674900Y-103446800D01*
X123674900Y-106813200D01*
X123676364Y-106828066D01*
X123680700Y-106842360D01*
X123687742Y-106855534D01*
X123697218Y-106867082D01*
X124071418Y-107241282D01*
X124082966Y-107250758D01*
X124096140Y-107257800D01*
X124110434Y-107262136D01*
X124125300Y-107263600D01*
X125573100Y-107263600D01*
X125573100Y-111219814D01*
X125555320Y-111219814D01*
X125510507Y-111224228D01*
X125467415Y-111237299D01*
X125427702Y-111258526D01*
X125392893Y-111287093D01*
X125364326Y-111321902D01*
X125343099Y-111361615D01*
X125330028Y-111404707D01*
X125325614Y-111449520D01*
X125325614Y-112247080D01*
X125330028Y-112291893D01*
X125330303Y-112292800D01*
X124544352Y-112292800D01*
X124296586Y-112045034D01*
X124296586Y-111449520D01*
X124292172Y-111404707D01*
X124279101Y-111361615D01*
X124257874Y-111321902D01*
X124229307Y-111287093D01*
X124194498Y-111258526D01*
X124154785Y-111237299D01*
X124111693Y-111224228D01*
X124066880Y-111219814D01*
X123269320Y-111219814D01*
X123224507Y-111224228D01*
X123181415Y-111237299D01*
X123141702Y-111258526D01*
X123106893Y-111287093D01*
X123078326Y-111321902D01*
X123057099Y-111361615D01*
X123044028Y-111404707D01*
X123039614Y-111449520D01*
X123039614Y-112247080D01*
X123044028Y-112291893D01*
X123057099Y-112334985D01*
X123078326Y-112374698D01*
X123106893Y-112409507D01*
X123141702Y-112438074D01*
X123181415Y-112459301D01*
X123224507Y-112472372D01*
X123269320Y-112476786D01*
X123866234Y-112476786D01*
X124112530Y-112723082D01*
X124111693Y-112722828D01*
X124066880Y-112718414D01*
X123269320Y-112718414D01*
X123224507Y-112722828D01*
X123181415Y-112735899D01*
X123141702Y-112757126D01*
X123106893Y-112785693D01*
X123078326Y-112820502D01*
X123057099Y-112860215D01*
X123044028Y-112903307D01*
X123039614Y-112948120D01*
X123039614Y-113745680D01*
X123044028Y-113790493D01*
X123057099Y-113833585D01*
X123078326Y-113873298D01*
X123106893Y-113908107D01*
X123141702Y-113936674D01*
X123181415Y-113957901D01*
X123224507Y-113970972D01*
X123269320Y-113975386D01*
X123363300Y-113975386D01*
X123363300Y-114376348D01*
X123032493Y-114707155D01*
X123014626Y-114728906D01*
X122996524Y-114750479D01*
X122995751Y-114751885D01*
X122994735Y-114753122D01*
X122981405Y-114777981D01*
X122967867Y-114802608D01*
X122967385Y-114804128D01*
X122966624Y-114805547D01*
X122958366Y-114832560D01*
X122949880Y-114859310D01*
X122949702Y-114860900D01*
X122949232Y-114862436D01*
X122946384Y-114890480D01*
X122943249Y-114918425D01*
X122943227Y-114921560D01*
X122943221Y-114921618D01*
X122943226Y-114921672D01*
X122943219Y-114922681D01*
X122943219Y-115058202D01*
X122912175Y-115067619D01*
X122872462Y-115088846D01*
X122837653Y-115117413D01*
X122809086Y-115152222D01*
X122787859Y-115191935D01*
X122774788Y-115235027D01*
X122770374Y-115279840D01*
X122770374Y-115777680D01*
X122774788Y-115822493D01*
X122787859Y-115865585D01*
X122809086Y-115905298D01*
X122837653Y-115940107D01*
X122872462Y-115968674D01*
X122912175Y-115989901D01*
X122955267Y-116002972D01*
X123000080Y-116007386D01*
X123497920Y-116007386D01*
X123542733Y-116002972D01*
X123574120Y-115993451D01*
X123605507Y-116002972D01*
X123650320Y-116007386D01*
X123950040Y-116007386D01*
X123994853Y-116002972D01*
X124037945Y-115989901D01*
X124049100Y-115983939D01*
X124060255Y-115989901D01*
X124103347Y-116002972D01*
X124148160Y-116007386D01*
X124447880Y-116007386D01*
X124492693Y-116002972D01*
X124524080Y-115993451D01*
X124555467Y-116002972D01*
X124600280Y-116007386D01*
X124938343Y-116007386D01*
X124899915Y-116045814D01*
X124600280Y-116045814D01*
X124555467Y-116050228D01*
X124524080Y-116059749D01*
X124492693Y-116050228D01*
X124447880Y-116045814D01*
X124148160Y-116045814D01*
X124103347Y-116050228D01*
X124060255Y-116063299D01*
X124049100Y-116069261D01*
X124037945Y-116063299D01*
X123994853Y-116050228D01*
X123950040Y-116045814D01*
X123650320Y-116045814D01*
X123605507Y-116050228D01*
X123574120Y-116059749D01*
X123542733Y-116050228D01*
X123497920Y-116045814D01*
X123000080Y-116045814D01*
X122955267Y-116050228D01*
X122912175Y-116063299D01*
X122872462Y-116084526D01*
X122837653Y-116113093D01*
X122809086Y-116147902D01*
X122787859Y-116187615D01*
X122774788Y-116230707D01*
X122770374Y-116275520D01*
X122770374Y-116773360D01*
X122774788Y-116818173D01*
X122787859Y-116861265D01*
X122809086Y-116900978D01*
X122837653Y-116935787D01*
X122872462Y-116964354D01*
X122912175Y-116985581D01*
X122955267Y-116998652D01*
X123000080Y-117003066D01*
X123497920Y-117003066D01*
X123542733Y-116998652D01*
X123574120Y-116989131D01*
X123605507Y-116998652D01*
X123650320Y-117003066D01*
X123950040Y-117003066D01*
X123994853Y-116998652D01*
X124037945Y-116985581D01*
X124049100Y-116979619D01*
X124060255Y-116985581D01*
X124103347Y-116998652D01*
X124148160Y-117003066D01*
X124447880Y-117003066D01*
X124492693Y-116998652D01*
X124524080Y-116989131D01*
X124555467Y-116998652D01*
X124600280Y-117003066D01*
X125098120Y-117003066D01*
X125142933Y-116998652D01*
X125186025Y-116985581D01*
X125225738Y-116964354D01*
X125260547Y-116935787D01*
X125289114Y-116900978D01*
X125310341Y-116861265D01*
X125323412Y-116818173D01*
X125327826Y-116773360D01*
X125327826Y-116516892D01*
X125919198Y-116516892D01*
X125954267Y-116707967D01*
X126025781Y-116888592D01*
X126131017Y-117051886D01*
X126265966Y-117191630D01*
X126425488Y-117302501D01*
X126603507Y-117380275D01*
X126793242Y-117421991D01*
X126987466Y-117426059D01*
X127178781Y-117392325D01*
X127359900Y-117322074D01*
X127523925Y-117217980D01*
X127664608Y-117084010D01*
X127776589Y-116925266D01*
X127855605Y-116747795D01*
X127898644Y-116558356D01*
X127899222Y-116516892D01*
X128459198Y-116516892D01*
X128494267Y-116707967D01*
X128565781Y-116888592D01*
X128671017Y-117051886D01*
X128805966Y-117191630D01*
X128965488Y-117302501D01*
X129143507Y-117380275D01*
X129333242Y-117421991D01*
X129527466Y-117426059D01*
X129718781Y-117392325D01*
X129899900Y-117322074D01*
X130063925Y-117217980D01*
X130204608Y-117084010D01*
X130316589Y-116925266D01*
X130395605Y-116747795D01*
X130438644Y-116558356D01*
X130441742Y-116336467D01*
X130404009Y-116145900D01*
X130329980Y-115966291D01*
X130222474Y-115804482D01*
X130085587Y-115666637D01*
X129924533Y-115558004D01*
X129745446Y-115482723D01*
X129555147Y-115443660D01*
X129360885Y-115442304D01*
X129170059Y-115478706D01*
X128989938Y-115551479D01*
X128827383Y-115657852D01*
X128688585Y-115793774D01*
X128578830Y-115954066D01*
X128502301Y-116132623D01*
X128461910Y-116322645D01*
X128459198Y-116516892D01*
X127899222Y-116516892D01*
X127901742Y-116336467D01*
X127864009Y-116145900D01*
X127789980Y-115966291D01*
X127682474Y-115804482D01*
X127545587Y-115666637D01*
X127384533Y-115558004D01*
X127205446Y-115482723D01*
X127015147Y-115443660D01*
X126820885Y-115442304D01*
X126630059Y-115478706D01*
X126449938Y-115551479D01*
X126287383Y-115657852D01*
X126148585Y-115793774D01*
X126038830Y-115954066D01*
X125962301Y-116132623D01*
X125921910Y-116322645D01*
X125919198Y-116516892D01*
X125327826Y-116516892D01*
X125327826Y-116480007D01*
X125712426Y-116095407D01*
X125730275Y-116073677D01*
X125748395Y-116052083D01*
X125749170Y-116050674D01*
X125750184Y-116049439D01*
X125763492Y-116024621D01*
X125777052Y-115999954D01*
X125777535Y-115998431D01*
X125778295Y-115997014D01*
X125786549Y-115970016D01*
X125795039Y-115943252D01*
X125795217Y-115941662D01*
X125795687Y-115940126D01*
X125798540Y-115912037D01*
X125801670Y-115884137D01*
X125801692Y-115881013D01*
X125801699Y-115880944D01*
X125801693Y-115880880D01*
X125801700Y-115879881D01*
X125801700Y-115413182D01*
X125834739Y-115392215D01*
X125912295Y-115318359D01*
X125974028Y-115230847D01*
X126017588Y-115133010D01*
X126041315Y-115028576D01*
X126043023Y-114906252D01*
X126022221Y-114801196D01*
X125981410Y-114702181D01*
X125950063Y-114655000D01*
X128595700Y-114655000D01*
X128623712Y-114652253D01*
X128651769Y-114649799D01*
X128653310Y-114649351D01*
X128654903Y-114649195D01*
X128681868Y-114641054D01*
X128708893Y-114633202D01*
X128710313Y-114632466D01*
X128711850Y-114632002D01*
X128736773Y-114618750D01*
X128761706Y-114605826D01*
X128762957Y-114604828D01*
X128764374Y-114604074D01*
X128786248Y-114586235D01*
X128808195Y-114568714D01*
X128810422Y-114566519D01*
X128810473Y-114566477D01*
X128810512Y-114566430D01*
X128811226Y-114565726D01*
X128874352Y-114502600D01*
X129580136Y-114502600D01*
X129782217Y-114704681D01*
X129758330Y-114817062D01*
X129755772Y-115000250D01*
X129788844Y-115180446D01*
X129856287Y-115350787D01*
X129955531Y-115504784D01*
X130082797Y-115636571D01*
X130233236Y-115741129D01*
X130401120Y-115814476D01*
X130580052Y-115853817D01*
X130763218Y-115857653D01*
X130909411Y-115831875D01*
X131059500Y-115981964D01*
X131059500Y-116092494D01*
X131042301Y-116132623D01*
X131001910Y-116322645D01*
X130999198Y-116516892D01*
X131034267Y-116707967D01*
X131059500Y-116771699D01*
X131059500Y-116864800D01*
X131060964Y-116879666D01*
X131065300Y-116893960D01*
X131072342Y-116907134D01*
X131081818Y-116918682D01*
X131203758Y-117040622D01*
X131211017Y-117051886D01*
X131345966Y-117191630D01*
X131374820Y-117211684D01*
X131615218Y-117452082D01*
X131626766Y-117461558D01*
X131639940Y-117468600D01*
X131654234Y-117472936D01*
X131669100Y-117474400D01*
X136191048Y-117474400D01*
X136406574Y-117689926D01*
X136428330Y-117707797D01*
X136449898Y-117725895D01*
X136451303Y-117726668D01*
X136452542Y-117727685D01*
X136477399Y-117741013D01*
X136502027Y-117754552D01*
X136503550Y-117755035D01*
X136504967Y-117755795D01*
X136531965Y-117764049D01*
X136558729Y-117772539D01*
X136560319Y-117772717D01*
X136561855Y-117773187D01*
X136589944Y-117776040D01*
X136617844Y-117779170D01*
X136620968Y-117779192D01*
X136621037Y-117779199D01*
X136621101Y-117779193D01*
X136622100Y-117779200D01*
X137962136Y-117779200D01*
X138720281Y-118537345D01*
X138662301Y-118672623D01*
X138621910Y-118862645D01*
X138619198Y-119056892D01*
X138654267Y-119247967D01*
X138725781Y-119428592D01*
X138831017Y-119591886D01*
X138965966Y-119731630D01*
X139125488Y-119842501D01*
X139235144Y-119890408D01*
X139235218Y-119890482D01*
X139246766Y-119899958D01*
X139259940Y-119907000D01*
X139274234Y-119911336D01*
X139285611Y-119912456D01*
X139303507Y-119920275D01*
X139493242Y-119961991D01*
X139687466Y-119966059D01*
X139878781Y-119932325D01*
X139929120Y-119912800D01*
X141826397Y-119912800D01*
X141843507Y-119920275D01*
X142033242Y-119961991D01*
X142227466Y-119966059D01*
X142418781Y-119932325D01*
X142469120Y-119912800D01*
X144366397Y-119912800D01*
X144383507Y-119920275D01*
X144573242Y-119961991D01*
X144767466Y-119966059D01*
X144958781Y-119932325D01*
X145009120Y-119912800D01*
X146906397Y-119912800D01*
X146923507Y-119920275D01*
X147113242Y-119961991D01*
X147307466Y-119966059D01*
X147498781Y-119932325D01*
X147549120Y-119912800D01*
X148840248Y-119912800D01*
X149436774Y-120509326D01*
X149458525Y-120527193D01*
X149480098Y-120545295D01*
X149481504Y-120546068D01*
X149482741Y-120547084D01*
X149507565Y-120560394D01*
X149532227Y-120573952D01*
X149533752Y-120574436D01*
X149535166Y-120575194D01*
X149562104Y-120583430D01*
X149588929Y-120591939D01*
X149590522Y-120592118D01*
X149592054Y-120592586D01*
X149620059Y-120595431D01*
X149648044Y-120598570D01*
X149651178Y-120598592D01*
X149651236Y-120598598D01*
X149651290Y-120598593D01*
X149652300Y-120598600D01*
X170302500Y-120598600D01*
X170330512Y-120595853D01*
X170358569Y-120593399D01*
X170360110Y-120592951D01*
X170361703Y-120592795D01*
X170388668Y-120584654D01*
X170415693Y-120576802D01*
X170417113Y-120576066D01*
X170418650Y-120575602D01*
X170443556Y-120562359D01*
X170468506Y-120549426D01*
X170469757Y-120548428D01*
X170471174Y-120547674D01*
X170493048Y-120529835D01*
X170514995Y-120512314D01*
X170517222Y-120510119D01*
X170517273Y-120510077D01*
X170517312Y-120510030D01*
X170518026Y-120509326D01*
X171356226Y-119671126D01*
X171374075Y-119649396D01*
X171392195Y-119627802D01*
X171392970Y-119626393D01*
X171393984Y-119625158D01*
X171407302Y-119600321D01*
X171420852Y-119575673D01*
X171421334Y-119574153D01*
X171422095Y-119572734D01*
X171430353Y-119545721D01*
X171438839Y-119518971D01*
X171439017Y-119517381D01*
X171439487Y-119515845D01*
X171442340Y-119487756D01*
X171445470Y-119459856D01*
X171445492Y-119456732D01*
X171445499Y-119456663D01*
X171445493Y-119456599D01*
X171445500Y-119455600D01*
X171445500Y-116058164D01*
X171727982Y-115775682D01*
X171737458Y-115764134D01*
X171744500Y-115750960D01*
X171748836Y-115736666D01*
X171750300Y-115721800D01*
X171750300Y-113512000D01*
X171748836Y-113497134D01*
X171744500Y-113482840D01*
X171737458Y-113469666D01*
X171727982Y-113458118D01*
X171716434Y-113448642D01*
X171703260Y-113441600D01*
X171688966Y-113437264D01*
X171674100Y-113435800D01*
X171489200Y-113435800D01*
X171488955Y-113435669D01*
X171445863Y-113422598D01*
X171401050Y-113418184D01*
X170402830Y-113418184D01*
X170358017Y-113422598D01*
X170314925Y-113435669D01*
X170314680Y-113435800D01*
X166797300Y-113435800D01*
X166797300Y-111014250D01*
X170019872Y-111014250D01*
X170052944Y-111194446D01*
X170120387Y-111364787D01*
X170219631Y-111518784D01*
X170346897Y-111650571D01*
X170497336Y-111755129D01*
X170665220Y-111828476D01*
X170844152Y-111867817D01*
X171027318Y-111871653D01*
X171207740Y-111839840D01*
X171378548Y-111773588D01*
X171533234Y-111675421D01*
X171665906Y-111549079D01*
X171771512Y-111399373D01*
X171846029Y-111232006D01*
X171886618Y-111053353D01*
X171889540Y-110844097D01*
X171853955Y-110664380D01*
X171784141Y-110494998D01*
X171682756Y-110342401D01*
X171553663Y-110212404D01*
X171401778Y-110109956D01*
X171232887Y-110038961D01*
X171053423Y-110002122D01*
X170870221Y-110000843D01*
X170690260Y-110035173D01*
X170520395Y-110103803D01*
X170367094Y-110204120D01*
X170236199Y-110332302D01*
X170132693Y-110483468D01*
X170060521Y-110651859D01*
X170022430Y-110831062D01*
X170019872Y-111014250D01*
X166797300Y-111014250D01*
X166797300Y-110097068D01*
X168233854Y-110097068D01*
X168259616Y-110237435D01*
X168312151Y-110370124D01*
X168389459Y-110490083D01*
X168488595Y-110592740D01*
X168605782Y-110674188D01*
X168736557Y-110731322D01*
X168875939Y-110761967D01*
X169018619Y-110764956D01*
X169159163Y-110740174D01*
X169292216Y-110688566D01*
X169412711Y-110612098D01*
X169516058Y-110513681D01*
X169598322Y-110397066D01*
X169656368Y-110266692D01*
X169687985Y-110127528D01*
X169690261Y-109964524D01*
X169662542Y-109824531D01*
X169608159Y-109692588D01*
X169529183Y-109573721D01*
X169505149Y-109549518D01*
X171454283Y-109549518D01*
X171473615Y-109654854D01*
X171513040Y-109754429D01*
X171571054Y-109844450D01*
X171645449Y-109921488D01*
X171733391Y-109982609D01*
X171831529Y-110025485D01*
X171936127Y-110048482D01*
X172043199Y-110050725D01*
X172148668Y-110032128D01*
X172248515Y-109993399D01*
X172338939Y-109936015D01*
X172416495Y-109862159D01*
X172478228Y-109774647D01*
X172521788Y-109676810D01*
X172545515Y-109572376D01*
X172547223Y-109450052D01*
X172526421Y-109344996D01*
X172485610Y-109245981D01*
X172426345Y-109156779D01*
X172350881Y-109080787D01*
X172262095Y-109020900D01*
X172163367Y-108979399D01*
X172058459Y-108957864D01*
X171951366Y-108957116D01*
X171846167Y-108977184D01*
X171746870Y-109017303D01*
X171657256Y-109075945D01*
X171580739Y-109150875D01*
X171520234Y-109239242D01*
X171478044Y-109337677D01*
X171455778Y-109442432D01*
X171454283Y-109549518D01*
X169505149Y-109549518D01*
X169428624Y-109472457D01*
X169310311Y-109392654D01*
X169178751Y-109337351D01*
X169038954Y-109308655D01*
X168896247Y-109307658D01*
X168756063Y-109334400D01*
X168623744Y-109387860D01*
X168504328Y-109466004D01*
X168402365Y-109565854D01*
X168321737Y-109683607D01*
X168265517Y-109814778D01*
X168235846Y-109954370D01*
X168233854Y-110097068D01*
X166797300Y-110097068D01*
X166797300Y-108424518D01*
X169954283Y-108424518D01*
X169973615Y-108529854D01*
X170013040Y-108629429D01*
X170071054Y-108719450D01*
X170145449Y-108796488D01*
X170233391Y-108857609D01*
X170331529Y-108900485D01*
X170436127Y-108923482D01*
X170543199Y-108925725D01*
X170648668Y-108907128D01*
X170748515Y-108868399D01*
X170838939Y-108811015D01*
X170916495Y-108737159D01*
X170978228Y-108649647D01*
X171021788Y-108551810D01*
X171045515Y-108447376D01*
X171047223Y-108325052D01*
X171026421Y-108219996D01*
X170985610Y-108120981D01*
X170926345Y-108031779D01*
X170850881Y-107955787D01*
X170762095Y-107895900D01*
X170663367Y-107854399D01*
X170558459Y-107832864D01*
X170451366Y-107832116D01*
X170346167Y-107852184D01*
X170246870Y-107892303D01*
X170157256Y-107950945D01*
X170080739Y-108025875D01*
X170020234Y-108114242D01*
X169978044Y-108212677D01*
X169955778Y-108317432D01*
X169954283Y-108424518D01*
X166797300Y-108424518D01*
X166797300Y-107299518D01*
X171454283Y-107299518D01*
X171473615Y-107404854D01*
X171513040Y-107504429D01*
X171571054Y-107594450D01*
X171645449Y-107671488D01*
X171733391Y-107732609D01*
X171831529Y-107775485D01*
X171936127Y-107798482D01*
X172043199Y-107800725D01*
X172148668Y-107782128D01*
X172248515Y-107743399D01*
X172338939Y-107686015D01*
X172416495Y-107612159D01*
X172478228Y-107524647D01*
X172521788Y-107426810D01*
X172545515Y-107322376D01*
X172547223Y-107200052D01*
X172526421Y-107094996D01*
X172485610Y-106995981D01*
X172426345Y-106906779D01*
X172350881Y-106830787D01*
X172262095Y-106770900D01*
X172163367Y-106729399D01*
X172058459Y-106707864D01*
X171951366Y-106707116D01*
X171846167Y-106727184D01*
X171746870Y-106767303D01*
X171657256Y-106825945D01*
X171580739Y-106900875D01*
X171520234Y-106989242D01*
X171478044Y-107087677D01*
X171455778Y-107192432D01*
X171454283Y-107299518D01*
X166797300Y-107299518D01*
X166797300Y-106174518D01*
X169954283Y-106174518D01*
X169973615Y-106279854D01*
X170013040Y-106379429D01*
X170071054Y-106469450D01*
X170145449Y-106546488D01*
X170233391Y-106607609D01*
X170331529Y-106650485D01*
X170436127Y-106673482D01*
X170543199Y-106675725D01*
X170648668Y-106657128D01*
X170748515Y-106618399D01*
X170838939Y-106561015D01*
X170916495Y-106487159D01*
X170978228Y-106399647D01*
X171021788Y-106301810D01*
X171045515Y-106197376D01*
X171047223Y-106075052D01*
X171026421Y-105969996D01*
X170985610Y-105870981D01*
X170926345Y-105781779D01*
X170850881Y-105705787D01*
X170762095Y-105645900D01*
X170663367Y-105604399D01*
X170558459Y-105582864D01*
X170451366Y-105582116D01*
X170346167Y-105602184D01*
X170246870Y-105642303D01*
X170157256Y-105700945D01*
X170080739Y-105775875D01*
X170020234Y-105864242D01*
X169978044Y-105962677D01*
X169955778Y-106067432D01*
X169954283Y-106174518D01*
X166797300Y-106174518D01*
X166797300Y-105847364D01*
X167565472Y-105079192D01*
X167574166Y-105078336D01*
X167588460Y-105074000D01*
X167601634Y-105066958D01*
X167613182Y-105057482D01*
X167619717Y-105049518D01*
X171454283Y-105049518D01*
X171473615Y-105154854D01*
X171513040Y-105254429D01*
X171571054Y-105344450D01*
X171645449Y-105421488D01*
X171733391Y-105482609D01*
X171831529Y-105525485D01*
X171936127Y-105548482D01*
X172043199Y-105550725D01*
X172148668Y-105532128D01*
X172248515Y-105493399D01*
X172338939Y-105436015D01*
X172416495Y-105362159D01*
X172478228Y-105274647D01*
X172521788Y-105176810D01*
X172545515Y-105072376D01*
X172547223Y-104950052D01*
X172526421Y-104844996D01*
X172485610Y-104745981D01*
X172426345Y-104656779D01*
X172350881Y-104580787D01*
X172262095Y-104520900D01*
X172163367Y-104479399D01*
X172058459Y-104457864D01*
X171951366Y-104457116D01*
X171846167Y-104477184D01*
X171746870Y-104517303D01*
X171657256Y-104575945D01*
X171580739Y-104650875D01*
X171520234Y-104739242D01*
X171478044Y-104837677D01*
X171455778Y-104942432D01*
X171454283Y-105049518D01*
X167619717Y-105049518D01*
X167622658Y-105045934D01*
X167629700Y-105032760D01*
X167634036Y-105018466D01*
X167635500Y-105003600D01*
X167635500Y-103924518D01*
X169954283Y-103924518D01*
X169973615Y-104029854D01*
X170013040Y-104129429D01*
X170071054Y-104219450D01*
X170145449Y-104296488D01*
X170233391Y-104357609D01*
X170331529Y-104400485D01*
X170436127Y-104423482D01*
X170543199Y-104425725D01*
X170648668Y-104407128D01*
X170748515Y-104368399D01*
X170838939Y-104311015D01*
X170916495Y-104237159D01*
X170978228Y-104149647D01*
X171021788Y-104051810D01*
X171045515Y-103947376D01*
X171047223Y-103825052D01*
X171026421Y-103719996D01*
X170985610Y-103620981D01*
X170926345Y-103531779D01*
X170850881Y-103455787D01*
X170762095Y-103395900D01*
X170663367Y-103354399D01*
X170558459Y-103332864D01*
X170451366Y-103332116D01*
X170346167Y-103352184D01*
X170246870Y-103392303D01*
X170157256Y-103450945D01*
X170080739Y-103525875D01*
X170020234Y-103614242D01*
X169978044Y-103712677D01*
X169955778Y-103817432D01*
X169954283Y-103924518D01*
X167635500Y-103924518D01*
X167635500Y-102799518D01*
X171454283Y-102799518D01*
X171473615Y-102904854D01*
X171513040Y-103004429D01*
X171571054Y-103094450D01*
X171645449Y-103171488D01*
X171733391Y-103232609D01*
X171831529Y-103275485D01*
X171936127Y-103298482D01*
X172043199Y-103300725D01*
X172148668Y-103282128D01*
X172248515Y-103243399D01*
X172338939Y-103186015D01*
X172416495Y-103112159D01*
X172478228Y-103024647D01*
X172521788Y-102926810D01*
X172545515Y-102822376D01*
X172547223Y-102700052D01*
X172526421Y-102594996D01*
X172485610Y-102495981D01*
X172426345Y-102406779D01*
X172350881Y-102330787D01*
X172262095Y-102270900D01*
X172163367Y-102229399D01*
X172058459Y-102207864D01*
X171951366Y-102207116D01*
X171846167Y-102227184D01*
X171746870Y-102267303D01*
X171657256Y-102325945D01*
X171580739Y-102400875D01*
X171520234Y-102489242D01*
X171478044Y-102587677D01*
X171455778Y-102692432D01*
X171454283Y-102799518D01*
X167635500Y-102799518D01*
X167635500Y-102101148D01*
X168233854Y-102101148D01*
X168259616Y-102241515D01*
X168312151Y-102374204D01*
X168389459Y-102494163D01*
X168488595Y-102596820D01*
X168605782Y-102678268D01*
X168736557Y-102735402D01*
X168875939Y-102766047D01*
X169018619Y-102769036D01*
X169159163Y-102744254D01*
X169292216Y-102692646D01*
X169412711Y-102616178D01*
X169516058Y-102517761D01*
X169598322Y-102401146D01*
X169656368Y-102270772D01*
X169687985Y-102131608D01*
X169690261Y-101968604D01*
X169662542Y-101828611D01*
X169608159Y-101696668D01*
X169529183Y-101577801D01*
X169428624Y-101476537D01*
X169310311Y-101396734D01*
X169178751Y-101341431D01*
X169038954Y-101312735D01*
X168896247Y-101311738D01*
X168756063Y-101338480D01*
X168623744Y-101391940D01*
X168504328Y-101470084D01*
X168402365Y-101569934D01*
X168321737Y-101687687D01*
X168265517Y-101818858D01*
X168235846Y-101958450D01*
X168233854Y-102101148D01*
X167635500Y-102101148D01*
X167635500Y-96627164D01*
X168105314Y-96157350D01*
X170764672Y-96157350D01*
X170797744Y-96337546D01*
X170865187Y-96507887D01*
X170964431Y-96661884D01*
X171091697Y-96793671D01*
X171242136Y-96898229D01*
X171410020Y-96971576D01*
X171588952Y-97010917D01*
X171772118Y-97014753D01*
X171952540Y-96982940D01*
X172123348Y-96916688D01*
X172278034Y-96818521D01*
X172410706Y-96692179D01*
X172516312Y-96542473D01*
X172590829Y-96375106D01*
X172631418Y-96196453D01*
X172634340Y-95987197D01*
X172598755Y-95807480D01*
X172528941Y-95638098D01*
X172427556Y-95485501D01*
X172298463Y-95355504D01*
X172146578Y-95253056D01*
X171977687Y-95182061D01*
X171798223Y-95145222D01*
X171615021Y-95143943D01*
X171435060Y-95178273D01*
X171265195Y-95246903D01*
X171111894Y-95347220D01*
X170980999Y-95475402D01*
X170877493Y-95626568D01*
X170805321Y-95794959D01*
X170767230Y-95974162D01*
X170764672Y-96157350D01*
X168105314Y-96157350D01*
X168505264Y-95757400D01*
X169388100Y-95757400D01*
X169402966Y-95755936D01*
X169417260Y-95751600D01*
X169430434Y-95744558D01*
X169441982Y-95735082D01*
X171118382Y-94058682D01*
X171127858Y-94047134D01*
X171134900Y-94033960D01*
X171139236Y-94019666D01*
X171140700Y-94004800D01*
X171140700Y-90652000D01*
X171139236Y-90637134D01*
X171134900Y-90622840D01*
X171127858Y-90609666D01*
X171118382Y-90598118D01*
X170584982Y-90064718D01*
X170573434Y-90055242D01*
X170560260Y-90048200D01*
X170545966Y-90043864D01*
X170531100Y-90042400D01*
X170014638Y-90042400D01*
X170000885Y-90042304D01*
X170000382Y-90042400D01*
X169530952Y-90042400D01*
X169239226Y-89750674D01*
X169217475Y-89732807D01*
X169195902Y-89714705D01*
X169194496Y-89713932D01*
X169193259Y-89712916D01*
X169168400Y-89699586D01*
X169143773Y-89686048D01*
X169142253Y-89685566D01*
X169140834Y-89684805D01*
X169113821Y-89676547D01*
X169087071Y-89668061D01*
X169085481Y-89667883D01*
X169083945Y-89667413D01*
X169055901Y-89664565D01*
X169027956Y-89661430D01*
X169024821Y-89661408D01*
X169024763Y-89661402D01*
X169024709Y-89661407D01*
X169023700Y-89661400D01*
X159482100Y-89661400D01*
X159454084Y-89664147D01*
X159426032Y-89666601D01*
X159424491Y-89667049D01*
X159422897Y-89667205D01*
X159395920Y-89675350D01*
X159368907Y-89683198D01*
X159367487Y-89683934D01*
X159365950Y-89684398D01*
X159341044Y-89697641D01*
X159316094Y-89710574D01*
X159314843Y-89711572D01*
X159313426Y-89712326D01*
X159291583Y-89730141D01*
X159269605Y-89747685D01*
X159267376Y-89749883D01*
X159267327Y-89749923D01*
X159267289Y-89749969D01*
X159266574Y-89750674D01*
X158974848Y-90042400D01*
X157314638Y-90042400D01*
X157300885Y-90042304D01*
X157300382Y-90042400D01*
X154774638Y-90042400D01*
X154760885Y-90042304D01*
X154760382Y-90042400D01*
X152234638Y-90042400D01*
X152220885Y-90042304D01*
X152220382Y-90042400D01*
X149694638Y-90042400D01*
X149680885Y-90042304D01*
X149680382Y-90042400D01*
X147154638Y-90042400D01*
X147140885Y-90042304D01*
X147140382Y-90042400D01*
X144614638Y-90042400D01*
X144600885Y-90042304D01*
X144600382Y-90042400D01*
X143219190Y-90042400D01*
X142752745Y-89575955D01*
X142678581Y-89526401D01*
X142591100Y-89509000D01*
X141702100Y-89509000D01*
X141614619Y-89526401D01*
X141540455Y-89575955D01*
X141074010Y-90042400D01*
X139534638Y-90042400D01*
X139520885Y-90042304D01*
X139520382Y-90042400D01*
X136994638Y-90042400D01*
X136980885Y-90042304D01*
X136980382Y-90042400D01*
X134454638Y-90042400D01*
X134440885Y-90042304D01*
X134440382Y-90042400D01*
X131914638Y-90042400D01*
X131900885Y-90042304D01*
X131900382Y-90042400D01*
X129374638Y-90042400D01*
X129360885Y-90042304D01*
X129360382Y-90042400D01*
X126834638Y-90042400D01*
X126820885Y-90042304D01*
X126820382Y-90042400D01*
X126487500Y-90042400D01*
X126472634Y-90043864D01*
X126458340Y-90048200D01*
X126445166Y-90055242D01*
X126433618Y-90064718D01*
X125824018Y-90674318D01*
X125814542Y-90685866D01*
X125807500Y-90699040D01*
X125803164Y-90713334D01*
X125801700Y-90728200D01*
X125801700Y-94443114D01*
X125738900Y-94443114D01*
X125738900Y-94424600D01*
X125736153Y-94396588D01*
X125733699Y-94368531D01*
X125733251Y-94366990D01*
X125733095Y-94365397D01*
X125724954Y-94338432D01*
X125717102Y-94311407D01*
X125716366Y-94309987D01*
X125715902Y-94308450D01*
X125702659Y-94283544D01*
X125689726Y-94258594D01*
X125688728Y-94257343D01*
X125687974Y-94255926D01*
X125670154Y-94234077D01*
X125652614Y-94212104D01*
X125650417Y-94209876D01*
X125650377Y-94209827D01*
X125650331Y-94209789D01*
X125649626Y-94209074D01*
X125504439Y-94063887D01*
X125518765Y-94059541D01*
X125558478Y-94038314D01*
X125593287Y-94009747D01*
X125621854Y-93974938D01*
X125643081Y-93935225D01*
X125656152Y-93892133D01*
X125660566Y-93847320D01*
X125660566Y-93247880D01*
X125656152Y-93203067D01*
X125643081Y-93159975D01*
X125621854Y-93120262D01*
X125593287Y-93085453D01*
X125558478Y-93056886D01*
X125518765Y-93035659D01*
X125475673Y-93022588D01*
X125430860Y-93018174D01*
X124933020Y-93018174D01*
X124888207Y-93022588D01*
X124845115Y-93035659D01*
X124805402Y-93056886D01*
X124770593Y-93085453D01*
X124742026Y-93120262D01*
X124720799Y-93159975D01*
X124707728Y-93203067D01*
X124703314Y-93247880D01*
X124703314Y-93635762D01*
X124664886Y-93597334D01*
X124664886Y-93247880D01*
X124660472Y-93203067D01*
X124647401Y-93159975D01*
X124626174Y-93120262D01*
X124597607Y-93085453D01*
X124562798Y-93056886D01*
X124523085Y-93035659D01*
X124479993Y-93022588D01*
X124435180Y-93018174D01*
X123937340Y-93018174D01*
X123892527Y-93022588D01*
X123849435Y-93035659D01*
X123809722Y-93056886D01*
X123774913Y-93085453D01*
X123746346Y-93120262D01*
X123725119Y-93159975D01*
X123712048Y-93203067D01*
X123707634Y-93247880D01*
X123707634Y-93847320D01*
X123712048Y-93892133D01*
X123725119Y-93935225D01*
X123746346Y-93974938D01*
X123774913Y-94009747D01*
X123809722Y-94038314D01*
X123849435Y-94059541D01*
X123892527Y-94072612D01*
X123937340Y-94077026D01*
X124282474Y-94077026D01*
X124379300Y-94173852D01*
X124379300Y-94447803D01*
X124378393Y-94447528D01*
X124333580Y-94443114D01*
X123536020Y-94443114D01*
X123491207Y-94447528D01*
X123448115Y-94460599D01*
X123408402Y-94481826D01*
X123373593Y-94510393D01*
X123345026Y-94545202D01*
X123323799Y-94584915D01*
X123310728Y-94628007D01*
X123306314Y-94672820D01*
X123306314Y-95268334D01*
X123071574Y-95503074D01*
X123053707Y-95524825D01*
X123035605Y-95546398D01*
X123034832Y-95547804D01*
X123033816Y-95549041D01*
X123020486Y-95573900D01*
X123006948Y-95598527D01*
X123006466Y-95600047D01*
X123005705Y-95601466D01*
X122997447Y-95628479D01*
X122988961Y-95655229D01*
X122988783Y-95656819D01*
X122988313Y-95658355D01*
X122985465Y-95686399D01*
X122982330Y-95714344D01*
X122982308Y-95717479D01*
X122982302Y-95717537D01*
X122982307Y-95717591D01*
X122982300Y-95718600D01*
X122982300Y-96142395D01*
X122943256Y-96167945D01*
X122866739Y-96242875D01*
X122806234Y-96331242D01*
X122764044Y-96429677D01*
X122741778Y-96534432D01*
X122740283Y-96641518D01*
X121390683Y-96641518D01*
X121490794Y-95620507D01*
X122037677Y-93809146D01*
X122925977Y-92138498D01*
X124121850Y-90672212D01*
X125579757Y-89466126D01*
X127244156Y-88566189D01*
X129051663Y-88006673D01*
X130947729Y-87807388D01*
X131001589Y-87807200D01*
X165986252Y-87807200D01*
X167884193Y-87993294D01*
G36*
X143403900Y-90658164D02*
X143403900Y-91987320D01*
X143400810Y-92014864D01*
X143400788Y-92017999D01*
X143400782Y-92018057D01*
X143400787Y-92018111D01*
X143400780Y-92019120D01*
X143400780Y-94077880D01*
X143403527Y-94105892D01*
X143403900Y-94110157D01*
X143403900Y-94436600D01*
X143405364Y-94451466D01*
X143409700Y-94465760D01*
X143416742Y-94478934D01*
X143426218Y-94490482D01*
X143784900Y-94849164D01*
X143784900Y-98043400D01*
X143257664Y-98043400D01*
X143048300Y-97834036D01*
X143048300Y-95611164D01*
X143279982Y-95379482D01*
X143289458Y-95367934D01*
X143296500Y-95354760D01*
X143300836Y-95340466D01*
X143302300Y-95325600D01*
X143302300Y-92912600D01*
X143300836Y-92897734D01*
X143296500Y-92883440D01*
X143289458Y-92870266D01*
X143279982Y-92858718D01*
X142644982Y-92223718D01*
X142633434Y-92214242D01*
X142620260Y-92207200D01*
X142605966Y-92202864D01*
X142591100Y-92201400D01*
X141606664Y-92201400D01*
X141016300Y-91611036D01*
X141016300Y-90531164D01*
X141733664Y-89813800D01*
X142559536Y-89813800D01*
X143403900Y-90658164D01*
X143403900Y-90658164D01*
G37*
X143403900Y-90658164D02*
X143403900Y-91987320D01*
X143400810Y-92014864D01*
X143400788Y-92017999D01*
X143400782Y-92018057D01*
X143400787Y-92018111D01*
X143400780Y-92019120D01*
X143400780Y-94077880D01*
X143403527Y-94105892D01*
X143403900Y-94110157D01*
X143403900Y-94436600D01*
X143405364Y-94451466D01*
X143409700Y-94465760D01*
X143416742Y-94478934D01*
X143426218Y-94490482D01*
X143784900Y-94849164D01*
X143784900Y-98043400D01*
X143257664Y-98043400D01*
X143048300Y-97834036D01*
X143048300Y-95611164D01*
X143279982Y-95379482D01*
X143289458Y-95367934D01*
X143296500Y-95354760D01*
X143300836Y-95340466D01*
X143302300Y-95325600D01*
X143302300Y-92912600D01*
X143300836Y-92897734D01*
X143296500Y-92883440D01*
X143289458Y-92870266D01*
X143279982Y-92858718D01*
X142644982Y-92223718D01*
X142633434Y-92214242D01*
X142620260Y-92207200D01*
X142605966Y-92202864D01*
X142591100Y-92201400D01*
X141606664Y-92201400D01*
X141016300Y-91611036D01*
X141016300Y-90531164D01*
X141733664Y-89813800D01*
X142559536Y-89813800D01*
X143403900Y-90658164D01*
G36*
X127020900Y-103930036D02*
X126938536Y-104012400D01*
X126112664Y-104012400D01*
X125880982Y-103780718D01*
X125869434Y-103771242D01*
X125856260Y-103764200D01*
X125841966Y-103759864D01*
X125827065Y-103758400D01*
X124581920Y-103758965D01*
X124581920Y-103657368D01*
X125954132Y-103656800D01*
X125968997Y-103655330D01*
X125983290Y-103650988D01*
X125996461Y-103643940D01*
X126007982Y-103634482D01*
X126134982Y-103507482D01*
X126144458Y-103495934D01*
X126151500Y-103482760D01*
X126155836Y-103468466D01*
X126157300Y-103453600D01*
X126157300Y-102850164D01*
X126239664Y-102767800D01*
X127020900Y-102767800D01*
X127020900Y-103930036D01*
X127020900Y-103930036D01*
G37*
X127020900Y-103930036D02*
X126938536Y-104012400D01*
X126112664Y-104012400D01*
X125880982Y-103780718D01*
X125869434Y-103771242D01*
X125856260Y-103764200D01*
X125841966Y-103759864D01*
X125827065Y-103758400D01*
X124581920Y-103758965D01*
X124581920Y-103657368D01*
X125954132Y-103656800D01*
X125968997Y-103655330D01*
X125983290Y-103650988D01*
X125996461Y-103643940D01*
X126007982Y-103634482D01*
X126134982Y-103507482D01*
X126144458Y-103495934D01*
X126151500Y-103482760D01*
X126155836Y-103468466D01*
X126157300Y-103453600D01*
X126157300Y-102850164D01*
X126239664Y-102767800D01*
X127020900Y-102767800D01*
X127020900Y-103930036D01*
M02*
