G04 #@! TF.GenerationSoftware,KiCad,Pcbnew,(2017-08-02 revision 9760937)-master*
G04 #@! TF.CreationDate,2017-08-15T11:40:40-05:00*
G04 #@! TF.ProjectId,PocketBeagle,506F636B6574426561676C652E6B6963,rev?*
G04 #@! TF.SameCoordinates,Original*
G04 #@! TF.FileFunction,Legend,Bot*
G04 #@! TF.FilePolarity,Positive*
%FSLAX46Y46*%
G04 Gerber Fmt 4.6, Leading zero omitted, Abs format (unit mm)*
G04 Created by KiCad (PCBNEW (2017-08-02 revision 9760937)-master) date Tue Aug 15 11:40:40 2017*
%MOMM*%
%LPD*%
G01*
G04 APERTURE LIST*
%ADD10C,0.200000*%
%ADD11C,0.150000*%
%ADD12C,0.121920*%
%ADD13C,0.097536*%
%ADD14C,0.152400*%
%ADD15C,0.137160*%
%ADD16C,0.198120*%
%ADD17C,0.100000*%
%ADD18C,0.127000*%
G04 APERTURE END LIST*
D10*
X137309860Y-108699300D02*
X136822180Y-108211620D01*
X135153400Y-108211620D02*
X136822180Y-108211620D01*
X146870420Y-108231940D02*
X146403060Y-108699300D01*
X148701760Y-108231940D02*
X146870420Y-108231940D01*
D11*
X145969300Y-117703000D02*
X143429300Y-117703000D01*
X143429300Y-117703000D02*
X140889300Y-117703000D01*
X140889300Y-117703000D02*
X130729300Y-117703000D01*
X130729300Y-117703000D02*
X128189300Y-117703000D01*
X148509300Y-117703000D02*
X148509300Y-110337000D01*
X148509300Y-117703000D02*
X151049300Y-117703000D01*
X151049300Y-117703000D02*
X153589300Y-117703000D01*
X153589300Y-117703000D02*
X156129300Y-117703000D01*
X156129300Y-117703000D02*
X161209300Y-117703000D01*
X161209300Y-117703000D02*
X166289300Y-117703000D01*
X166289300Y-117703000D02*
X168829300Y-117703000D01*
X145969300Y-92303000D02*
X143429300Y-92303000D01*
X143429300Y-92303000D02*
X140889300Y-92303000D01*
X140889300Y-92303000D02*
X135809300Y-92303000D01*
X135809300Y-92303000D02*
X130729300Y-92303000D01*
X145969300Y-92303000D02*
X148509300Y-92303000D01*
X148509300Y-92303000D02*
X151049300Y-92303000D01*
X151049300Y-92303000D02*
X153589300Y-92303000D01*
X153589300Y-92303000D02*
X156129300Y-92303000D01*
X156129300Y-92303000D02*
X158669300Y-92303000D01*
X158669300Y-92303000D02*
X166289300Y-92303000D01*
X166289300Y-92303000D02*
X168829300Y-92303000D01*
X128189300Y-117703000D02*
X128189300Y-121995600D01*
X145969300Y-117703000D02*
X145969300Y-122376600D01*
X161209300Y-117703000D02*
X161209300Y-122376600D01*
X168829300Y-117703000D02*
X168829300Y-121995600D01*
X166289300Y-117703000D02*
X166289300Y-110337000D01*
X161209300Y-117703000D02*
X161209300Y-110337000D01*
X156129300Y-117703000D02*
X156129300Y-110337000D01*
X145969300Y-117703000D02*
X145969300Y-110337000D01*
X130729300Y-117703000D02*
X130729300Y-110337000D01*
X130729300Y-92303000D02*
X130729300Y-99669000D01*
X135809300Y-92303000D02*
X135809300Y-99669000D01*
X140889300Y-92303000D02*
X140889300Y-99669000D01*
X145969300Y-92303000D02*
X145969300Y-99669000D01*
X140889300Y-92303000D02*
X140889300Y-87604000D01*
X145969300Y-92303000D02*
X145969300Y-87604000D01*
X168829300Y-92303000D02*
X168829300Y-88112000D01*
X158669300Y-92303000D02*
X158669300Y-87604000D01*
X156129300Y-92303000D02*
X156129300Y-99669000D01*
X166289300Y-92303000D02*
X166289300Y-99669000D01*
X151049300Y-117703000D02*
X151049300Y-110337000D01*
X151049300Y-92303000D02*
X151049300Y-99669000D01*
D12*
X156988666Y-121927866D02*
X156529047Y-121927866D01*
X157080590Y-122203638D02*
X156758857Y-121238438D01*
X156437123Y-122203638D01*
X156115390Y-122203638D02*
X156115390Y-121238438D01*
X155655771Y-122203638D02*
X155655771Y-121238438D01*
X155104228Y-122203638D01*
X155104228Y-121238438D01*
X153633447Y-122571333D02*
X153679409Y-122525371D01*
X153771333Y-122387485D01*
X153817295Y-122295561D01*
X153863257Y-122157676D01*
X153909219Y-121927866D01*
X153909219Y-121744019D01*
X153863257Y-121514209D01*
X153817295Y-121376323D01*
X153771333Y-121284400D01*
X153679409Y-121146514D01*
X153633447Y-121100552D01*
X152760171Y-122203638D02*
X153311714Y-122203638D01*
X153035942Y-122203638D02*
X153035942Y-121238438D01*
X153127866Y-121376323D01*
X153219790Y-121468247D01*
X153311714Y-121514209D01*
X152346514Y-122111714D02*
X152300552Y-122157676D01*
X152346514Y-122203638D01*
X152392476Y-122157676D01*
X152346514Y-122111714D01*
X152346514Y-122203638D01*
X151749009Y-121652095D02*
X151840933Y-121606133D01*
X151886895Y-121560171D01*
X151932857Y-121468247D01*
X151932857Y-121422285D01*
X151886895Y-121330361D01*
X151840933Y-121284400D01*
X151749009Y-121238438D01*
X151565161Y-121238438D01*
X151473238Y-121284400D01*
X151427276Y-121330361D01*
X151381314Y-121422285D01*
X151381314Y-121468247D01*
X151427276Y-121560171D01*
X151473238Y-121606133D01*
X151565161Y-121652095D01*
X151749009Y-121652095D01*
X151840933Y-121698057D01*
X151886895Y-121744019D01*
X151932857Y-121835942D01*
X151932857Y-122019790D01*
X151886895Y-122111714D01*
X151840933Y-122157676D01*
X151749009Y-122203638D01*
X151565161Y-122203638D01*
X151473238Y-122157676D01*
X151427276Y-122111714D01*
X151381314Y-122019790D01*
X151381314Y-121835942D01*
X151427276Y-121744019D01*
X151473238Y-121698057D01*
X151565161Y-121652095D01*
X151105542Y-121238438D02*
X150783809Y-122203638D01*
X150462076Y-121238438D01*
X150232266Y-122571333D02*
X150186304Y-122525371D01*
X150094380Y-122387485D01*
X150048419Y-122295561D01*
X150002457Y-122157676D01*
X149956495Y-121927866D01*
X149956495Y-121744019D01*
X150002457Y-121514209D01*
X150048419Y-121376323D01*
X150094380Y-121284400D01*
X150186304Y-121146514D01*
X150232266Y-121100552D01*
D13*
X157735910Y-88647920D02*
X157368215Y-88390533D01*
X157735910Y-88206686D02*
X156963750Y-88206686D01*
X156963750Y-88500842D01*
X157000520Y-88574381D01*
X157037289Y-88611151D01*
X157110828Y-88647920D01*
X157221137Y-88647920D01*
X157294676Y-88611151D01*
X157331445Y-88574381D01*
X157368215Y-88500842D01*
X157368215Y-88206686D01*
X157699140Y-88942076D02*
X157735910Y-89052385D01*
X157735910Y-89236233D01*
X157699140Y-89309772D01*
X157662371Y-89346541D01*
X157588832Y-89383311D01*
X157515293Y-89383311D01*
X157441754Y-89346541D01*
X157404984Y-89309772D01*
X157368215Y-89236233D01*
X157331445Y-89089154D01*
X157294676Y-89015615D01*
X157257906Y-88978846D01*
X157184367Y-88942076D01*
X157110828Y-88942076D01*
X157037289Y-88978846D01*
X157000520Y-89015615D01*
X156963750Y-89089154D01*
X156963750Y-89273002D01*
X157000520Y-89383311D01*
X156963750Y-89603928D02*
X156963750Y-90045162D01*
X157735910Y-89824545D02*
X156963750Y-89824545D01*
D14*
X147427683Y-113121444D02*
X147427683Y-113695968D01*
X147772397Y-113006540D02*
X146565897Y-113408706D01*
X147772397Y-113810873D01*
X147312778Y-114213040D02*
X147312778Y-115132278D01*
X147772397Y-114672659D02*
X146853159Y-114672659D01*
X149220802Y-113351254D02*
X149163350Y-113408706D01*
X149105897Y-113523611D01*
X149105897Y-113810873D01*
X149163350Y-113925778D01*
X149220802Y-113983230D01*
X149335707Y-114040682D01*
X149450611Y-114040682D01*
X149622969Y-113983230D01*
X150312397Y-113293801D01*
X150312397Y-114040682D01*
X149105897Y-114787563D02*
X149105897Y-114902468D01*
X149163350Y-115017373D01*
X149220802Y-115074825D01*
X149335707Y-115132278D01*
X149565516Y-115189730D01*
X149852778Y-115189730D01*
X150082588Y-115132278D01*
X150197492Y-115074825D01*
X150254945Y-115017373D01*
X150312397Y-114902468D01*
X150312397Y-114787563D01*
X150254945Y-114672659D01*
X150197492Y-114615206D01*
X150082588Y-114557754D01*
X149852778Y-114500301D01*
X149565516Y-114500301D01*
X149335707Y-114557754D01*
X149220802Y-114615206D01*
X149163350Y-114672659D01*
X149105897Y-114787563D01*
X151703350Y-112661825D02*
X151645897Y-112546920D01*
X151645897Y-112374563D01*
X151703350Y-112202206D01*
X151818254Y-112087301D01*
X151933159Y-112029849D01*
X152162969Y-111972397D01*
X152335326Y-111972397D01*
X152565135Y-112029849D01*
X152680040Y-112087301D01*
X152794945Y-112202206D01*
X152852397Y-112374563D01*
X152852397Y-112489468D01*
X152794945Y-112661825D01*
X152737492Y-112719278D01*
X152335326Y-112719278D01*
X152335326Y-112489468D01*
X152852397Y-113236349D02*
X151645897Y-113236349D01*
X152852397Y-113925778D01*
X151645897Y-113925778D01*
X152852397Y-114500301D02*
X151645897Y-114500301D01*
X151645897Y-114787563D01*
X151703350Y-114959920D01*
X151818254Y-115074825D01*
X151933159Y-115132278D01*
X152162969Y-115189730D01*
X152335326Y-115189730D01*
X152565135Y-115132278D01*
X152680040Y-115074825D01*
X152794945Y-114959920D01*
X152852397Y-114787563D01*
X152852397Y-114500301D01*
D15*
X154251967Y-111499703D02*
X155337817Y-111861653D01*
X154251967Y-112223603D01*
X154251967Y-112792381D02*
X154251967Y-112999210D01*
X154303675Y-113102624D01*
X154407089Y-113206038D01*
X154613917Y-113257746D01*
X154975867Y-113257746D01*
X155182696Y-113206038D01*
X155286110Y-113102624D01*
X155337817Y-112999210D01*
X155337817Y-112792381D01*
X155286110Y-112688967D01*
X155182696Y-112585553D01*
X154975867Y-112533846D01*
X154613917Y-112533846D01*
X154407089Y-112585553D01*
X154303675Y-112688967D01*
X154251967Y-112792381D01*
X154251967Y-113723110D02*
X155130989Y-113723110D01*
X155234403Y-113774817D01*
X155286110Y-113826524D01*
X155337817Y-113929938D01*
X155337817Y-114136767D01*
X155286110Y-114240181D01*
X155234403Y-114291888D01*
X155130989Y-114343596D01*
X154251967Y-114343596D01*
X154251967Y-114705546D02*
X154251967Y-115326031D01*
X155337817Y-115015788D02*
X154251967Y-115015788D01*
X157826110Y-112585553D02*
X157877817Y-112740674D01*
X157877817Y-112999210D01*
X157826110Y-113102624D01*
X157774403Y-113154331D01*
X157670989Y-113206038D01*
X157567575Y-113206038D01*
X157464160Y-113154331D01*
X157412453Y-113102624D01*
X157360746Y-112999210D01*
X157309039Y-112792381D01*
X157257332Y-112688967D01*
X157205625Y-112637260D01*
X157102210Y-112585553D01*
X156998796Y-112585553D01*
X156895382Y-112637260D01*
X156843675Y-112688967D01*
X156791967Y-112792381D01*
X156791967Y-113050917D01*
X156843675Y-113206038D01*
X157877817Y-113671403D02*
X156791967Y-113671403D01*
X156791967Y-113929938D01*
X156843675Y-114085060D01*
X156947089Y-114188474D01*
X157050503Y-114240181D01*
X157257332Y-114291888D01*
X157412453Y-114291888D01*
X157619282Y-114240181D01*
X157722696Y-114188474D01*
X157826110Y-114085060D01*
X157877817Y-113929938D01*
X157877817Y-113671403D01*
X157567575Y-114705546D02*
X157567575Y-115222617D01*
X157877817Y-114602131D02*
X156791967Y-114964081D01*
X157877817Y-115326031D01*
X160366110Y-112637260D02*
X160417817Y-112792381D01*
X160417817Y-113050917D01*
X160366110Y-113154331D01*
X160314403Y-113206038D01*
X160210989Y-113257746D01*
X160107575Y-113257746D01*
X160004160Y-113206038D01*
X159952453Y-113154331D01*
X159900746Y-113050917D01*
X159849039Y-112844088D01*
X159797332Y-112740674D01*
X159745625Y-112688967D01*
X159642210Y-112637260D01*
X159538796Y-112637260D01*
X159435382Y-112688967D01*
X159383675Y-112740674D01*
X159331967Y-112844088D01*
X159331967Y-113102624D01*
X159383675Y-113257746D01*
X160314403Y-114343596D02*
X160366110Y-114291888D01*
X160417817Y-114136767D01*
X160417817Y-114033353D01*
X160366110Y-113878231D01*
X160262696Y-113774817D01*
X160159282Y-113723110D01*
X159952453Y-113671403D01*
X159797332Y-113671403D01*
X159590503Y-113723110D01*
X159487089Y-113774817D01*
X159383675Y-113878231D01*
X159331967Y-114033353D01*
X159331967Y-114136767D01*
X159383675Y-114291888D01*
X159435382Y-114343596D01*
X160417817Y-115326031D02*
X160417817Y-114808960D01*
X159331967Y-114808960D01*
D14*
X161805897Y-113466159D02*
X161805897Y-114155587D01*
X163012397Y-113810873D02*
X161805897Y-113810873D01*
X161805897Y-114442849D02*
X163012397Y-115247182D01*
X161805897Y-115247182D02*
X163012397Y-114442849D01*
X165552397Y-114040682D02*
X164977873Y-113638516D01*
X165552397Y-113351254D02*
X164345897Y-113351254D01*
X164345897Y-113810873D01*
X164403350Y-113925778D01*
X164460802Y-113983230D01*
X164575707Y-114040682D01*
X164748064Y-114040682D01*
X164862969Y-113983230D01*
X164920421Y-113925778D01*
X164977873Y-113810873D01*
X164977873Y-113351254D01*
X164345897Y-114442849D02*
X165552397Y-115247182D01*
X164345897Y-115247182D02*
X165552397Y-114442849D01*
X167000802Y-113351254D02*
X166943350Y-113408706D01*
X166885897Y-113523611D01*
X166885897Y-113810873D01*
X166943350Y-113925778D01*
X167000802Y-113983230D01*
X167115707Y-114040682D01*
X167230611Y-114040682D01*
X167402969Y-113983230D01*
X168092397Y-113293801D01*
X168092397Y-114040682D01*
X166885897Y-115074825D02*
X166885897Y-114845016D01*
X166943350Y-114730111D01*
X167000802Y-114672659D01*
X167173159Y-114557754D01*
X167402969Y-114500301D01*
X167862588Y-114500301D01*
X167977492Y-114557754D01*
X168034945Y-114615206D01*
X168092397Y-114730111D01*
X168092397Y-114959920D01*
X168034945Y-115074825D01*
X167977492Y-115132278D01*
X167862588Y-115189730D01*
X167575326Y-115189730D01*
X167460421Y-115132278D01*
X167402969Y-115074825D01*
X167345516Y-114959920D01*
X167345516Y-114730111D01*
X167402969Y-114615206D01*
X167460421Y-114557754D01*
X167575326Y-114500301D01*
X144083350Y-112661825D02*
X144025897Y-112546920D01*
X144025897Y-112374563D01*
X144083350Y-112202206D01*
X144198254Y-112087301D01*
X144313159Y-112029849D01*
X144542969Y-111972397D01*
X144715326Y-111972397D01*
X144945135Y-112029849D01*
X145060040Y-112087301D01*
X145174945Y-112202206D01*
X145232397Y-112374563D01*
X145232397Y-112489468D01*
X145174945Y-112661825D01*
X145117492Y-112719278D01*
X144715326Y-112719278D01*
X144715326Y-112489468D01*
X145232397Y-113236349D02*
X144025897Y-113236349D01*
X145232397Y-113925778D01*
X144025897Y-113925778D01*
X145232397Y-114500301D02*
X144025897Y-114500301D01*
X144025897Y-114787563D01*
X144083350Y-114959920D01*
X144198254Y-115074825D01*
X144313159Y-115132278D01*
X144542969Y-115189730D01*
X144715326Y-115189730D01*
X144945135Y-115132278D01*
X145060040Y-115074825D01*
X145174945Y-114959920D01*
X145232397Y-114787563D01*
X145232397Y-114500301D01*
D15*
X142224160Y-110827510D02*
X142224160Y-111654824D01*
X142637817Y-111241167D02*
X141810503Y-111241167D01*
X141551967Y-112068481D02*
X141551967Y-112740674D01*
X141965625Y-112378724D01*
X141965625Y-112533846D01*
X142017332Y-112637260D01*
X142069039Y-112688967D01*
X142172453Y-112740674D01*
X142430989Y-112740674D01*
X142534403Y-112688967D01*
X142586110Y-112637260D01*
X142637817Y-112533846D01*
X142637817Y-112223603D01*
X142586110Y-112120188D01*
X142534403Y-112068481D01*
X142534403Y-113206038D02*
X142586110Y-113257746D01*
X142637817Y-113206038D01*
X142586110Y-113154331D01*
X142534403Y-113206038D01*
X142637817Y-113206038D01*
X141551967Y-113619696D02*
X141551967Y-114291888D01*
X141965625Y-113929938D01*
X141965625Y-114085060D01*
X142017332Y-114188474D01*
X142069039Y-114240181D01*
X142172453Y-114291888D01*
X142430989Y-114291888D01*
X142534403Y-114240181D01*
X142586110Y-114188474D01*
X142637817Y-114085060D01*
X142637817Y-113774817D01*
X142586110Y-113671403D01*
X142534403Y-113619696D01*
X141551967Y-114602131D02*
X142637817Y-114964081D01*
X141551967Y-115326031D01*
D14*
X140152397Y-111340420D02*
X138945897Y-111340420D01*
X139807683Y-111742587D01*
X138945897Y-112144754D01*
X140152397Y-112144754D01*
X138945897Y-112949087D02*
X138945897Y-113178897D01*
X139003350Y-113293801D01*
X139118254Y-113408706D01*
X139348064Y-113466159D01*
X139750230Y-113466159D01*
X139980040Y-113408706D01*
X140094945Y-113293801D01*
X140152397Y-113178897D01*
X140152397Y-112949087D01*
X140094945Y-112834182D01*
X139980040Y-112719278D01*
X139750230Y-112661825D01*
X139348064Y-112661825D01*
X139118254Y-112719278D01*
X139003350Y-112834182D01*
X138945897Y-112949087D01*
X140094945Y-113925778D02*
X140152397Y-114098135D01*
X140152397Y-114385397D01*
X140094945Y-114500301D01*
X140037492Y-114557754D01*
X139922588Y-114615206D01*
X139807683Y-114615206D01*
X139692778Y-114557754D01*
X139635326Y-114500301D01*
X139577873Y-114385397D01*
X139520421Y-114155587D01*
X139462969Y-114040682D01*
X139405516Y-113983230D01*
X139290611Y-113925778D01*
X139175707Y-113925778D01*
X139060802Y-113983230D01*
X139003350Y-114040682D01*
X138945897Y-114155587D01*
X138945897Y-114442849D01*
X139003350Y-114615206D01*
X140152397Y-115132278D02*
X138945897Y-115132278D01*
X137612397Y-111340420D02*
X136405897Y-111340420D01*
X137267683Y-111742587D01*
X136405897Y-112144754D01*
X137612397Y-112144754D01*
X137612397Y-112719278D02*
X136405897Y-112719278D01*
X137554945Y-113236349D02*
X137612397Y-113408706D01*
X137612397Y-113695968D01*
X137554945Y-113810873D01*
X137497492Y-113868325D01*
X137382588Y-113925778D01*
X137267683Y-113925778D01*
X137152778Y-113868325D01*
X137095326Y-113810873D01*
X137037873Y-113695968D01*
X136980421Y-113466159D01*
X136922969Y-113351254D01*
X136865516Y-113293801D01*
X136750611Y-113236349D01*
X136635707Y-113236349D01*
X136520802Y-113293801D01*
X136463350Y-113351254D01*
X136405897Y-113466159D01*
X136405897Y-113753420D01*
X136463350Y-113925778D01*
X136405897Y-114672659D02*
X136405897Y-114902468D01*
X136463350Y-115017373D01*
X136578254Y-115132278D01*
X136808064Y-115189730D01*
X137210230Y-115189730D01*
X137440040Y-115132278D01*
X137554945Y-115017373D01*
X137612397Y-114902468D01*
X137612397Y-114672659D01*
X137554945Y-114557754D01*
X137440040Y-114442849D01*
X137210230Y-114385397D01*
X136808064Y-114385397D01*
X136578254Y-114442849D01*
X136463350Y-114557754D01*
X136405897Y-114672659D01*
D15*
X134914403Y-113257746D02*
X134966110Y-113206038D01*
X135017817Y-113050917D01*
X135017817Y-112947503D01*
X134966110Y-112792381D01*
X134862696Y-112688967D01*
X134759282Y-112637260D01*
X134552453Y-112585553D01*
X134397332Y-112585553D01*
X134190503Y-112637260D01*
X134087089Y-112688967D01*
X133983675Y-112792381D01*
X133931967Y-112947503D01*
X133931967Y-113050917D01*
X133983675Y-113206038D01*
X134035382Y-113257746D01*
X135017817Y-114240181D02*
X135017817Y-113723110D01*
X133931967Y-113723110D01*
X135017817Y-114602131D02*
X133931967Y-114602131D01*
X135017817Y-115222617D02*
X134397332Y-114757253D01*
X133931967Y-115222617D02*
X134552453Y-114602131D01*
D14*
X132417492Y-114040682D02*
X132474945Y-113983230D01*
X132532397Y-113810873D01*
X132532397Y-113695968D01*
X132474945Y-113523611D01*
X132360040Y-113408706D01*
X132245135Y-113351254D01*
X132015326Y-113293801D01*
X131842969Y-113293801D01*
X131613159Y-113351254D01*
X131498254Y-113408706D01*
X131383350Y-113523611D01*
X131325897Y-113695968D01*
X131325897Y-113810873D01*
X131383350Y-113983230D01*
X131440802Y-114040682D01*
X132474945Y-114500301D02*
X132532397Y-114672659D01*
X132532397Y-114959920D01*
X132474945Y-115074825D01*
X132417492Y-115132278D01*
X132302588Y-115189730D01*
X132187683Y-115189730D01*
X132072778Y-115132278D01*
X132015326Y-115074825D01*
X131957873Y-114959920D01*
X131900421Y-114730111D01*
X131842969Y-114615206D01*
X131785516Y-114557754D01*
X131670611Y-114500301D01*
X131555707Y-114500301D01*
X131440802Y-114557754D01*
X131383350Y-114615206D01*
X131325897Y-114730111D01*
X131325897Y-115017373D01*
X131383350Y-115189730D01*
X129302969Y-113581063D02*
X129245516Y-113466159D01*
X129188064Y-113408706D01*
X129073159Y-113351254D01*
X129015707Y-113351254D01*
X128900802Y-113408706D01*
X128843350Y-113466159D01*
X128785897Y-113581063D01*
X128785897Y-113810873D01*
X128843350Y-113925778D01*
X128900802Y-113983230D01*
X129015707Y-114040682D01*
X129073159Y-114040682D01*
X129188064Y-113983230D01*
X129245516Y-113925778D01*
X129302969Y-113810873D01*
X129302969Y-113581063D01*
X129360421Y-113466159D01*
X129417873Y-113408706D01*
X129532778Y-113351254D01*
X129762588Y-113351254D01*
X129877492Y-113408706D01*
X129934945Y-113466159D01*
X129992397Y-113581063D01*
X129992397Y-113810873D01*
X129934945Y-113925778D01*
X129877492Y-113983230D01*
X129762588Y-114040682D01*
X129532778Y-114040682D01*
X129417873Y-113983230D01*
X129360421Y-113925778D01*
X129302969Y-113810873D01*
X129992397Y-114615206D02*
X129992397Y-114845016D01*
X129934945Y-114959920D01*
X129877492Y-115017373D01*
X129705135Y-115132278D01*
X129475326Y-115189730D01*
X129015707Y-115189730D01*
X128900802Y-115132278D01*
X128843350Y-115074825D01*
X128785897Y-114959920D01*
X128785897Y-114730111D01*
X128843350Y-114615206D01*
X128900802Y-114557754D01*
X129015707Y-114500301D01*
X129302969Y-114500301D01*
X129417873Y-114557754D01*
X129475326Y-114615206D01*
X129532778Y-114730111D01*
X129532778Y-114959920D01*
X129475326Y-115074825D01*
X129417873Y-115132278D01*
X129302969Y-115189730D01*
D12*
X127067466Y-111027009D02*
X127067466Y-111486628D01*
X127343238Y-110935085D02*
X126378038Y-111256818D01*
X127343238Y-111578552D01*
X126378038Y-112313942D02*
X126378038Y-112130094D01*
X126424000Y-112038171D01*
X126469961Y-111992209D01*
X126607847Y-111900285D01*
X126791695Y-111854323D01*
X127159390Y-111854323D01*
X127251314Y-111900285D01*
X127297276Y-111946247D01*
X127343238Y-112038171D01*
X127343238Y-112222018D01*
X127297276Y-112313942D01*
X127251314Y-112359904D01*
X127159390Y-112405866D01*
X126929580Y-112405866D01*
X126837657Y-112359904D01*
X126791695Y-112313942D01*
X126745733Y-112222018D01*
X126745733Y-112038171D01*
X126791695Y-111946247D01*
X126837657Y-111900285D01*
X126929580Y-111854323D01*
X126332076Y-113508952D02*
X127573047Y-112681637D01*
X126791695Y-113968571D02*
X126745733Y-113876647D01*
X126699771Y-113830685D01*
X126607847Y-113784723D01*
X126561885Y-113784723D01*
X126469961Y-113830685D01*
X126424000Y-113876647D01*
X126378038Y-113968571D01*
X126378038Y-114152418D01*
X126424000Y-114244342D01*
X126469961Y-114290304D01*
X126561885Y-114336266D01*
X126607847Y-114336266D01*
X126699771Y-114290304D01*
X126745733Y-114244342D01*
X126791695Y-114152418D01*
X126791695Y-113968571D01*
X126837657Y-113876647D01*
X126883619Y-113830685D01*
X126975542Y-113784723D01*
X127159390Y-113784723D01*
X127251314Y-113830685D01*
X127297276Y-113876647D01*
X127343238Y-113968571D01*
X127343238Y-114152418D01*
X127297276Y-114244342D01*
X127251314Y-114290304D01*
X127159390Y-114336266D01*
X126975542Y-114336266D01*
X126883619Y-114290304D01*
X126837657Y-114244342D01*
X126791695Y-114152418D01*
X126378038Y-114657999D02*
X126378038Y-115301466D01*
X127343238Y-114887809D01*
D14*
X154588064Y-88589278D02*
X155392397Y-88589278D01*
X154128445Y-88302016D02*
X154990230Y-88014754D01*
X154990230Y-88761635D01*
X154702969Y-89393611D02*
X154645516Y-89278706D01*
X154588064Y-89221254D01*
X154473159Y-89163801D01*
X154415707Y-89163801D01*
X154300802Y-89221254D01*
X154243350Y-89278706D01*
X154185897Y-89393611D01*
X154185897Y-89623420D01*
X154243350Y-89738325D01*
X154300802Y-89795778D01*
X154415707Y-89853230D01*
X154473159Y-89853230D01*
X154588064Y-89795778D01*
X154645516Y-89738325D01*
X154702969Y-89623420D01*
X154702969Y-89393611D01*
X154760421Y-89278706D01*
X154817873Y-89221254D01*
X154932778Y-89163801D01*
X155162588Y-89163801D01*
X155277492Y-89221254D01*
X155334945Y-89278706D01*
X155392397Y-89393611D01*
X155392397Y-89623420D01*
X155334945Y-89738325D01*
X155277492Y-89795778D01*
X155162588Y-89853230D01*
X154932778Y-89853230D01*
X154817873Y-89795778D01*
X154760421Y-89738325D01*
X154702969Y-89623420D01*
X152048064Y-88589278D02*
X152852397Y-88589278D01*
X151588445Y-88302016D02*
X152450230Y-88014754D01*
X152450230Y-88761635D01*
X151645897Y-89738325D02*
X151645897Y-89508516D01*
X151703350Y-89393611D01*
X151760802Y-89336159D01*
X151933159Y-89221254D01*
X152162969Y-89163801D01*
X152622588Y-89163801D01*
X152737492Y-89221254D01*
X152794945Y-89278706D01*
X152852397Y-89393611D01*
X152852397Y-89623420D01*
X152794945Y-89738325D01*
X152737492Y-89795778D01*
X152622588Y-89853230D01*
X152335326Y-89853230D01*
X152220421Y-89795778D01*
X152162969Y-89738325D01*
X152105516Y-89623420D01*
X152105516Y-89393611D01*
X152162969Y-89278706D01*
X152220421Y-89221254D01*
X152335326Y-89163801D01*
X149105897Y-88589278D02*
X149105897Y-88359468D01*
X149163350Y-88244563D01*
X149220802Y-88187111D01*
X149393159Y-88072206D01*
X149622969Y-88014754D01*
X150082588Y-88014754D01*
X150197492Y-88072206D01*
X150254945Y-88129659D01*
X150312397Y-88244563D01*
X150312397Y-88474373D01*
X150254945Y-88589278D01*
X150197492Y-88646730D01*
X150082588Y-88704182D01*
X149795326Y-88704182D01*
X149680421Y-88646730D01*
X149622969Y-88589278D01*
X149565516Y-88474373D01*
X149565516Y-88244563D01*
X149622969Y-88129659D01*
X149680421Y-88072206D01*
X149795326Y-88014754D01*
X149508064Y-89738325D02*
X150312397Y-89738325D01*
X149048445Y-89451063D02*
X149910230Y-89163801D01*
X149910230Y-89910682D01*
X146968064Y-88589278D02*
X147772397Y-88589278D01*
X146508445Y-88302016D02*
X147370230Y-88014754D01*
X147370230Y-88761635D01*
X146565897Y-89106349D02*
X146565897Y-89910682D01*
X147772397Y-89393611D01*
X144772778Y-88876540D02*
X144772778Y-89795778D01*
X142232778Y-88876540D02*
X142232778Y-89795778D01*
X142692397Y-89336159D02*
X141773159Y-89336159D01*
X140152397Y-87957301D02*
X138945897Y-87957301D01*
X138945897Y-88416920D01*
X139003350Y-88531825D01*
X139060802Y-88589278D01*
X139175707Y-88646730D01*
X139348064Y-88646730D01*
X139462969Y-88589278D01*
X139520421Y-88531825D01*
X139577873Y-88416920D01*
X139577873Y-87957301D01*
X139520421Y-89565968D02*
X139577873Y-89738325D01*
X139635326Y-89795778D01*
X139750230Y-89853230D01*
X139922588Y-89853230D01*
X140037492Y-89795778D01*
X140094945Y-89738325D01*
X140152397Y-89623420D01*
X140152397Y-89163801D01*
X138945897Y-89163801D01*
X138945897Y-89565968D01*
X139003350Y-89680873D01*
X139060802Y-89738325D01*
X139175707Y-89795778D01*
X139290611Y-89795778D01*
X139405516Y-89738325D01*
X139462969Y-89680873D01*
X139520421Y-89565968D01*
X139520421Y-89163801D01*
X136405897Y-88646730D02*
X136405897Y-88072206D01*
X136980421Y-88014754D01*
X136922969Y-88072206D01*
X136865516Y-88187111D01*
X136865516Y-88474373D01*
X136922969Y-88589278D01*
X136980421Y-88646730D01*
X137095326Y-88704182D01*
X137382588Y-88704182D01*
X137497492Y-88646730D01*
X137554945Y-88589278D01*
X137612397Y-88474373D01*
X137612397Y-88187111D01*
X137554945Y-88072206D01*
X137497492Y-88014754D01*
X136520802Y-89163801D02*
X136463350Y-89221254D01*
X136405897Y-89336159D01*
X136405897Y-89623420D01*
X136463350Y-89738325D01*
X136520802Y-89795778D01*
X136635707Y-89853230D01*
X136750611Y-89853230D01*
X136922969Y-89795778D01*
X137612397Y-89106349D01*
X137612397Y-89853230D01*
X133865897Y-88589278D02*
X133865897Y-88359468D01*
X133923350Y-88244563D01*
X133980802Y-88187111D01*
X134153159Y-88072206D01*
X134382969Y-88014754D01*
X134842588Y-88014754D01*
X134957492Y-88072206D01*
X135014945Y-88129659D01*
X135072397Y-88244563D01*
X135072397Y-88474373D01*
X135014945Y-88589278D01*
X134957492Y-88646730D01*
X134842588Y-88704182D01*
X134555326Y-88704182D01*
X134440421Y-88646730D01*
X134382969Y-88589278D01*
X134325516Y-88474373D01*
X134325516Y-88244563D01*
X134382969Y-88129659D01*
X134440421Y-88072206D01*
X134555326Y-88014754D01*
X133865897Y-89451063D02*
X133865897Y-89565968D01*
X133923350Y-89680873D01*
X133980802Y-89738325D01*
X134095707Y-89795778D01*
X134325516Y-89853230D01*
X134612778Y-89853230D01*
X134842588Y-89795778D01*
X134957492Y-89738325D01*
X135014945Y-89680873D01*
X135072397Y-89565968D01*
X135072397Y-89451063D01*
X135014945Y-89336159D01*
X134957492Y-89278706D01*
X134842588Y-89221254D01*
X134612778Y-89163801D01*
X134325516Y-89163801D01*
X134095707Y-89221254D01*
X133980802Y-89278706D01*
X133923350Y-89336159D01*
X133865897Y-89451063D01*
X131325897Y-88646730D02*
X131325897Y-88072206D01*
X131900421Y-88014754D01*
X131842969Y-88072206D01*
X131785516Y-88187111D01*
X131785516Y-88474373D01*
X131842969Y-88589278D01*
X131900421Y-88646730D01*
X132015326Y-88704182D01*
X132302588Y-88704182D01*
X132417492Y-88646730D01*
X132474945Y-88589278D01*
X132532397Y-88474373D01*
X132532397Y-88187111D01*
X132474945Y-88072206D01*
X132417492Y-88014754D01*
X131325897Y-89106349D02*
X131325897Y-89910682D01*
X132532397Y-89393611D01*
D15*
X128851967Y-88800267D02*
X128851967Y-88283196D01*
X129369039Y-88231488D01*
X129317332Y-88283196D01*
X129265625Y-88386610D01*
X129265625Y-88645146D01*
X129317332Y-88748560D01*
X129369039Y-88800267D01*
X129472453Y-88851974D01*
X129730989Y-88851974D01*
X129834403Y-88800267D01*
X129886110Y-88748560D01*
X129937817Y-88645146D01*
X129937817Y-88386610D01*
X129886110Y-88283196D01*
X129834403Y-88231488D01*
X129317332Y-89472460D02*
X129265625Y-89369046D01*
X129213917Y-89317338D01*
X129110503Y-89265631D01*
X129058796Y-89265631D01*
X128955382Y-89317338D01*
X128903675Y-89369046D01*
X128851967Y-89472460D01*
X128851967Y-89679288D01*
X128903675Y-89782703D01*
X128955382Y-89834410D01*
X129058796Y-89886117D01*
X129110503Y-89886117D01*
X129213917Y-89834410D01*
X129265625Y-89782703D01*
X129317332Y-89679288D01*
X129317332Y-89472460D01*
X129369039Y-89369046D01*
X129420746Y-89317338D01*
X129524160Y-89265631D01*
X129730989Y-89265631D01*
X129834403Y-89317338D01*
X129886110Y-89369046D01*
X129937817Y-89472460D01*
X129937817Y-89679288D01*
X129886110Y-89782703D01*
X129834403Y-89834410D01*
X129730989Y-89886117D01*
X129524160Y-89886117D01*
X129420746Y-89834410D01*
X129369039Y-89782703D01*
X129317332Y-89679288D01*
D14*
X123705897Y-92476445D02*
X123705897Y-91901921D01*
X124280421Y-91844469D01*
X124222969Y-91901921D01*
X124165516Y-92016826D01*
X124165516Y-92304088D01*
X124222969Y-92418993D01*
X124280421Y-92476445D01*
X124395326Y-92533898D01*
X124682588Y-92533898D01*
X124797492Y-92476445D01*
X124854945Y-92418993D01*
X124912397Y-92304088D01*
X124912397Y-92016826D01*
X124854945Y-91901921D01*
X124797492Y-91844469D01*
X124912397Y-93108421D02*
X124912397Y-93338231D01*
X124854945Y-93453136D01*
X124797492Y-93510588D01*
X124625135Y-93625493D01*
X124395326Y-93682945D01*
X123935707Y-93682945D01*
X123820802Y-93625493D01*
X123763350Y-93568040D01*
X123705897Y-93453136D01*
X123705897Y-93223326D01*
X123763350Y-93108421D01*
X123820802Y-93050969D01*
X123935707Y-92993517D01*
X124222969Y-92993517D01*
X124337873Y-93050969D01*
X124395326Y-93108421D01*
X124452778Y-93223326D01*
X124452778Y-93453136D01*
X124395326Y-93568040D01*
X124337873Y-93625493D01*
X124222969Y-93682945D01*
X159265897Y-89738325D02*
X159265897Y-89508516D01*
X159323350Y-89393611D01*
X159380802Y-89336159D01*
X159553159Y-89221254D01*
X159782969Y-89163801D01*
X160242588Y-89163801D01*
X160357492Y-89221254D01*
X160414945Y-89278706D01*
X160472397Y-89393611D01*
X160472397Y-89623420D01*
X160414945Y-89738325D01*
X160357492Y-89795778D01*
X160242588Y-89853230D01*
X159955326Y-89853230D01*
X159840421Y-89795778D01*
X159782969Y-89738325D01*
X159725516Y-89623420D01*
X159725516Y-89393611D01*
X159782969Y-89278706D01*
X159840421Y-89221254D01*
X159955326Y-89163801D01*
X161805897Y-89106349D02*
X161805897Y-89853230D01*
X162265516Y-89451063D01*
X162265516Y-89623420D01*
X162322969Y-89738325D01*
X162380421Y-89795778D01*
X162495326Y-89853230D01*
X162782588Y-89853230D01*
X162897492Y-89795778D01*
X162954945Y-89738325D01*
X163012397Y-89623420D01*
X163012397Y-89278706D01*
X162954945Y-89163801D01*
X162897492Y-89106349D01*
X164460802Y-89163801D02*
X164403350Y-89221254D01*
X164345897Y-89336159D01*
X164345897Y-89623420D01*
X164403350Y-89738325D01*
X164460802Y-89795778D01*
X164575707Y-89853230D01*
X164690611Y-89853230D01*
X164862969Y-89795778D01*
X165552397Y-89106349D01*
X165552397Y-89853230D01*
X166885897Y-89795778D02*
X166885897Y-89221254D01*
X167460421Y-89163801D01*
X167402969Y-89221254D01*
X167345516Y-89336159D01*
X167345516Y-89623420D01*
X167402969Y-89738325D01*
X167460421Y-89795778D01*
X167575326Y-89853230D01*
X167862588Y-89853230D01*
X167977492Y-89795778D01*
X168034945Y-89738325D01*
X168092397Y-89623420D01*
X168092397Y-89336159D01*
X168034945Y-89221254D01*
X167977492Y-89163801D01*
D12*
X172787466Y-91143695D02*
X172787466Y-91603314D01*
X173063238Y-91051771D02*
X172098038Y-91373505D01*
X173063238Y-91695238D01*
X172098038Y-91925048D02*
X172098038Y-92568514D01*
X173063238Y-92154857D01*
X173430933Y-93211981D02*
X173384971Y-93166019D01*
X173247085Y-93074095D01*
X173155161Y-93028133D01*
X173017276Y-92982171D01*
X172787466Y-92936209D01*
X172603619Y-92936209D01*
X172373809Y-92982171D01*
X172235923Y-93028133D01*
X172144000Y-93074095D01*
X172006114Y-93166019D01*
X171960152Y-93211981D01*
X173063238Y-94085257D02*
X173063238Y-93533714D01*
X173063238Y-93809486D02*
X172098038Y-93809486D01*
X172235923Y-93717562D01*
X172327847Y-93625638D01*
X172373809Y-93533714D01*
X172971314Y-94498914D02*
X173017276Y-94544876D01*
X173063238Y-94498914D01*
X173017276Y-94452952D01*
X172971314Y-94498914D01*
X173063238Y-94498914D01*
X172511695Y-95096419D02*
X172465733Y-95004495D01*
X172419771Y-94958533D01*
X172327847Y-94912571D01*
X172281885Y-94912571D01*
X172189961Y-94958533D01*
X172144000Y-95004495D01*
X172098038Y-95096419D01*
X172098038Y-95280267D01*
X172144000Y-95372190D01*
X172189961Y-95418152D01*
X172281885Y-95464114D01*
X172327847Y-95464114D01*
X172419771Y-95418152D01*
X172465733Y-95372190D01*
X172511695Y-95280267D01*
X172511695Y-95096419D01*
X172557657Y-95004495D01*
X172603619Y-94958533D01*
X172695542Y-94912571D01*
X172879390Y-94912571D01*
X172971314Y-94958533D01*
X173017276Y-95004495D01*
X173063238Y-95096419D01*
X173063238Y-95280267D01*
X173017276Y-95372190D01*
X172971314Y-95418152D01*
X172879390Y-95464114D01*
X172695542Y-95464114D01*
X172603619Y-95418152D01*
X172557657Y-95372190D01*
X172511695Y-95280267D01*
X173430933Y-95785848D02*
X173384971Y-95831809D01*
X173247085Y-95923733D01*
X173155161Y-95969695D01*
X173017276Y-96015657D01*
X172787466Y-96061619D01*
X172603619Y-96061619D01*
X172373809Y-96015657D01*
X172235923Y-95969695D01*
X172144000Y-95923733D01*
X172006114Y-95831809D01*
X171960152Y-95785848D01*
D11*
X168829300Y-92303000D02*
X171369300Y-92303000D01*
D12*
X127343238Y-94999657D02*
X126378038Y-94999657D01*
X126378038Y-95367352D01*
X126424000Y-95459276D01*
X126469961Y-95505238D01*
X126561885Y-95551200D01*
X126699771Y-95551200D01*
X126791695Y-95505238D01*
X126837657Y-95459276D01*
X126883619Y-95367352D01*
X126883619Y-94999657D01*
X126378038Y-95872933D02*
X127343238Y-96102743D01*
X126653809Y-96286590D01*
X127343238Y-96470438D01*
X126378038Y-96700248D01*
X127343238Y-97067943D02*
X126378038Y-97067943D01*
X127067466Y-97389676D01*
X126378038Y-97711409D01*
X127343238Y-97711409D01*
X127343238Y-98676609D02*
X127343238Y-98125067D01*
X127343238Y-98400838D02*
X126378038Y-98400838D01*
X126515923Y-98308914D01*
X126607847Y-98216990D01*
X126653809Y-98125067D01*
X127067466Y-99044305D02*
X127067466Y-99503924D01*
X127343238Y-98952381D02*
X126378038Y-99274114D01*
X127343238Y-99595848D01*
D14*
X128900802Y-95019469D02*
X128843350Y-95076921D01*
X128785897Y-95191826D01*
X128785897Y-95479088D01*
X128843350Y-95593993D01*
X128900802Y-95651445D01*
X129015707Y-95708898D01*
X129130611Y-95708898D01*
X129302969Y-95651445D01*
X129992397Y-94962017D01*
X129992397Y-95708898D01*
X128785897Y-96111064D02*
X128785897Y-96857945D01*
X129245516Y-96455779D01*
X129245516Y-96628136D01*
X129302969Y-96743040D01*
X129360421Y-96800493D01*
X129475326Y-96857945D01*
X129762588Y-96857945D01*
X129877492Y-96800493D01*
X129934945Y-96743040D01*
X129992397Y-96628136D01*
X129992397Y-96283421D01*
X129934945Y-96168517D01*
X129877492Y-96111064D01*
X132532397Y-95766350D02*
X131957873Y-95364183D01*
X132532397Y-95076921D02*
X131325897Y-95076921D01*
X131325897Y-95536540D01*
X131383350Y-95651445D01*
X131440802Y-95708898D01*
X131555707Y-95766350D01*
X131728064Y-95766350D01*
X131842969Y-95708898D01*
X131900421Y-95651445D01*
X131957873Y-95536540D01*
X131957873Y-95076921D01*
X131325897Y-96168517D02*
X132532397Y-96972850D01*
X131325897Y-96972850D02*
X132532397Y-96168517D01*
X133865897Y-94904564D02*
X133865897Y-95593993D01*
X135072397Y-95249279D02*
X133865897Y-95249279D01*
X133865897Y-95881255D02*
X135072397Y-96685588D01*
X133865897Y-96685588D02*
X135072397Y-95881255D01*
D15*
X137506110Y-94986582D02*
X137557817Y-95141704D01*
X137557817Y-95400239D01*
X137506110Y-95503654D01*
X137454403Y-95555361D01*
X137350989Y-95607068D01*
X137247575Y-95607068D01*
X137144160Y-95555361D01*
X137092453Y-95503654D01*
X137040746Y-95400239D01*
X136989039Y-95193411D01*
X136937332Y-95089996D01*
X136885625Y-95038289D01*
X136782210Y-94986582D01*
X136678796Y-94986582D01*
X136575382Y-95038289D01*
X136523675Y-95089996D01*
X136471967Y-95193411D01*
X136471967Y-95451946D01*
X136523675Y-95607068D01*
X137454403Y-96692918D02*
X137506110Y-96641211D01*
X137557817Y-96486089D01*
X137557817Y-96382675D01*
X137506110Y-96227554D01*
X137402696Y-96124139D01*
X137299282Y-96072432D01*
X137092453Y-96020725D01*
X136937332Y-96020725D01*
X136730503Y-96072432D01*
X136627089Y-96124139D01*
X136523675Y-96227554D01*
X136471967Y-96382675D01*
X136471967Y-96486089D01*
X136523675Y-96641211D01*
X136575382Y-96692918D01*
X137557817Y-97675354D02*
X137557817Y-97158282D01*
X136471967Y-97158282D01*
X140046110Y-94986582D02*
X140097817Y-95141704D01*
X140097817Y-95400239D01*
X140046110Y-95503654D01*
X139994403Y-95555361D01*
X139890989Y-95607068D01*
X139787575Y-95607068D01*
X139684160Y-95555361D01*
X139632453Y-95503654D01*
X139580746Y-95400239D01*
X139529039Y-95193411D01*
X139477332Y-95089996D01*
X139425625Y-95038289D01*
X139322210Y-94986582D01*
X139218796Y-94986582D01*
X139115382Y-95038289D01*
X139063675Y-95089996D01*
X139011967Y-95193411D01*
X139011967Y-95451946D01*
X139063675Y-95607068D01*
X140097817Y-96072432D02*
X139011967Y-96072432D01*
X139011967Y-96330968D01*
X139063675Y-96486089D01*
X139167089Y-96589504D01*
X139270503Y-96641211D01*
X139477332Y-96692918D01*
X139632453Y-96692918D01*
X139839282Y-96641211D01*
X139942696Y-96589504D01*
X140046110Y-96486089D01*
X140097817Y-96330968D01*
X140097817Y-96072432D01*
X139787575Y-97106575D02*
X139787575Y-97623646D01*
X140097817Y-97003161D02*
X139011967Y-97365111D01*
X140097817Y-97727061D01*
D14*
X141485897Y-94904564D02*
X142692397Y-95306731D01*
X141485897Y-95708898D01*
X141485897Y-96340874D02*
X141485897Y-96570683D01*
X141543350Y-96685588D01*
X141658254Y-96800493D01*
X141888064Y-96857945D01*
X142290230Y-96857945D01*
X142520040Y-96800493D01*
X142634945Y-96685588D01*
X142692397Y-96570683D01*
X142692397Y-96340874D01*
X142634945Y-96225969D01*
X142520040Y-96111064D01*
X142290230Y-96053612D01*
X141888064Y-96053612D01*
X141658254Y-96111064D01*
X141543350Y-96225969D01*
X141485897Y-96340874D01*
X141485897Y-97375017D02*
X142462588Y-97375017D01*
X142577492Y-97432469D01*
X142634945Y-97489921D01*
X142692397Y-97604826D01*
X142692397Y-97834636D01*
X142634945Y-97949540D01*
X142577492Y-98006993D01*
X142462588Y-98064445D01*
X141485897Y-98064445D01*
X141485897Y-98466612D02*
X141485897Y-99156040D01*
X142692397Y-98811326D02*
X141485897Y-98811326D01*
X144083350Y-95708898D02*
X144025897Y-95593993D01*
X144025897Y-95421636D01*
X144083350Y-95249279D01*
X144198254Y-95134374D01*
X144313159Y-95076921D01*
X144542969Y-95019469D01*
X144715326Y-95019469D01*
X144945135Y-95076921D01*
X145060040Y-95134374D01*
X145174945Y-95249279D01*
X145232397Y-95421636D01*
X145232397Y-95536540D01*
X145174945Y-95708898D01*
X145117492Y-95766350D01*
X144715326Y-95766350D01*
X144715326Y-95536540D01*
X145232397Y-96283421D02*
X144025897Y-96283421D01*
X145232397Y-96972850D01*
X144025897Y-96972850D01*
X145232397Y-97547374D02*
X144025897Y-97547374D01*
X144025897Y-97834636D01*
X144083350Y-98006993D01*
X144198254Y-98121898D01*
X144313159Y-98179350D01*
X144542969Y-98236802D01*
X144715326Y-98236802D01*
X144945135Y-98179350D01*
X145060040Y-98121898D01*
X145174945Y-98006993D01*
X145232397Y-97834636D01*
X145232397Y-97547374D01*
X146565897Y-95593993D02*
X146565897Y-95364183D01*
X146623350Y-95249279D01*
X146680802Y-95191826D01*
X146853159Y-95076921D01*
X147082969Y-95019469D01*
X147542588Y-95019469D01*
X147657492Y-95076921D01*
X147714945Y-95134374D01*
X147772397Y-95249279D01*
X147772397Y-95479088D01*
X147714945Y-95593993D01*
X147657492Y-95651445D01*
X147542588Y-95708898D01*
X147255326Y-95708898D01*
X147140421Y-95651445D01*
X147082969Y-95593993D01*
X147025516Y-95479088D01*
X147025516Y-95249279D01*
X147082969Y-95134374D01*
X147140421Y-95076921D01*
X147255326Y-95019469D01*
X146565897Y-96800493D02*
X146565897Y-96225969D01*
X147140421Y-96168517D01*
X147082969Y-96225969D01*
X147025516Y-96340874D01*
X147025516Y-96628136D01*
X147082969Y-96743040D01*
X147140421Y-96800493D01*
X147255326Y-96857945D01*
X147542588Y-96857945D01*
X147657492Y-96800493D01*
X147714945Y-96743040D01*
X147772397Y-96628136D01*
X147772397Y-96340874D01*
X147714945Y-96225969D01*
X147657492Y-96168517D01*
X149220802Y-95019469D02*
X149163350Y-95076921D01*
X149105897Y-95191826D01*
X149105897Y-95479088D01*
X149163350Y-95593993D01*
X149220802Y-95651445D01*
X149335707Y-95708898D01*
X149450611Y-95708898D01*
X149622969Y-95651445D01*
X150312397Y-94962017D01*
X150312397Y-95708898D01*
X149105897Y-96111064D02*
X149105897Y-96915398D01*
X150312397Y-96398326D01*
X151703350Y-95708898D02*
X151645897Y-95593993D01*
X151645897Y-95421636D01*
X151703350Y-95249279D01*
X151818254Y-95134374D01*
X151933159Y-95076921D01*
X152162969Y-95019469D01*
X152335326Y-95019469D01*
X152565135Y-95076921D01*
X152680040Y-95134374D01*
X152794945Y-95249279D01*
X152852397Y-95421636D01*
X152852397Y-95536540D01*
X152794945Y-95708898D01*
X152737492Y-95766350D01*
X152335326Y-95766350D01*
X152335326Y-95536540D01*
X152852397Y-96283421D02*
X151645897Y-96283421D01*
X152852397Y-96972850D01*
X151645897Y-96972850D01*
X152852397Y-97547374D02*
X151645897Y-97547374D01*
X151645897Y-97834636D01*
X151703350Y-98006993D01*
X151818254Y-98121898D01*
X151933159Y-98179350D01*
X152162969Y-98236802D01*
X152335326Y-98236802D01*
X152565135Y-98179350D01*
X152680040Y-98121898D01*
X152794945Y-98006993D01*
X152852397Y-97834636D01*
X152852397Y-97547374D01*
D15*
X154924160Y-95038289D02*
X154924160Y-95865604D01*
X155337817Y-95451946D02*
X154510503Y-95451946D01*
X154251967Y-96279261D02*
X154251967Y-96951454D01*
X154665625Y-96589504D01*
X154665625Y-96744625D01*
X154717332Y-96848039D01*
X154769039Y-96899746D01*
X154872453Y-96951454D01*
X155130989Y-96951454D01*
X155234403Y-96899746D01*
X155286110Y-96848039D01*
X155337817Y-96744625D01*
X155337817Y-96434382D01*
X155286110Y-96330968D01*
X155234403Y-96279261D01*
X155234403Y-97416818D02*
X155286110Y-97468525D01*
X155337817Y-97416818D01*
X155286110Y-97365111D01*
X155234403Y-97416818D01*
X155337817Y-97416818D01*
X154251967Y-97830475D02*
X154251967Y-98502668D01*
X154665625Y-98140718D01*
X154665625Y-98295839D01*
X154717332Y-98399254D01*
X154769039Y-98450961D01*
X154872453Y-98502668D01*
X155130989Y-98502668D01*
X155234403Y-98450961D01*
X155286110Y-98399254D01*
X155337817Y-98295839D01*
X155337817Y-97985596D01*
X155286110Y-97882182D01*
X155234403Y-97830475D01*
X154251967Y-98812911D02*
X155337817Y-99174861D01*
X154251967Y-99536811D01*
D14*
X157932397Y-95076921D02*
X156725897Y-95076921D01*
X157587683Y-95479088D01*
X156725897Y-95881255D01*
X157932397Y-95881255D01*
X156725897Y-96685588D02*
X156725897Y-96915398D01*
X156783350Y-97030302D01*
X156898254Y-97145207D01*
X157128064Y-97202660D01*
X157530230Y-97202660D01*
X157760040Y-97145207D01*
X157874945Y-97030302D01*
X157932397Y-96915398D01*
X157932397Y-96685588D01*
X157874945Y-96570683D01*
X157760040Y-96455779D01*
X157530230Y-96398326D01*
X157128064Y-96398326D01*
X156898254Y-96455779D01*
X156783350Y-96570683D01*
X156725897Y-96685588D01*
X157874945Y-97662279D02*
X157932397Y-97834636D01*
X157932397Y-98121898D01*
X157874945Y-98236802D01*
X157817492Y-98294255D01*
X157702588Y-98351707D01*
X157587683Y-98351707D01*
X157472778Y-98294255D01*
X157415326Y-98236802D01*
X157357873Y-98121898D01*
X157300421Y-97892088D01*
X157242969Y-97777183D01*
X157185516Y-97719731D01*
X157070611Y-97662279D01*
X156955707Y-97662279D01*
X156840802Y-97719731D01*
X156783350Y-97777183D01*
X156725897Y-97892088D01*
X156725897Y-98179350D01*
X156783350Y-98351707D01*
X157932397Y-98868779D02*
X156725897Y-98868779D01*
X160472397Y-95076921D02*
X159265897Y-95076921D01*
X160127683Y-95479088D01*
X159265897Y-95881255D01*
X160472397Y-95881255D01*
X160472397Y-96455779D02*
X159265897Y-96455779D01*
X160414945Y-96972850D02*
X160472397Y-97145207D01*
X160472397Y-97432469D01*
X160414945Y-97547374D01*
X160357492Y-97604826D01*
X160242588Y-97662279D01*
X160127683Y-97662279D01*
X160012778Y-97604826D01*
X159955326Y-97547374D01*
X159897873Y-97432469D01*
X159840421Y-97202660D01*
X159782969Y-97087755D01*
X159725516Y-97030302D01*
X159610611Y-96972850D01*
X159495707Y-96972850D01*
X159380802Y-97030302D01*
X159323350Y-97087755D01*
X159265897Y-97202660D01*
X159265897Y-97489921D01*
X159323350Y-97662279D01*
X159265897Y-98409160D02*
X159265897Y-98638969D01*
X159323350Y-98753874D01*
X159438254Y-98868779D01*
X159668064Y-98926231D01*
X160070230Y-98926231D01*
X160300040Y-98868779D01*
X160414945Y-98753874D01*
X160472397Y-98638969D01*
X160472397Y-98409160D01*
X160414945Y-98294255D01*
X160300040Y-98179350D01*
X160070230Y-98121898D01*
X159668064Y-98121898D01*
X159438254Y-98179350D01*
X159323350Y-98294255D01*
X159265897Y-98409160D01*
D15*
X162854403Y-95658775D02*
X162906110Y-95607068D01*
X162957817Y-95451946D01*
X162957817Y-95348532D01*
X162906110Y-95193411D01*
X162802696Y-95089996D01*
X162699282Y-95038289D01*
X162492453Y-94986582D01*
X162337332Y-94986582D01*
X162130503Y-95038289D01*
X162027089Y-95089996D01*
X161923675Y-95193411D01*
X161871967Y-95348532D01*
X161871967Y-95451946D01*
X161923675Y-95607068D01*
X161975382Y-95658775D01*
X162957817Y-96641211D02*
X162957817Y-96124139D01*
X161871967Y-96124139D01*
X162957817Y-97003161D02*
X161871967Y-97003161D01*
X162957817Y-97623646D02*
X162337332Y-97158282D01*
X161871967Y-97623646D02*
X162492453Y-97003161D01*
D14*
X165437492Y-95766350D02*
X165494945Y-95708898D01*
X165552397Y-95536540D01*
X165552397Y-95421636D01*
X165494945Y-95249279D01*
X165380040Y-95134374D01*
X165265135Y-95076921D01*
X165035326Y-95019469D01*
X164862969Y-95019469D01*
X164633159Y-95076921D01*
X164518254Y-95134374D01*
X164403350Y-95249279D01*
X164345897Y-95421636D01*
X164345897Y-95536540D01*
X164403350Y-95708898D01*
X164460802Y-95766350D01*
X165494945Y-96225969D02*
X165552397Y-96398326D01*
X165552397Y-96685588D01*
X165494945Y-96800493D01*
X165437492Y-96857945D01*
X165322588Y-96915398D01*
X165207683Y-96915398D01*
X165092778Y-96857945D01*
X165035326Y-96800493D01*
X164977873Y-96685588D01*
X164920421Y-96455779D01*
X164862969Y-96340874D01*
X164805516Y-96283421D01*
X164690611Y-96225969D01*
X164575707Y-96225969D01*
X164460802Y-96283421D01*
X164403350Y-96340874D01*
X164345897Y-96455779D01*
X164345897Y-96743040D01*
X164403350Y-96915398D01*
X167288064Y-95593993D02*
X168092397Y-95593993D01*
X166828445Y-95306731D02*
X167690230Y-95019469D01*
X167690230Y-95766350D01*
X166885897Y-96800493D02*
X166885897Y-96225969D01*
X167460421Y-96168517D01*
X167402969Y-96225969D01*
X167345516Y-96340874D01*
X167345516Y-96628136D01*
X167402969Y-96743040D01*
X167460421Y-96800493D01*
X167575326Y-96857945D01*
X167862588Y-96857945D01*
X167977492Y-96800493D01*
X168034945Y-96743040D01*
X168092397Y-96628136D01*
X168092397Y-96340874D01*
X168034945Y-96225969D01*
X167977492Y-96168517D01*
D12*
X170247466Y-94953695D02*
X170247466Y-95413314D01*
X170523238Y-94861771D02*
X169558038Y-95183505D01*
X170523238Y-95505238D01*
X169558038Y-96286590D02*
X169558038Y-95826971D01*
X170017657Y-95781009D01*
X169971695Y-95826971D01*
X169925733Y-95918895D01*
X169925733Y-96148705D01*
X169971695Y-96240628D01*
X170017657Y-96286590D01*
X170109580Y-96332552D01*
X170339390Y-96332552D01*
X170431314Y-96286590D01*
X170477276Y-96240628D01*
X170523238Y-96148705D01*
X170523238Y-95918895D01*
X170477276Y-95826971D01*
X170431314Y-95781009D01*
X169512076Y-97435638D02*
X170753047Y-96608324D01*
X169971695Y-97895257D02*
X169925733Y-97803333D01*
X169879771Y-97757371D01*
X169787847Y-97711409D01*
X169741885Y-97711409D01*
X169649961Y-97757371D01*
X169604000Y-97803333D01*
X169558038Y-97895257D01*
X169558038Y-98079105D01*
X169604000Y-98171028D01*
X169649961Y-98216990D01*
X169741885Y-98262952D01*
X169787847Y-98262952D01*
X169879771Y-98216990D01*
X169925733Y-98171028D01*
X169971695Y-98079105D01*
X169971695Y-97895257D01*
X170017657Y-97803333D01*
X170063619Y-97757371D01*
X170155542Y-97711409D01*
X170339390Y-97711409D01*
X170431314Y-97757371D01*
X170477276Y-97803333D01*
X170523238Y-97895257D01*
X170523238Y-98079105D01*
X170477276Y-98171028D01*
X170431314Y-98216990D01*
X170339390Y-98262952D01*
X170155542Y-98262952D01*
X170063619Y-98216990D01*
X170017657Y-98171028D01*
X169971695Y-98079105D01*
X169558038Y-99090267D02*
X169558038Y-98906419D01*
X169604000Y-98814495D01*
X169649961Y-98768533D01*
X169787847Y-98676609D01*
X169971695Y-98630648D01*
X170339390Y-98630648D01*
X170431314Y-98676609D01*
X170477276Y-98722571D01*
X170523238Y-98814495D01*
X170523238Y-98998343D01*
X170477276Y-99090267D01*
X170431314Y-99136228D01*
X170339390Y-99182190D01*
X170109580Y-99182190D01*
X170017657Y-99136228D01*
X169971695Y-99090267D01*
X169925733Y-98998343D01*
X169925733Y-98814495D01*
X169971695Y-98722571D01*
X170017657Y-98676609D01*
X170109580Y-98630648D01*
D15*
X129267439Y-120158889D02*
X129267439Y-120520839D01*
X129836217Y-120675961D02*
X129836217Y-120158889D01*
X128750367Y-120158889D01*
X128750367Y-120675961D01*
X129836217Y-121141325D02*
X128750367Y-121141325D01*
X129836217Y-121761811D01*
X128750367Y-121761811D01*
D14*
X131224297Y-120025164D02*
X132430797Y-120427331D01*
X131224297Y-120829498D01*
X131798821Y-121633831D02*
X131856273Y-121806188D01*
X131913726Y-121863640D01*
X132028630Y-121921093D01*
X132200988Y-121921093D01*
X132315892Y-121863640D01*
X132373345Y-121806188D01*
X132430797Y-121691283D01*
X132430797Y-121231664D01*
X131224297Y-121231664D01*
X131224297Y-121633831D01*
X131281750Y-121748736D01*
X131339202Y-121806188D01*
X131454107Y-121863640D01*
X131569011Y-121863640D01*
X131683916Y-121806188D01*
X131741369Y-121748736D01*
X131798821Y-121633831D01*
X131798821Y-121231664D01*
X133764297Y-120025164D02*
X134970797Y-120427331D01*
X133764297Y-120829498D01*
X134970797Y-121231664D02*
X133764297Y-121231664D01*
X137051178Y-120197521D02*
X137051178Y-121116760D01*
X139591178Y-120197521D02*
X139591178Y-121116760D01*
X140050797Y-120657140D02*
X139131559Y-120657140D01*
X142590797Y-120197521D02*
X141384297Y-120197521D01*
X142590797Y-120772045D02*
X141384297Y-120772045D01*
X141384297Y-121059307D01*
X141441750Y-121231664D01*
X141556654Y-121346569D01*
X141671559Y-121404021D01*
X141901369Y-121461474D01*
X142073726Y-121461474D01*
X142303535Y-121404021D01*
X142418440Y-121346569D01*
X142533345Y-121231664D01*
X142590797Y-121059307D01*
X142590797Y-120772045D01*
D13*
X144190720Y-120514310D02*
X144153950Y-120440771D01*
X144153950Y-120330463D01*
X144190720Y-120220154D01*
X144264259Y-120146615D01*
X144337798Y-120109846D01*
X144484876Y-120073076D01*
X144595184Y-120073076D01*
X144742262Y-120109846D01*
X144815801Y-120146615D01*
X144889340Y-120220154D01*
X144926110Y-120330463D01*
X144926110Y-120404002D01*
X144889340Y-120514310D01*
X144852571Y-120551080D01*
X144595184Y-120551080D01*
X144595184Y-120404002D01*
X144926110Y-120882006D02*
X144153950Y-120882006D01*
X144926110Y-121323240D01*
X144153950Y-121323240D01*
X144926110Y-121690935D02*
X144153950Y-121690935D01*
X144153950Y-121874783D01*
X144190720Y-121985091D01*
X144264259Y-122058630D01*
X144337798Y-122095400D01*
X144484876Y-122132169D01*
X144595184Y-122132169D01*
X144742262Y-122095400D01*
X144815801Y-122058630D01*
X144889340Y-121985091D01*
X144926110Y-121874783D01*
X144926110Y-121690935D01*
D14*
X147226418Y-120306741D02*
X147226418Y-121225980D01*
X149019537Y-120536551D02*
X149019537Y-120651456D01*
X149076990Y-120766360D01*
X149134442Y-120823813D01*
X149249347Y-120881265D01*
X149479156Y-120938718D01*
X149766418Y-120938718D01*
X149996228Y-120881265D01*
X150111132Y-120823813D01*
X150168585Y-120766360D01*
X150226037Y-120651456D01*
X150226037Y-120536551D01*
X150168585Y-120421646D01*
X150111132Y-120364194D01*
X149996228Y-120306741D01*
X149766418Y-120249289D01*
X149479156Y-120249289D01*
X149249347Y-120306741D01*
X149134442Y-120364194D01*
X149076990Y-120421646D01*
X149019537Y-120536551D01*
X152766037Y-120938718D02*
X152766037Y-120249289D01*
X152766037Y-120594003D02*
X151559537Y-120594003D01*
X151731894Y-120479099D01*
X151846799Y-120364194D01*
X151904251Y-120249289D01*
X154214442Y-120249289D02*
X154156990Y-120306741D01*
X154099537Y-120421646D01*
X154099537Y-120708908D01*
X154156990Y-120823813D01*
X154214442Y-120881265D01*
X154329347Y-120938718D01*
X154444251Y-120938718D01*
X154616609Y-120881265D01*
X155306037Y-120191837D01*
X155306037Y-120938718D01*
X156639537Y-120191837D02*
X156639537Y-120938718D01*
X157099156Y-120536551D01*
X157099156Y-120708908D01*
X157156609Y-120823813D01*
X157214061Y-120881265D01*
X157328966Y-120938718D01*
X157616228Y-120938718D01*
X157731132Y-120881265D01*
X157788585Y-120823813D01*
X157846037Y-120708908D01*
X157846037Y-120364194D01*
X157788585Y-120249289D01*
X157731132Y-120191837D01*
X159581704Y-120823813D02*
X160386037Y-120823813D01*
X159122085Y-120536551D02*
X159983870Y-120249289D01*
X159983870Y-120996170D01*
X161805897Y-120181677D02*
X161805897Y-120986010D01*
X163012397Y-120468939D01*
X164748064Y-120813653D02*
X165552397Y-120813653D01*
X164288445Y-120526391D02*
X165150230Y-120239129D01*
X165150230Y-120986010D01*
X168092397Y-120928558D02*
X168092397Y-120239129D01*
X168092397Y-120583843D02*
X166885897Y-120583843D01*
X167058254Y-120468939D01*
X167173159Y-120354034D01*
X167230611Y-120239129D01*
X173235897Y-114288635D02*
X172029397Y-114288635D01*
X172029397Y-114748254D01*
X172086850Y-114863159D01*
X172144302Y-114920611D01*
X172259207Y-114978063D01*
X172431564Y-114978063D01*
X172546469Y-114920611D01*
X172603921Y-114863159D01*
X172661373Y-114748254D01*
X172661373Y-114288635D01*
X173235897Y-116127111D02*
X173235897Y-115437682D01*
X173235897Y-115782397D02*
X172029397Y-115782397D01*
X172201754Y-115667492D01*
X172316659Y-115552587D01*
X172374111Y-115437682D01*
X173120992Y-116644182D02*
X173178445Y-116701635D01*
X173235897Y-116644182D01*
X173178445Y-116586730D01*
X173120992Y-116644182D01*
X173235897Y-116644182D01*
X173235897Y-117850682D02*
X173235897Y-117161254D01*
X173235897Y-117505968D02*
X172029397Y-117505968D01*
X172201754Y-117391063D01*
X172316659Y-117276159D01*
X172374111Y-117161254D01*
X172029397Y-118597563D02*
X172029397Y-118712468D01*
X172086850Y-118827373D01*
X172144302Y-118884825D01*
X172259207Y-118942278D01*
X172489016Y-118999730D01*
X172776278Y-118999730D01*
X173006088Y-118942278D01*
X173120992Y-118884825D01*
X173178445Y-118827373D01*
X173235897Y-118712468D01*
X173235897Y-118597563D01*
X173178445Y-118482659D01*
X173120992Y-118425206D01*
X173006088Y-118367754D01*
X172776278Y-118310301D01*
X172489016Y-118310301D01*
X172259207Y-118367754D01*
X172144302Y-118425206D01*
X172086850Y-118482659D01*
X172029397Y-118597563D01*
D12*
X170523238Y-110751237D02*
X169558038Y-110751237D01*
X169558038Y-111118932D01*
X169604000Y-111210856D01*
X169649961Y-111256818D01*
X169741885Y-111302780D01*
X169879771Y-111302780D01*
X169971695Y-111256818D01*
X170017657Y-111210856D01*
X170063619Y-111118932D01*
X170063619Y-110751237D01*
X169558038Y-111624513D02*
X170523238Y-111854323D01*
X169833809Y-112038171D01*
X170523238Y-112222018D01*
X169558038Y-112451828D01*
X170523238Y-112819523D02*
X169558038Y-112819523D01*
X170247466Y-113141256D01*
X169558038Y-113462990D01*
X170523238Y-113462990D01*
X169558038Y-114106456D02*
X169558038Y-114198380D01*
X169604000Y-114290304D01*
X169649961Y-114336266D01*
X169741885Y-114382228D01*
X169925733Y-114428190D01*
X170155542Y-114428190D01*
X170339390Y-114382228D01*
X170431314Y-114336266D01*
X170477276Y-114290304D01*
X170523238Y-114198380D01*
X170523238Y-114106456D01*
X170477276Y-114014532D01*
X170431314Y-113968571D01*
X170339390Y-113922609D01*
X170155542Y-113876647D01*
X169925733Y-113876647D01*
X169741885Y-113922609D01*
X169649961Y-113968571D01*
X169604000Y-114014532D01*
X169558038Y-114106456D01*
X170247466Y-114795885D02*
X170247466Y-115255504D01*
X170523238Y-114703961D02*
X169558038Y-115025694D01*
X170523238Y-115347428D01*
D14*
X123769397Y-115709825D02*
X124975897Y-116111992D01*
X123769397Y-116514159D01*
X124975897Y-116916325D02*
X123769397Y-116916325D01*
X124975897Y-117490849D02*
X123769397Y-117490849D01*
X124975897Y-118180278D01*
X123769397Y-118180278D01*
D12*
X166580190Y-122203638D02*
X166580190Y-121238438D01*
X166212495Y-121238438D01*
X166120571Y-121284400D01*
X166074609Y-121330361D01*
X166028647Y-121422285D01*
X166028647Y-121560171D01*
X166074609Y-121652095D01*
X166120571Y-121698057D01*
X166212495Y-121744019D01*
X166580190Y-121744019D01*
X165063447Y-122203638D02*
X165385180Y-121744019D01*
X165614990Y-122203638D02*
X165614990Y-121238438D01*
X165247295Y-121238438D01*
X165155371Y-121284400D01*
X165109409Y-121330361D01*
X165063447Y-121422285D01*
X165063447Y-121560171D01*
X165109409Y-121652095D01*
X165155371Y-121698057D01*
X165247295Y-121744019D01*
X165614990Y-121744019D01*
X164649790Y-121238438D02*
X164649790Y-122019790D01*
X164603828Y-122111714D01*
X164557866Y-122157676D01*
X164465942Y-122203638D01*
X164282095Y-122203638D01*
X164190171Y-122157676D01*
X164144209Y-122111714D01*
X164098247Y-122019790D01*
X164098247Y-121238438D01*
X163454780Y-121238438D02*
X163362857Y-121238438D01*
X163270933Y-121284400D01*
X163224971Y-121330361D01*
X163179009Y-121422285D01*
X163133047Y-121606133D01*
X163133047Y-121835942D01*
X163179009Y-122019790D01*
X163224971Y-122111714D01*
X163270933Y-122157676D01*
X163362857Y-122203638D01*
X163454780Y-122203638D01*
X163546704Y-122157676D01*
X163592666Y-122111714D01*
X163638628Y-122019790D01*
X163684590Y-121835942D01*
X163684590Y-121606133D01*
X163638628Y-121422285D01*
X163592666Y-121330361D01*
X163546704Y-121284400D01*
X163454780Y-121238438D01*
X165500690Y-88739138D02*
X165500690Y-87773938D01*
X165132995Y-87773938D01*
X165041071Y-87819900D01*
X164995109Y-87865861D01*
X164949147Y-87957785D01*
X164949147Y-88095671D01*
X164995109Y-88187595D01*
X165041071Y-88233557D01*
X165132995Y-88279519D01*
X165500690Y-88279519D01*
X163983947Y-88739138D02*
X164305680Y-88279519D01*
X164535490Y-88739138D02*
X164535490Y-87773938D01*
X164167795Y-87773938D01*
X164075871Y-87819900D01*
X164029909Y-87865861D01*
X163983947Y-87957785D01*
X163983947Y-88095671D01*
X164029909Y-88187595D01*
X164075871Y-88233557D01*
X164167795Y-88279519D01*
X164535490Y-88279519D01*
X163570290Y-87773938D02*
X163570290Y-88555290D01*
X163524328Y-88647214D01*
X163478366Y-88693176D01*
X163386442Y-88739138D01*
X163202595Y-88739138D01*
X163110671Y-88693176D01*
X163064709Y-88647214D01*
X163018747Y-88555290D01*
X163018747Y-87773938D01*
X162375280Y-87773938D02*
X162283357Y-87773938D01*
X162191433Y-87819900D01*
X162145471Y-87865861D01*
X162099509Y-87957785D01*
X162053547Y-88141633D01*
X162053547Y-88371442D01*
X162099509Y-88555290D01*
X162145471Y-88647214D01*
X162191433Y-88693176D01*
X162283357Y-88739138D01*
X162375280Y-88739138D01*
X162467204Y-88693176D01*
X162513166Y-88647214D01*
X162559128Y-88555290D01*
X162605090Y-88371442D01*
X162605090Y-88141633D01*
X162559128Y-87957785D01*
X162513166Y-87865861D01*
X162467204Y-87819900D01*
X162375280Y-87773938D01*
X144065509Y-88233557D02*
X143927623Y-88279519D01*
X143881661Y-88325480D01*
X143835700Y-88417404D01*
X143835700Y-88555290D01*
X143881661Y-88647214D01*
X143927623Y-88693176D01*
X144019547Y-88739138D01*
X144387242Y-88739138D01*
X144387242Y-87773938D01*
X144065509Y-87773938D01*
X143973585Y-87819900D01*
X143927623Y-87865861D01*
X143881661Y-87957785D01*
X143881661Y-88049709D01*
X143927623Y-88141633D01*
X143973585Y-88187595D01*
X144065509Y-88233557D01*
X144387242Y-88233557D01*
X143468004Y-88463366D02*
X143008385Y-88463366D01*
X143559928Y-88739138D02*
X143238195Y-87773938D01*
X142916461Y-88739138D01*
X142732614Y-87773938D02*
X142181071Y-87773938D01*
X142456842Y-88739138D02*
X142456842Y-87773938D01*
D11*
X171369300Y-92303000D02*
X171369300Y-96621000D01*
X171369300Y-96621000D02*
X171369300Y-99669000D01*
X130729300Y-92303000D02*
X128189300Y-92303000D01*
X128189300Y-92303000D02*
X125649300Y-92303000D01*
X128189300Y-117703000D02*
X125649300Y-117703000D01*
X125649300Y-117703000D02*
X125649300Y-113385000D01*
X125649300Y-113385000D02*
X125649300Y-110337000D01*
X130729300Y-110337000D02*
X128189300Y-110337000D01*
X128189300Y-110337000D02*
X125649300Y-110337000D01*
X140889300Y-110337000D02*
X130729300Y-110337000D01*
X140889300Y-117703000D02*
X140889300Y-110337000D01*
D12*
X134704400Y-111680176D02*
X134566514Y-111726138D01*
X134336704Y-111726138D01*
X134244780Y-111680176D01*
X134198819Y-111634214D01*
X134152857Y-111542290D01*
X134152857Y-111450366D01*
X134198819Y-111358442D01*
X134244780Y-111312480D01*
X134336704Y-111266519D01*
X134520552Y-111220557D01*
X134612476Y-111174595D01*
X134658438Y-111128633D01*
X134704400Y-111036709D01*
X134704400Y-110944785D01*
X134658438Y-110852861D01*
X134612476Y-110806900D01*
X134520552Y-110760938D01*
X134290742Y-110760938D01*
X134152857Y-110806900D01*
X133739200Y-111726138D02*
X133739200Y-110760938D01*
X133371504Y-110760938D01*
X133279580Y-110806900D01*
X133233619Y-110852861D01*
X133187657Y-110944785D01*
X133187657Y-111082671D01*
X133233619Y-111174595D01*
X133279580Y-111220557D01*
X133371504Y-111266519D01*
X133739200Y-111266519D01*
X132774000Y-111726138D02*
X132774000Y-110760938D01*
X132130533Y-110760938D02*
X132038609Y-110760938D01*
X131946685Y-110806900D01*
X131900723Y-110852861D01*
X131854761Y-110944785D01*
X131808800Y-111128633D01*
X131808800Y-111358442D01*
X131854761Y-111542290D01*
X131900723Y-111634214D01*
X131946685Y-111680176D01*
X132038609Y-111726138D01*
X132130533Y-111726138D01*
X132222457Y-111680176D01*
X132268419Y-111634214D01*
X132314380Y-111542290D01*
X132360342Y-111358442D01*
X132360342Y-111128633D01*
X132314380Y-110944785D01*
X132268419Y-110852861D01*
X132222457Y-110806900D01*
X132130533Y-110760938D01*
X140268209Y-121238438D02*
X140268209Y-122019790D01*
X140222247Y-122111714D01*
X140176285Y-122157676D01*
X140084361Y-122203638D01*
X139900514Y-122203638D01*
X139808590Y-122157676D01*
X139762628Y-122111714D01*
X139716666Y-122019790D01*
X139716666Y-121238438D01*
X139303009Y-122157676D02*
X139165123Y-122203638D01*
X138935314Y-122203638D01*
X138843390Y-122157676D01*
X138797428Y-122111714D01*
X138751466Y-122019790D01*
X138751466Y-121927866D01*
X138797428Y-121835942D01*
X138843390Y-121789980D01*
X138935314Y-121744019D01*
X139119161Y-121698057D01*
X139211085Y-121652095D01*
X139257047Y-121606133D01*
X139303009Y-121514209D01*
X139303009Y-121422285D01*
X139257047Y-121330361D01*
X139211085Y-121284400D01*
X139119161Y-121238438D01*
X138889352Y-121238438D01*
X138751466Y-121284400D01*
X138016076Y-121698057D02*
X137878190Y-121744019D01*
X137832228Y-121789980D01*
X137786266Y-121881904D01*
X137786266Y-122019790D01*
X137832228Y-122111714D01*
X137878190Y-122157676D01*
X137970114Y-122203638D01*
X138337809Y-122203638D01*
X138337809Y-121238438D01*
X138016076Y-121238438D01*
X137924152Y-121284400D01*
X137878190Y-121330361D01*
X137832228Y-121422285D01*
X137832228Y-121514209D01*
X137878190Y-121606133D01*
X137924152Y-121652095D01*
X138016076Y-121698057D01*
X138337809Y-121698057D01*
X136867028Y-122203638D02*
X137418571Y-122203638D01*
X137142800Y-122203638D02*
X137142800Y-121238438D01*
X137234723Y-121376323D01*
X137326647Y-121468247D01*
X137418571Y-121514209D01*
D11*
X145969300Y-110337000D02*
X143429300Y-110337000D01*
X143429300Y-110337000D02*
X140889300Y-110337000D01*
X145969300Y-110337000D02*
X148509300Y-110337000D01*
X148509300Y-110337000D02*
X151049300Y-110337000D01*
X151049300Y-110337000D02*
X153589300Y-110337000D01*
X153589300Y-110337000D02*
X156129300Y-110337000D01*
X156129300Y-110337000D02*
X161209300Y-110337000D01*
X161209300Y-110337000D02*
X166289300Y-110337000D01*
X166289300Y-110337000D02*
X168829300Y-110337000D01*
X168829300Y-110337000D02*
X171369300Y-110337000D01*
X171369300Y-117703000D02*
X171369300Y-113385000D01*
X171369300Y-113385000D02*
X171369300Y-110337000D01*
X168829300Y-117703000D02*
X171369300Y-117703000D01*
X168829300Y-117703000D02*
X168829300Y-110337000D01*
X171369300Y-113385000D02*
X173909300Y-113385000D01*
X173909300Y-118592000D02*
X173909300Y-113385000D01*
D12*
X160058438Y-111726138D02*
X160058438Y-110760938D01*
X159644780Y-110852861D02*
X159598819Y-110806900D01*
X159506895Y-110760938D01*
X159277085Y-110760938D01*
X159185161Y-110806900D01*
X159139200Y-110852861D01*
X159093238Y-110944785D01*
X159093238Y-111036709D01*
X159139200Y-111174595D01*
X159690742Y-111726138D01*
X159093238Y-111726138D01*
X158128038Y-111634214D02*
X158174000Y-111680176D01*
X158311885Y-111726138D01*
X158403809Y-111726138D01*
X158541695Y-111680176D01*
X158633619Y-111588252D01*
X158679580Y-111496328D01*
X158725542Y-111312480D01*
X158725542Y-111174595D01*
X158679580Y-110990747D01*
X158633619Y-110898823D01*
X158541695Y-110806900D01*
X158403809Y-110760938D01*
X158311885Y-110760938D01*
X158174000Y-110806900D01*
X158128038Y-110852861D01*
X157760342Y-110852861D02*
X157714380Y-110806900D01*
X157622457Y-110760938D01*
X157392647Y-110760938D01*
X157300723Y-110806900D01*
X157254761Y-110852861D01*
X157208800Y-110944785D01*
X157208800Y-111036709D01*
X157254761Y-111174595D01*
X157806304Y-111726138D01*
X157208800Y-111726138D01*
D11*
X125649300Y-113385000D02*
X123109300Y-113385000D01*
X123109300Y-118592000D02*
X123109300Y-113385000D01*
D12*
X165247900Y-99170676D02*
X165110014Y-99216638D01*
X164880204Y-99216638D01*
X164788280Y-99170676D01*
X164742319Y-99124714D01*
X164696357Y-99032790D01*
X164696357Y-98940866D01*
X164742319Y-98848942D01*
X164788280Y-98802980D01*
X164880204Y-98757019D01*
X165064052Y-98711057D01*
X165155976Y-98665095D01*
X165201938Y-98619133D01*
X165247900Y-98527209D01*
X165247900Y-98435285D01*
X165201938Y-98343361D01*
X165155976Y-98297400D01*
X165064052Y-98251438D01*
X164834242Y-98251438D01*
X164696357Y-98297400D01*
X164282700Y-99216638D02*
X164282700Y-98251438D01*
X163915004Y-98251438D01*
X163823080Y-98297400D01*
X163777119Y-98343361D01*
X163731157Y-98435285D01*
X163731157Y-98573171D01*
X163777119Y-98665095D01*
X163823080Y-98711057D01*
X163915004Y-98757019D01*
X164282700Y-98757019D01*
X163317500Y-99216638D02*
X163317500Y-98251438D01*
X162352300Y-99216638D02*
X162903842Y-99216638D01*
X162628071Y-99216638D02*
X162628071Y-98251438D01*
X162719995Y-98389323D01*
X162811919Y-98481247D01*
X162903842Y-98527209D01*
D11*
X156129300Y-99669000D02*
X166289300Y-99669000D01*
X166289300Y-99669000D02*
X168829300Y-99669000D01*
X168829300Y-99669000D02*
X171369300Y-99669000D01*
X151049300Y-99669000D02*
X153589300Y-99669000D01*
X153589300Y-99669000D02*
X156129300Y-99669000D01*
X145969300Y-99669000D02*
X148509300Y-99669000D01*
X148509300Y-99669000D02*
X151049300Y-99669000D01*
X140889300Y-99669000D02*
X143429300Y-99669000D01*
X143429300Y-99669000D02*
X145969300Y-99669000D01*
X135809300Y-99669000D02*
X140889300Y-99669000D01*
X130729300Y-99669000D02*
X135809300Y-99669000D01*
X125649300Y-99669000D02*
X128189300Y-99669000D01*
X128189300Y-99669000D02*
X130729300Y-99669000D01*
X125649300Y-92303000D02*
X125649300Y-96621000D01*
X125649300Y-96621000D02*
X125649300Y-99669000D01*
X123109300Y-96621000D02*
X125649300Y-96621000D01*
X123109300Y-91414000D02*
X123109300Y-96621000D01*
X156129300Y-92303000D02*
X156129300Y-87604000D01*
X128189300Y-117703000D02*
X128189300Y-110337000D01*
X168829300Y-92303000D02*
X168829300Y-99669000D01*
X153589300Y-92303000D02*
X153589300Y-99669000D01*
X148509300Y-92303000D02*
X148509300Y-99669000D01*
X143429300Y-92303000D02*
X143429300Y-99669000D01*
X128189300Y-92303000D02*
X128189300Y-99669000D01*
X171369300Y-96621000D02*
X173909300Y-96621000D01*
X173909300Y-91414000D02*
X173909300Y-96621000D01*
D12*
X139547938Y-99216638D02*
X139547938Y-98251438D01*
X139134280Y-98343361D02*
X139088319Y-98297400D01*
X138996395Y-98251438D01*
X138766585Y-98251438D01*
X138674661Y-98297400D01*
X138628700Y-98343361D01*
X138582738Y-98435285D01*
X138582738Y-98527209D01*
X138628700Y-98665095D01*
X139180242Y-99216638D01*
X138582738Y-99216638D01*
X137617538Y-99124714D02*
X137663500Y-99170676D01*
X137801385Y-99216638D01*
X137893309Y-99216638D01*
X138031195Y-99170676D01*
X138123119Y-99078752D01*
X138169080Y-98986828D01*
X138215042Y-98802980D01*
X138215042Y-98665095D01*
X138169080Y-98481247D01*
X138123119Y-98389323D01*
X138031195Y-98297400D01*
X137893309Y-98251438D01*
X137801385Y-98251438D01*
X137663500Y-98297400D01*
X137617538Y-98343361D01*
X136698300Y-99216638D02*
X137249842Y-99216638D01*
X136974071Y-99216638D02*
X136974071Y-98251438D01*
X137065995Y-98389323D01*
X137157919Y-98481247D01*
X137249842Y-98527209D01*
X133928490Y-98251438D02*
X133928490Y-99032790D01*
X133882528Y-99124714D01*
X133836566Y-99170676D01*
X133744642Y-99216638D01*
X133560795Y-99216638D01*
X133468871Y-99170676D01*
X133422909Y-99124714D01*
X133376947Y-99032790D01*
X133376947Y-98251438D01*
X132503671Y-98573171D02*
X132503671Y-99216638D01*
X132733480Y-98205476D02*
X132963290Y-98894904D01*
X132365785Y-98894904D01*
D16*
X174736765Y-112503861D02*
X174736765Y-110935411D01*
X174139260Y-110935411D01*
X173989884Y-111010100D01*
X173915196Y-111084788D01*
X173840508Y-111234164D01*
X173840508Y-111458228D01*
X173915196Y-111607604D01*
X173989884Y-111682292D01*
X174139260Y-111756980D01*
X174736765Y-111756980D01*
X172346746Y-112503861D02*
X173243003Y-112503861D01*
X172794875Y-112503861D02*
X172794875Y-110935411D01*
X172944251Y-111159476D01*
X173093627Y-111308852D01*
X173243003Y-111383540D01*
X174369149Y-98953561D02*
X174369149Y-97385111D01*
X173771644Y-97385111D01*
X173622268Y-97459800D01*
X173547580Y-97534488D01*
X173472892Y-97683864D01*
X173472892Y-97907928D01*
X173547580Y-98057304D01*
X173622268Y-98131992D01*
X173771644Y-98206680D01*
X174369149Y-98206680D01*
X172875387Y-97534488D02*
X172800699Y-97459800D01*
X172651323Y-97385111D01*
X172277882Y-97385111D01*
X172128506Y-97459800D01*
X172053818Y-97534488D01*
X171979130Y-97683864D01*
X171979130Y-97833240D01*
X172053818Y-98057304D01*
X172950075Y-98953561D01*
X171979130Y-98953561D01*
D11*
X153589300Y-117703000D02*
X153589300Y-110337000D01*
X143429300Y-117703000D02*
X143429300Y-110337000D01*
D12*
X164471990Y-110760938D02*
X164471990Y-111542290D01*
X164426028Y-111634214D01*
X164380066Y-111680176D01*
X164288142Y-111726138D01*
X164104295Y-111726138D01*
X164012371Y-111680176D01*
X163966409Y-111634214D01*
X163920447Y-111542290D01*
X163920447Y-110760938D01*
X163276980Y-110760938D02*
X163185057Y-110760938D01*
X163093133Y-110806900D01*
X163047171Y-110852861D01*
X163001209Y-110944785D01*
X162955247Y-111128633D01*
X162955247Y-111358442D01*
X163001209Y-111542290D01*
X163047171Y-111634214D01*
X163093133Y-111680176D01*
X163185057Y-111726138D01*
X163276980Y-111726138D01*
X163368904Y-111680176D01*
X163414866Y-111634214D01*
X163460828Y-111542290D01*
X163506790Y-111358442D01*
X163506790Y-111128633D01*
X163460828Y-110944785D01*
X163414866Y-110852861D01*
X163368904Y-110806900D01*
X163276980Y-110760938D01*
D11*
X128189300Y-90271000D02*
X128189300Y-92303000D01*
D17*
X169866100Y-102753600D02*
X171136100Y-102753600D01*
X170501100Y-102118600D02*
X170501100Y-103388600D01*
X171366100Y-101628600D02*
X172636100Y-101628600D01*
X172001100Y-100993600D02*
X172001100Y-102263600D01*
X171366100Y-106128600D02*
X172636100Y-106128600D01*
X172001100Y-105493600D02*
X172001100Y-106763600D01*
X169866100Y-105003600D02*
X171136100Y-105003600D01*
X170501100Y-104368600D02*
X170501100Y-105638600D01*
X171366100Y-108378600D02*
X172636100Y-108378600D01*
X172001100Y-107743600D02*
X172001100Y-109013600D01*
X169866100Y-107253600D02*
X171136100Y-107253600D01*
X170501100Y-106618600D02*
X170501100Y-107888600D01*
X171366100Y-103878600D02*
X172636100Y-103878600D01*
X172001100Y-103243600D02*
X172001100Y-104513600D01*
X145639100Y-108787600D02*
X145639100Y-110057600D01*
X146274100Y-109422600D02*
X145004100Y-109422600D01*
X137892100Y-108787600D02*
X137892100Y-110057600D01*
X138527100Y-109422600D02*
X137257100Y-109422600D01*
X135606100Y-108787600D02*
X135606100Y-110057600D01*
X136241100Y-109422600D02*
X134971100Y-109422600D01*
X148179100Y-108787600D02*
X148179100Y-110057600D01*
X148814100Y-109422600D02*
X147544100Y-109422600D01*
X150719100Y-100532600D02*
X150719100Y-101802600D01*
X151354100Y-101167600D02*
X150084100Y-101167600D01*
D18*
X169363934Y-103239751D02*
X169109934Y-103239751D01*
X169001077Y-103638894D02*
X169363934Y-103638894D01*
X169363934Y-102876894D01*
X169001077Y-102876894D01*
X168674505Y-103638894D02*
X168674505Y-102876894D01*
X168420505Y-103421180D01*
X168166505Y-102876894D01*
X168166505Y-103638894D01*
X167803648Y-102876894D02*
X167803648Y-103493751D01*
X167767362Y-103566322D01*
X167731077Y-103602608D01*
X167658505Y-103638894D01*
X167513362Y-103638894D01*
X167440791Y-103602608D01*
X167404505Y-103566322D01*
X167368220Y-103493751D01*
X167368220Y-102876894D01*
X166860220Y-102876894D02*
X166787648Y-102876894D01*
X166715077Y-102913180D01*
X166678791Y-102949465D01*
X166642505Y-103022037D01*
X166606220Y-103167180D01*
X166606220Y-103348608D01*
X166642505Y-103493751D01*
X166678791Y-103566322D01*
X166715077Y-103602608D01*
X166787648Y-103638894D01*
X166860220Y-103638894D01*
X166932791Y-103602608D01*
X166969077Y-103566322D01*
X167005362Y-103493751D01*
X167041648Y-103348608D01*
X167041648Y-103167180D01*
X167005362Y-103022037D01*
X166969077Y-102949465D01*
X166932791Y-102913180D01*
X166860220Y-102876894D01*
X175655514Y-101598911D02*
X175401514Y-101598911D01*
X175292657Y-101998054D02*
X175655514Y-101998054D01*
X175655514Y-101236054D01*
X175292657Y-101236054D01*
X174966085Y-101998054D02*
X174966085Y-101236054D01*
X174712085Y-101780340D01*
X174458085Y-101236054D01*
X174458085Y-101998054D01*
X174095228Y-101236054D02*
X174095228Y-101852911D01*
X174058942Y-101925482D01*
X174022657Y-101961768D01*
X173950085Y-101998054D01*
X173804942Y-101998054D01*
X173732371Y-101961768D01*
X173696085Y-101925482D01*
X173659800Y-101852911D01*
X173659800Y-101236054D01*
X172897800Y-101998054D02*
X173333228Y-101998054D01*
X173115514Y-101998054D02*
X173115514Y-101236054D01*
X173188085Y-101344911D01*
X173260657Y-101417482D01*
X173333228Y-101453768D01*
X175417117Y-105767414D02*
X174981688Y-105767414D01*
X175199402Y-106529414D02*
X175199402Y-105767414D01*
X174292260Y-106529414D02*
X174546260Y-106166557D01*
X174727688Y-106529414D02*
X174727688Y-105767414D01*
X174437402Y-105767414D01*
X174364831Y-105803700D01*
X174328545Y-105839985D01*
X174292260Y-105912557D01*
X174292260Y-106021414D01*
X174328545Y-106093985D01*
X174364831Y-106130271D01*
X174437402Y-106166557D01*
X174727688Y-106166557D01*
X174001974Y-106493128D02*
X173893117Y-106529414D01*
X173711688Y-106529414D01*
X173639117Y-106493128D01*
X173602831Y-106456842D01*
X173566545Y-106384271D01*
X173566545Y-106311700D01*
X173602831Y-106239128D01*
X173639117Y-106202842D01*
X173711688Y-106166557D01*
X173856831Y-106130271D01*
X173929402Y-106093985D01*
X173965688Y-106057700D01*
X174001974Y-105985128D01*
X174001974Y-105912557D01*
X173965688Y-105839985D01*
X173929402Y-105803700D01*
X173856831Y-105767414D01*
X173675402Y-105767414D01*
X173566545Y-105803700D01*
X173348831Y-105767414D02*
X172913402Y-105767414D01*
X173131117Y-106529414D02*
X173131117Y-105767414D01*
X169400220Y-104591394D02*
X168964791Y-104591394D01*
X169182505Y-105353394D02*
X169182505Y-104591394D01*
X168710791Y-105353394D02*
X168710791Y-104591394D01*
X168456791Y-105135680D01*
X168202791Y-104591394D01*
X168202791Y-105353394D01*
X167876220Y-105317108D02*
X167767362Y-105353394D01*
X167585934Y-105353394D01*
X167513362Y-105317108D01*
X167477077Y-105280822D01*
X167440791Y-105208251D01*
X167440791Y-105135680D01*
X167477077Y-105063108D01*
X167513362Y-105026822D01*
X167585934Y-104990537D01*
X167731077Y-104954251D01*
X167803648Y-104917965D01*
X167839934Y-104881680D01*
X167876220Y-104809108D01*
X167876220Y-104736537D01*
X167839934Y-104663965D01*
X167803648Y-104627680D01*
X167731077Y-104591394D01*
X167549648Y-104591394D01*
X167440791Y-104627680D01*
X174987857Y-107961974D02*
X174552428Y-107961974D01*
X174770142Y-108723974D02*
X174770142Y-107961974D01*
X174298428Y-108723974D02*
X174298428Y-107961974D01*
X174117000Y-107961974D01*
X174008142Y-107998260D01*
X173935571Y-108070831D01*
X173899285Y-108143402D01*
X173863000Y-108288545D01*
X173863000Y-108397402D01*
X173899285Y-108542545D01*
X173935571Y-108615117D01*
X174008142Y-108687688D01*
X174117000Y-108723974D01*
X174298428Y-108723974D01*
X173391285Y-107961974D02*
X173246142Y-107961974D01*
X173173571Y-107998260D01*
X173101000Y-108070831D01*
X173064714Y-108215974D01*
X173064714Y-108469974D01*
X173101000Y-108615117D01*
X173173571Y-108687688D01*
X173246142Y-108723974D01*
X173391285Y-108723974D01*
X173463857Y-108687688D01*
X173536428Y-108615117D01*
X173572714Y-108469974D01*
X173572714Y-108215974D01*
X173536428Y-108070831D01*
X173463857Y-107998260D01*
X173391285Y-107961974D01*
X169319302Y-106829134D02*
X168883874Y-106829134D01*
X169101588Y-107591134D02*
X169101588Y-106829134D01*
X168629874Y-107591134D02*
X168629874Y-106829134D01*
X168448445Y-106829134D01*
X168339588Y-106865420D01*
X168267017Y-106937991D01*
X168230731Y-107010562D01*
X168194445Y-107155705D01*
X168194445Y-107264562D01*
X168230731Y-107409705D01*
X168267017Y-107482277D01*
X168339588Y-107554848D01*
X168448445Y-107591134D01*
X168629874Y-107591134D01*
X167867874Y-107591134D02*
X167867874Y-106829134D01*
X174906214Y-103496654D02*
X174470785Y-103496654D01*
X174688500Y-104258654D02*
X174688500Y-103496654D01*
X173781357Y-104186082D02*
X173817642Y-104222368D01*
X173926500Y-104258654D01*
X173999071Y-104258654D01*
X174107928Y-104222368D01*
X174180500Y-104149797D01*
X174216785Y-104077225D01*
X174253071Y-103932082D01*
X174253071Y-103823225D01*
X174216785Y-103678082D01*
X174180500Y-103605511D01*
X174107928Y-103532940D01*
X173999071Y-103496654D01*
X173926500Y-103496654D01*
X173817642Y-103532940D01*
X173781357Y-103569225D01*
X173454785Y-104258654D02*
X173454785Y-103496654D01*
X173019357Y-104258654D02*
X173345928Y-103823225D01*
X173019357Y-103496654D02*
X173454785Y-103932082D01*
X154582222Y-107946734D02*
X154328222Y-108708734D01*
X154074222Y-107946734D01*
X153820222Y-108708734D02*
X153820222Y-107946734D01*
X153638794Y-107946734D01*
X153529937Y-107983020D01*
X153457365Y-108055591D01*
X153421080Y-108128162D01*
X153384794Y-108273305D01*
X153384794Y-108382162D01*
X153421080Y-108527305D01*
X153457365Y-108599877D01*
X153529937Y-108672448D01*
X153638794Y-108708734D01*
X153820222Y-108708734D01*
X153058222Y-108708734D02*
X153058222Y-107946734D01*
X152876794Y-107946734D01*
X152767937Y-107983020D01*
X152695365Y-108055591D01*
X152659080Y-108128162D01*
X152622794Y-108273305D01*
X152622794Y-108382162D01*
X152659080Y-108527305D01*
X152695365Y-108599877D01*
X152767937Y-108672448D01*
X152876794Y-108708734D01*
X153058222Y-108708734D01*
X152477651Y-108781305D02*
X151897080Y-108781305D01*
X151280222Y-108636162D02*
X151316508Y-108672448D01*
X151425365Y-108708734D01*
X151497937Y-108708734D01*
X151606794Y-108672448D01*
X151679365Y-108599877D01*
X151715651Y-108527305D01*
X151751937Y-108382162D01*
X151751937Y-108273305D01*
X151715651Y-108128162D01*
X151679365Y-108055591D01*
X151606794Y-107983020D01*
X151497937Y-107946734D01*
X151425365Y-107946734D01*
X151316508Y-107983020D01*
X151280222Y-108019305D01*
X150808508Y-107946734D02*
X150663365Y-107946734D01*
X150590794Y-107983020D01*
X150518222Y-108055591D01*
X150481937Y-108200734D01*
X150481937Y-108454734D01*
X150518222Y-108599877D01*
X150590794Y-108672448D01*
X150663365Y-108708734D01*
X150808508Y-108708734D01*
X150881080Y-108672448D01*
X150953651Y-108599877D01*
X150989937Y-108454734D01*
X150989937Y-108200734D01*
X150953651Y-108055591D01*
X150881080Y-107983020D01*
X150808508Y-107946734D01*
X149719937Y-108708734D02*
X149973937Y-108345877D01*
X150155365Y-108708734D02*
X150155365Y-107946734D01*
X149865080Y-107946734D01*
X149792508Y-107983020D01*
X149756222Y-108019305D01*
X149719937Y-108091877D01*
X149719937Y-108200734D01*
X149756222Y-108273305D01*
X149792508Y-108309591D01*
X149865080Y-108345877D01*
X150155365Y-108345877D01*
X149393365Y-108309591D02*
X149139365Y-108309591D01*
X149030508Y-108708734D02*
X149393365Y-108708734D01*
X149393365Y-107946734D01*
X149030508Y-107946734D01*
X134886700Y-107801954D02*
X134632700Y-108563954D01*
X134378700Y-107801954D01*
X134124700Y-108563954D02*
X134124700Y-107801954D01*
X133943271Y-107801954D01*
X133834414Y-107838240D01*
X133761842Y-107910811D01*
X133725557Y-107983382D01*
X133689271Y-108128525D01*
X133689271Y-108237382D01*
X133725557Y-108382525D01*
X133761842Y-108455097D01*
X133834414Y-108527668D01*
X133943271Y-108563954D01*
X134124700Y-108563954D01*
X133362700Y-108563954D02*
X133362700Y-107801954D01*
X133181271Y-107801954D01*
X133072414Y-107838240D01*
X132999842Y-107910811D01*
X132963557Y-107983382D01*
X132927271Y-108128525D01*
X132927271Y-108237382D01*
X132963557Y-108382525D01*
X132999842Y-108455097D01*
X133072414Y-108527668D01*
X133181271Y-108563954D01*
X133362700Y-108563954D01*
X132636985Y-108527668D02*
X132528128Y-108563954D01*
X132346700Y-108563954D01*
X132274128Y-108527668D01*
X132237842Y-108491382D01*
X132201557Y-108418811D01*
X132201557Y-108346240D01*
X132237842Y-108273668D01*
X132274128Y-108237382D01*
X132346700Y-108201097D01*
X132491842Y-108164811D01*
X132564414Y-108128525D01*
X132600700Y-108092240D01*
X132636985Y-108019668D01*
X132636985Y-107947097D01*
X132600700Y-107874525D01*
X132564414Y-107838240D01*
X132491842Y-107801954D01*
X132310414Y-107801954D01*
X132201557Y-107838240D01*
X132056414Y-108636525D02*
X131475842Y-108636525D01*
X131294414Y-108563954D02*
X131294414Y-107801954D01*
X131004128Y-107801954D01*
X130931557Y-107838240D01*
X130895271Y-107874525D01*
X130858985Y-107947097D01*
X130858985Y-108055954D01*
X130895271Y-108128525D01*
X130931557Y-108164811D01*
X131004128Y-108201097D01*
X131294414Y-108201097D01*
X130169557Y-108563954D02*
X130532414Y-108563954D01*
X130532414Y-107801954D01*
X129552700Y-108563954D02*
X129915557Y-108563954D01*
X129915557Y-107801954D01*
X134797437Y-109059254D02*
X134543437Y-109821254D01*
X134289437Y-109059254D01*
X134035437Y-109821254D02*
X134035437Y-109059254D01*
X133854008Y-109059254D01*
X133745151Y-109095540D01*
X133672580Y-109168111D01*
X133636294Y-109240682D01*
X133600008Y-109385825D01*
X133600008Y-109494682D01*
X133636294Y-109639825D01*
X133672580Y-109712397D01*
X133745151Y-109784968D01*
X133854008Y-109821254D01*
X134035437Y-109821254D01*
X133273437Y-109821254D02*
X133273437Y-109059254D01*
X133092008Y-109059254D01*
X132983151Y-109095540D01*
X132910580Y-109168111D01*
X132874294Y-109240682D01*
X132838008Y-109385825D01*
X132838008Y-109494682D01*
X132874294Y-109639825D01*
X132910580Y-109712397D01*
X132983151Y-109784968D01*
X133092008Y-109821254D01*
X133273437Y-109821254D01*
X132692865Y-109893825D02*
X132112294Y-109893825D01*
X131930865Y-109821254D02*
X131930865Y-109059254D01*
X131676865Y-109603540D01*
X131422865Y-109059254D01*
X131422865Y-109821254D01*
X131060008Y-109821254D02*
X131060008Y-109059254D01*
X130769722Y-109059254D01*
X130697151Y-109095540D01*
X130660865Y-109131825D01*
X130624580Y-109204397D01*
X130624580Y-109313254D01*
X130660865Y-109385825D01*
X130697151Y-109422111D01*
X130769722Y-109458397D01*
X131060008Y-109458397D01*
X130298008Y-109059254D02*
X130298008Y-109676111D01*
X130261722Y-109748682D01*
X130225437Y-109784968D01*
X130152865Y-109821254D01*
X130007722Y-109821254D01*
X129935151Y-109784968D01*
X129898865Y-109748682D01*
X129862580Y-109676111D01*
X129862580Y-109059254D01*
X154622862Y-109064334D02*
X154368862Y-109826334D01*
X154114862Y-109064334D01*
X153860862Y-109826334D02*
X153860862Y-109064334D01*
X153679434Y-109064334D01*
X153570577Y-109100620D01*
X153498005Y-109173191D01*
X153461720Y-109245762D01*
X153425434Y-109390905D01*
X153425434Y-109499762D01*
X153461720Y-109644905D01*
X153498005Y-109717477D01*
X153570577Y-109790048D01*
X153679434Y-109826334D01*
X153860862Y-109826334D01*
X153098862Y-109826334D02*
X153098862Y-109064334D01*
X152917434Y-109064334D01*
X152808577Y-109100620D01*
X152736005Y-109173191D01*
X152699720Y-109245762D01*
X152663434Y-109390905D01*
X152663434Y-109499762D01*
X152699720Y-109644905D01*
X152736005Y-109717477D01*
X152808577Y-109790048D01*
X152917434Y-109826334D01*
X153098862Y-109826334D01*
X152373148Y-109790048D02*
X152264291Y-109826334D01*
X152082862Y-109826334D01*
X152010291Y-109790048D01*
X151974005Y-109753762D01*
X151937720Y-109681191D01*
X151937720Y-109608620D01*
X151974005Y-109536048D01*
X152010291Y-109499762D01*
X152082862Y-109463477D01*
X152228005Y-109427191D01*
X152300577Y-109390905D01*
X152336862Y-109354620D01*
X152373148Y-109282048D01*
X152373148Y-109209477D01*
X152336862Y-109136905D01*
X152300577Y-109100620D01*
X152228005Y-109064334D01*
X152046577Y-109064334D01*
X151937720Y-109100620D01*
X151792577Y-109898905D02*
X151212005Y-109898905D01*
X151030577Y-109826334D02*
X151030577Y-109064334D01*
X150849148Y-109064334D01*
X150740291Y-109100620D01*
X150667720Y-109173191D01*
X150631434Y-109245762D01*
X150595148Y-109390905D01*
X150595148Y-109499762D01*
X150631434Y-109644905D01*
X150667720Y-109717477D01*
X150740291Y-109790048D01*
X150849148Y-109826334D01*
X151030577Y-109826334D01*
X150268577Y-109826334D02*
X150268577Y-109064334D01*
X150087148Y-109064334D01*
X149978291Y-109100620D01*
X149905720Y-109173191D01*
X149869434Y-109245762D01*
X149833148Y-109390905D01*
X149833148Y-109499762D01*
X149869434Y-109644905D01*
X149905720Y-109717477D01*
X149978291Y-109790048D01*
X150087148Y-109826334D01*
X150268577Y-109826334D01*
X149071148Y-109826334D02*
X149325148Y-109463477D01*
X149506577Y-109826334D02*
X149506577Y-109064334D01*
X149216291Y-109064334D01*
X149143720Y-109100620D01*
X149107434Y-109136905D01*
X149071148Y-109209477D01*
X149071148Y-109318334D01*
X149107434Y-109390905D01*
X149143720Y-109427191D01*
X149216291Y-109463477D01*
X149506577Y-109463477D01*
X153084711Y-100753454D02*
X152903282Y-101515454D01*
X152758140Y-100971168D01*
X152612997Y-101515454D01*
X152431568Y-100753454D01*
X152141282Y-101515454D02*
X152141282Y-100753454D01*
X151850997Y-100753454D01*
X151778425Y-100789740D01*
X151742140Y-100826025D01*
X151705854Y-100898597D01*
X151705854Y-101007454D01*
X151742140Y-101080025D01*
X151778425Y-101116311D01*
X151850997Y-101152597D01*
X152141282Y-101152597D01*
M02*
