M48
;DRILL file {KiCad (2017-08-02 revision 9760937)-master} date Tue Aug 15 11:40:44 2017
;FORMAT={-:-/ absolute / inch / decimal}
FMAT,2
INCH,TZ
T1C0.015
T2C0.016
T3C0.020
T4C0.030
T5C0.035
%
G90
G05
M72
T1
X4.8448Y-4.306
X4.8538Y-3.803
X4.9028Y-3.984
X4.9028Y-4.04
X4.9088Y-3.848
X4.9088Y-3.883
X4.9088Y-3.918
X4.9398Y-3.984
X4.9398Y-4.04
X4.9408Y-4.526
X4.9618Y-3.818
X5.0038Y-4.333
X5.0038Y-4.373
X5.0038Y-4.413
X5.0038Y-4.453
X5.0938Y-4.433
X5.1358Y-4.184
X5.1438Y-3.753
X5.1588Y-4.008
X5.1738Y-3.773
X5.1748Y-4.121
X5.1748Y-4.154
X5.1988Y-4.178
X5.2038Y-3.988
X5.2038Y-4.02
X5.2038Y-4.053
X5.2038Y-4.086
X5.2338Y-3.833
X5.2338Y-3.883
X5.2338Y-3.933
X5.2338Y-4.383
X5.2338Y-4.433
X5.2338Y-4.483
X5.2838Y-3.933
X5.2838Y-4.033
X5.2838Y-4.383
X5.2838Y-4.433
X5.2838Y-4.483
X5.3338Y-3.783
X5.3338Y-3.833
X5.3338Y-3.883
X5.3338Y-3.983
X5.3338Y-4.033
X5.3338Y-4.383
X5.3368Y-3.932
X5.3438Y-4.183
X5.3838Y-3.933
X5.3838Y-3.983
X5.3838Y-4.033
X5.3838Y-4.233
X5.3838Y-4.283
X5.3838Y-4.333
X5.4338Y-3.833
X5.4338Y-3.883
X5.4338Y-4.383
X5.4338Y-4.433
X5.4838Y-3.839
X5.4838Y-3.928
X5.4838Y-4.373
X5.5288Y-4.643
X5.5638Y-4.643
X5.6338Y-4.483
X5.6538Y-4.616
X5.6538Y-4.653
X5.6838Y-4.483
X5.7838Y-3.833
X5.7868Y-4.49
X5.8838Y-4.233
X5.8838Y-4.273
X5.8838Y-4.323
X5.8838Y-4.493
X5.8838Y-4.528
X5.9238Y-4.333
X5.9238Y-4.483
X5.9338Y-3.933
X5.9338Y-4.283
X5.9338Y-4.528
X5.9838Y-4.283
X5.9838Y-4.528
X6.0238Y-4.283
X6.0538Y-3.776
X6.0598Y-3.887
X6.1078Y-3.767
X6.1108Y-4.484
X6.1168Y-4.4
X6.1438Y-4.484
X6.1498Y-4.4
X6.1638Y-3.808
X6.1638Y-3.858
X6.1678Y-4.271
X6.1768Y-4.451
X6.1768Y-4.484
X6.1858Y-3.944
X6.2098Y-4.451
X6.2458Y-3.725
X6.2458Y-3.851
X6.2458Y-3.884
X6.2518Y-3.953
X6.2728Y-3.851
X6.2728Y-3.884
X6.2788Y-4.433
X6.2848Y-3.953
X6.2908Y-4.25
X6.3178Y-3.953
X6.3508Y-3.953
X6.3838Y-3.953
X6.3838Y-4.04
X6.3838Y-4.076
X6.3988Y-3.824
X6.4168Y-3.953
X6.4438Y-4.484
X6.4498Y-3.953
X6.6058Y-4.433
X6.6058Y-4.454
X6.6358Y-4.433
X6.6358Y-4.454
X6.6448Y-4.52
X6.6478Y-3.746
X6.6658Y-4.433
X6.6658Y-4.454
X6.7126Y-4.0897
X6.7126Y-4.1783
X6.7126Y-4.2669
X6.7717Y-4.0454
X6.7717Y-4.134
X6.7717Y-4.2226
X6.7717Y-4.3112
T2
X4.7968Y-3.962
X4.7968Y-4.007
X4.7968Y-4.062
X4.7968Y-4.111
X4.7968Y-4.157
X4.7968Y-4.206
X4.7968Y-4.261
X4.7968Y-4.306
X4.8448Y-3.962
X4.8448Y-4.007
X4.8448Y-4.062
X4.8448Y-4.111
X4.8448Y-4.157
X4.8448Y-4.206
X4.8448Y-4.261
X4.9028Y-4.228
X4.9028Y-4.284
X4.9398Y-4.228
X4.9398Y-4.284
X5.8338Y-4.133
X6.1708Y-4.088
X6.1828Y-4.382
X6.6058Y-3.821
X6.6058Y-3.842
X6.6358Y-3.821
X6.6358Y-3.842
X6.6658Y-3.821
X6.6658Y-3.842
T3
X5.1388Y-4.103
X5.4338Y-4.133
X5.4838Y-3.983
X5.4838Y-4.283
X5.5288Y-4.033
X5.5288Y-4.233
X5.5378Y-3.782
X5.5888Y-3.833
X5.6338Y-3.933
X5.6338Y-4.333
X5.7338Y-4.033
X5.7338Y-4.233
X5.7838Y-3.983
X5.7838Y-4.283
X6.6838Y-4.496
T4
X4.9948Y-4.181
T5
X4.9965Y-4.584
X4.9965Y-4.684
X5.0965Y-4.584
X5.0965Y-4.684
X5.1965Y-4.584
X5.1965Y-4.684
X5.2965Y-4.584
X5.2965Y-4.684
X5.3965Y-4.584
X5.3965Y-4.684
X5.4965Y-4.584
X5.4965Y-4.684
X5.5965Y-4.584
X5.5965Y-4.684
X5.6965Y-4.584
X5.6965Y-4.684
X5.7965Y-4.584
X5.7965Y-4.684
X5.8965Y-4.584
X5.8965Y-4.684
X5.9965Y-4.584
X5.9965Y-4.684
X6.0965Y-4.584
X6.0965Y-4.684
X6.1965Y-4.584
X6.1965Y-4.684
X6.2965Y-4.584
X6.2965Y-4.684
X6.3965Y-4.584
X6.3965Y-4.684
X6.4965Y-4.584
X6.4965Y-4.684
X6.5965Y-4.584
X6.5965Y-4.684
X6.6965Y-4.584
X6.6965Y-4.684
X4.9965Y-3.584
X4.9965Y-3.684
X5.0965Y-3.584
X5.0965Y-3.684
X5.1965Y-3.584
X5.1965Y-3.684
X5.2965Y-3.584
X5.2965Y-3.684
X5.3965Y-3.584
X5.3965Y-3.684
X5.4965Y-3.584
X5.4965Y-3.684
X5.5965Y-3.584
X5.5965Y-3.684
X5.6965Y-3.584
X5.6965Y-3.684
X5.7965Y-3.584
X5.7965Y-3.684
X5.8965Y-3.584
X5.8965Y-3.684
X5.9965Y-3.584
X5.9965Y-3.684
X6.0965Y-3.584
X6.0965Y-3.684
X6.1965Y-3.584
X6.1965Y-3.684
X6.2965Y-3.584
X6.2965Y-3.684
X6.3965Y-3.584
X6.3965Y-3.684
X6.4965Y-3.584
X6.4965Y-3.684
X6.5965Y-3.584
X6.5965Y-3.684
X6.6965Y-3.584
X6.6965Y-3.684
T0
M30
