<?xml version='1.0' encoding='UTF-8' standalone='no'?>
<!-- Created with Fritzing (http://www.fritzing.org/) -->
<svg xmlns="http://www.w3.org/2000/svg" version="1.2" width="2.19291in" x="0in" baseProfile="tiny" y="0in" height="1.37795in"  viewBox="0 0 157.89 99.2124">
    <desc>
        <referenceFile>PocketBeagle_pcb.svg</referenceFile>
    </desc>
    <desc >Fritzing footprint generated by brd2svg</desc>
    <g gorn="0.1" id="silkscreen" >
        <path stroke-width="0.576" d="M129.359,0.288A28.0585,28.0585,0,0,1,157.602,28.4699L157.602,70.7427A28.0585,28.0585,0,0,1,129.359,98.9244L30.5081,98.9244A28.0585,28.0585,0,0,1,2.26501,70.7427L2.26501,28.4699A28.0585,28.0585,0,0,1,30.5081,0.288L129.359,0.288M136.814,63.8759a1.12932,1.12932,0,1,0,2.25865,0,1.12932,1.12932,0,1,0,-2.25865,0zM136.814,41.1988a1.12932,1.12932,0,1,0,2.25865,0,1.12932,1.12932,0,1,0,-2.25865,0z" stroke="white" fill="none" />
        <line stroke-width="0.72" stroke="white" y1="79.3404" y2="92.5164" stroke-linecap="round" x1="51.1602"  x2="51.1602"/>
        <line stroke-width="0.72" stroke="white" y1="19.5086" y2="6.3326" stroke-linecap="round" x1="51.1602"  x2="51.1602"/>
        <line stroke-width="0.72" stroke="white" y1="79.3404" y2="92.5164" stroke-linecap="round" x1="87.1603"  x2="87.1603"/>
        <line stroke-width="0.72" stroke="white" y1="79.3404" y2="92.5164" stroke-linecap="round" x1="123.16"  x2="123.16"/>
        <line stroke-width="0.72" stroke="white" y1="19.5086" y2="6.3326" stroke-linecap="round" x1="87.1603"  x2="87.1603"/>
        <line stroke-width="0.72" stroke="white" y1="19.5086" y2="6.3326" stroke-linecap="round" x1="123.16"  x2="123.16"/>
        <line stroke-width="0.72" stroke="white" y1="75.0924" y2="75.0924" stroke-linecap="round" x1="14.9442"  x2="17.1042"/>
        <line stroke-width="0.72" stroke="white" y1="75.0924" y2="75.0924" stroke-linecap="round" x1="21.4242"  x2="23.5842"/>
        <line stroke-width="0.72" stroke="white" y1="75.0924" y2="75.0924" stroke-linecap="round" x1="8.46425"  x2="10.6242"/>
        <line stroke-width="0.72" stroke="white" y1="75.0924" y2="75.0924" stroke-linecap="round" x1="27.9042"  x2="30.0642"/>
        <line stroke-width="0.72" stroke="white" y1="22.5326" y2="20.3726" stroke-linecap="round" x1="16.3842"  x2="16.3842"/>
        <circle r="0.509111" stroke-width="1.41732" stroke="white" fill="none" cx="94.8643" cy="79.7724" />
        <g >
            <title >element:P1</title>
            <g >
                <title >package:TH-2X18-(35MIL-DIA)-W/O-SILK</title>
            </g>
        </g>
        <g >
            <title >element:P2</title>
            <g >
                <title >package:TH-2X18-(35MIL-DIA)-W/O-SILK</title>
            </g>
        </g>
        <g >
            <title >element:U1</title>
            <g >
                <title >package:OSD335X-BGA-256</title>
                <line stroke-width="0.36" stroke="white" y1="19.6554" y2="79.1827" stroke-linecap="round" x1="34.7471"  x2="34.7471"/>
                <line stroke-width="0.36" stroke="white" y1="79.1827" y2="79.1827" stroke-linecap="round" x1="34.7471"  x2="94.2746"/>
                <line stroke-width="0.36" stroke="white" y1="79.1827" y2="19.6554" stroke-linecap="round" x1="94.2746"  x2="94.2746"/>
                <line stroke-width="0.36" stroke="white" y1="19.6554" y2="19.6554" stroke-linecap="round" x1="94.2746"  x2="34.7471"/>
            </g>
        </g>
        <g >
            <title >element:X1</title>
            <g >
                <title >package:usb-microb</title>
                <line stroke-width="0.36" stroke="white" y1="38.9764" y2="60.2362" stroke-linecap="round" x1="1.98426"  x2="1.98426"/>
                <line stroke-width="0.36" stroke="white" y1="38.9764" y2="38.9764" stroke-linecap="round" x1="1.98426"  x2="2.91969"/>
                <line stroke-width="0.36" stroke="white" y1="60.2362" y2="60.2362" stroke-linecap="round" x1="1.98426"  x2="2.91969"/>
                <line stroke-width="0.36" stroke="white" y1="60.2362" y2="60.2362" stroke-linecap="round" x1="9.26928"  x2="10.5732"/>
                <line stroke-width="0.36" stroke="white" y1="38.9764" y2="38.9764" stroke-linecap="round" x1="9.26928"  x2="10.5732"/>
                <line stroke-width="0.36" stroke="white" y1="44.2772" y2="44.8724" stroke-linecap="round" x1="14.1732"  x2="14.1732"/>
                <line stroke-width="0.36" stroke="white" y1="54.3401" y2="54.9354" stroke-linecap="round" x1="14.1732"  x2="14.1732"/>
                <line stroke-width="0.108" stroke="white" y1="45.0708" y2="45.0708" stroke-linecap="round" x1="0.850392"  x2="1.55905"/>
                <line stroke-width="0.108" stroke="white" y1="45.0708" y2="45.3543" stroke-linecap="round" x1="1.55905"  x2="1.27559"/>
                <line stroke-width="0.108" stroke="white" y1="45.0708" y2="44.7874" stroke-linecap="round" x1="1.55905"  x2="1.27559"/>
                <line stroke-width="0.108" stroke="white" y1="43.937" y2="43.937" stroke-linecap="round" x1="0.850392"  x2="1.55905"/>
                <line stroke-width="0.108" stroke="white" y1="43.937" y2="44.2205" stroke-linecap="round" x1="1.55905"  x2="1.27559"/>
                <line stroke-width="0.108" stroke="white" y1="43.937" y2="43.6535" stroke-linecap="round" x1="1.55905"  x2="1.27559"/>
                <line stroke-width="0.108" stroke="white" y1="42.8031" y2="42.8031" stroke-linecap="round" x1="0.850392"  x2="1.55905"/>
                <line stroke-width="0.108" stroke="white" y1="42.8031" y2="43.0866" stroke-linecap="round" x1="1.55905"  x2="1.27559"/>
                <line stroke-width="0.108" stroke="white" y1="42.8031" y2="42.5197" stroke-linecap="round" x1="1.55905"  x2="1.27559"/>
                <line stroke-width="0.108" stroke="white" y1="41.6693" y2="41.6693" stroke-linecap="round" x1="0.850392"  x2="1.55905"/>
                <line stroke-width="0.108" stroke="white" y1="41.6693" y2="41.9527" stroke-linecap="round" x1="1.55905"  x2="1.27559"/>
                <line stroke-width="0.108" stroke="white" y1="41.6693" y2="41.3858" stroke-linecap="round" x1="1.55905"  x2="1.27559"/>
                <line stroke-width="0.108" stroke="white" y1="40.5354" y2="40.5354" stroke-linecap="round" x1="0.850392"  x2="1.55905"/>
                <line stroke-width="0.108" stroke="white" y1="40.5354" y2="40.8189" stroke-linecap="round" x1="1.55905"  x2="1.27559"/>
                <line stroke-width="0.108" stroke="white" y1="40.5354" y2="40.252" stroke-linecap="round" x1="1.55905"  x2="1.27559"/>
                <line stroke-width="0.108" stroke="white" y1="58.6772" y2="58.6772" stroke-linecap="round" x1="0.850392"  x2="1.55905"/>
                <line stroke-width="0.108" stroke="white" y1="58.6772" y2="58.9607" stroke-linecap="round" x1="1.55905"  x2="1.27559"/>
                <line stroke-width="0.108" stroke="white" y1="58.6772" y2="58.3937" stroke-linecap="round" x1="1.55905"  x2="1.27559"/>
                <line stroke-width="0.108" stroke="white" y1="57.5433" y2="57.5433" stroke-linecap="round" x1="0.850392"  x2="1.55905"/>
                <line stroke-width="0.108" stroke="white" y1="57.5433" y2="57.8268" stroke-linecap="round" x1="1.55905"  x2="1.27559"/>
                <line stroke-width="0.108" stroke="white" y1="57.5433" y2="57.2599" stroke-linecap="round" x1="1.55905"  x2="1.27559"/>
                <line stroke-width="0.108" stroke="white" y1="56.4095" y2="56.4095" stroke-linecap="round" x1="0.850392"  x2="1.55905"/>
                <line stroke-width="0.108" stroke="white" y1="56.4095" y2="56.6929" stroke-linecap="round" x1="1.55905"  x2="1.27559"/>
                <line stroke-width="0.108" stroke="white" y1="56.4095" y2="56.126" stroke-linecap="round" x1="1.55905"  x2="1.27559"/>
                <line stroke-width="0.108" stroke="white" y1="55.2756" y2="55.2756" stroke-linecap="round" x1="0.850392"  x2="1.55905"/>
                <line stroke-width="0.108" stroke="white" y1="55.2756" y2="55.5591" stroke-linecap="round" x1="1.55905"  x2="1.27559"/>
                <line stroke-width="0.108" stroke="white" y1="55.2756" y2="54.9922" stroke-linecap="round" x1="1.55905"  x2="1.27559"/>
                <line stroke-width="0.108" stroke="white" y1="54.1418" y2="54.1418" stroke-linecap="round" x1="0.850392"  x2="1.55905"/>
                <line stroke-width="0.108" stroke="white" y1="54.1418" y2="54.4252" stroke-linecap="round" x1="1.55905"  x2="1.27559"/>
                <line stroke-width="0.108" stroke="white" y1="54.1418" y2="53.8582" stroke-linecap="round" x1="1.55905"  x2="1.27559"/>
            </g>
        </g>
        <g >
            <title >element:X2</title>
            <g >
                <title >package:microsd-simple</title>
                <line stroke-width="0.36" stroke="white" y1="28.3607" y2="28.3607" stroke-linecap="round" x1="111.42"  x2="150.66"/>
                <line stroke-width="0.36" stroke="white" y1="28.3607" y2="35.5354" stroke-linecap="round" x1="150.66"  x2="150.66"/>
                <path stroke-width="0.36" d="M150.139,38.3697A7.9614,7.9614,0,0,0,150.66,35.5354" stroke="white" fill="none" />
                <path stroke-width="0.36" d="M150.139,38.3697A36,36,0,0,0,147.78,51.1854" stroke="white" fill="none" />
                <line stroke-width="0.36" stroke="white" y1="51.1854" y2="70.8407" stroke-linecap="round" x1="147.78"  x2="147.78"/>
                <line stroke-width="0.36" stroke="white" y1="70.8407" y2="70.8407" stroke-linecap="round" x1="147.78"  x2="108.18"/>
                <line stroke-width="0.36" stroke="white" y1="70.8407" y2="32.3207" stroke-linecap="round" x1="108.18"  x2="108.18"/>
                <line stroke-width="0.36" stroke="white" y1="32.3207" y2="32.3207" stroke-linecap="round" x1="108.18"  x2="111.42"/>
                <line stroke-width="0.36" stroke="white" y1="32.3207" y2="28.3607" stroke-linecap="round" x1="111.42"  x2="111.42"/>
            </g>
        </g>
        <line stroke-width="0.576" stroke="white" fill-opacity="1" fill="none" y1="60.2362" y2="60.2362" x1="0.288"  x2="1.98426"/>
        <line stroke-width="0.576" stroke="white" fill-opacity="1" fill="none" y1="38.9764" y2="38.9764" x1="0.288"  x2="1.98426"/>
        <line stroke-width="0.576" stroke="white" fill-opacity="1" fill="none" y1="60.2362" y2="38.9764" x1="0.288"  x2="0.288"/>
    </g>
    <g gorn="0.2" id="copper1" >
        <g gorn="0.2.0" id="copper0" >
            <circle connectorname="VIN" r="1.71" gorn="0.2.0.0" stroke-width="0.9" id="connector5pad" stroke="#F7BD13" fill="none" cx="18.737" cy="89.2066" />
            <rect stroke-width="0.9" stroke="#F7BD13" width="3.42" fill="none" x="17.027" y="87.4966" height="3.42" />
            <circle connectorname="AIN7(1.8V)" r="1.71" gorn="0.2.0.2" stroke-width="0.9" id="connector76pad" stroke="#F7BD13" fill="none" cx="141.137" cy="10.0063" />
            <circle connectorname="PRU0.5" r="1.71" gorn="0.2.0.3" stroke-width="0.9" id="connector74pad" stroke="#F7BD13" fill="none" cx="133.937" cy="10.0063" />
            <circle connectorname="PRU0.2" r="1.71" gorn="0.2.0.4" stroke-width="0.9" id="connector72pad" stroke="#F7BD13" fill="none" cx="126.737" cy="10.0063" />
            <circle connectorname="AIN5/GPIO86" r="1.71" gorn="0.2.0.5" stroke-width="0.9" id="connector75pad" stroke="#F7BD13" fill="none" cx="141.137" cy="17.2063" />
            <circle connectorname="PRU0.3" r="1.71" gorn="0.2.0.6" stroke-width="0.9" id="connector70pad" stroke="#F7BD13" fill="none" cx="119.537" cy="10.0063" />
            <circle connectorname="GPIO45" r="1.71" gorn="0.2.0.7" stroke-width="0.9" id="connector73pad" stroke="#F7BD13" fill="none" cx="133.937" cy="17.2063" />
            <circle connectorname="PRU0.6" r="1.71" gorn="0.2.0.8" stroke-width="0.9" id="connector68pad" stroke="#F7BD13" fill="none" cx="112.337" cy="10.0063" />
            <circle connectorname="SPI1.CS" r="1.71" gorn="0.2.0.9" stroke-width="0.9" id="connector71pad" stroke="#F7BD13" fill="none" cx="126.737" cy="17.2063" />
            <circle connectorname="RESET#" r="1.71" gorn="0.2.0.10" stroke-width="0.9" id="connector66pad" stroke="#F7BD13" fill="none" cx="105.137" cy="10.0063" />
            <circle connectorname="SPI1.CLK" r="1.71" gorn="0.2.0.11" stroke-width="0.9" id="connector69pad" stroke="#F7BD13" fill="none" cx="119.537" cy="17.2063" />
            <circle connectorname="GPIO48" r="1.71" gorn="0.2.0.12" stroke-width="0.9" id="connector64pad" stroke="#F7BD13" fill="none" cx="97.9373" cy="10.0063" />
            <circle connectorname="SPI1.MISO" r="1.71" gorn="0.2.0.13" stroke-width="0.9" id="connector67pad" stroke="#F7BD13" fill="none" cx="112.337" cy="17.2063" />
            <circle connectorname="GPIO46" r="1.71" gorn="0.2.0.14" stroke-width="0.9" id="connector62pad" stroke="#F7BD13" fill="none" cx="90.7373" cy="10.0063" />
            <circle connectorname="SPI1.MOSI" r="1.71" gorn="0.2.0.15" stroke-width="0.9" id="connector65pad" stroke="#F7BD13" fill="none" cx="105.137" cy="17.2063" />
            <circle connectorname="GPIO64" r="1.71" gorn="0.2.0.16" stroke-width="0.9" id="connector60pad" stroke="#F7BD13" fill="none" cx="83.5373" cy="10.0063" />
            <circle connectorname="3.3V" r="1.71" gorn="0.2.0.17" stroke-width="0.9" id="connector63pad" stroke="#F7BD13" fill="none" cx="97.9373" cy="17.2063" />
            <circle connectorname="GPIO47" r="1.71" gorn="0.2.0.18" stroke-width="0.9" id="connector58pad" stroke="#F7BD13" fill="none" cx="76.3373" cy="10.0063" />
            <circle connectorname="GND" r="1.71" gorn="0.2.0.19" stroke-width="0.9" id="connector61pad" stroke="#F7BD13" fill="none" cx="90.7373" cy="17.2063" />
            <circle connectorname="BAT.TEMP" r="1.71" gorn="0.2.0.20" stroke-width="0.9" id="connector56pad" stroke="#F7BD13" fill="none" cx="69.137" cy="10.0063" />
            <circle connectorname="GPIO27" r="1.71" gorn="0.2.0.21" stroke-width="0.9" id="connector59pad" stroke="#F7BD13" fill="none" cx="83.5373" cy="17.2063" />
            <circle connectorname="BAT.VIN" r="1.71" gorn="0.2.0.22" stroke-width="0.9" id="connector90pin" stroke="#F7BD13" fill="none" cx="61.937" cy="10.0063" />
            <circle connectorname="GPIO65" r="1.71" gorn="0.2.0.23" stroke-width="0.9" id="connector57pad" stroke="#F7BD13" fill="none" cx="76.3373" cy="17.2063" />
            <circle connectorname="POWER.BUTTON" r="1.71" gorn="0.2.0.24" stroke-width="0.9" id="connector52pad" stroke="#F7BD13" fill="none" cx="54.737" cy="10.0063" />
            <circle connectorname="GND" r="1.71" gorn="0.2.0.25" stroke-width="0.9" id="connector55pad" stroke="#F7BD13" fill="none" cx="69.137" cy="17.2063" />
            <circle connectorname="GPIO52" r="1.71" gorn="0.2.0.26" stroke-width="0.9" id="connector50pad" stroke="#F7BD13" fill="none" cx="47.537" cy="10.0063" />
            <circle connectorname="VOUT" r="1.71" gorn="0.2.0.27" stroke-width="0.9" id="connector53pad" stroke="#F7BD13" fill="none" cx="61.937" cy="17.2063" />
            <circle connectorname="GPIO60" r="1.71" gorn="0.2.0.28" stroke-width="0.9" id="connector48pad" stroke="#F7BD13" fill="none" cx="40.337" cy="10.0063" />
            <circle connectorname="I2C1.SDA" r="1.71" gorn="0.2.0.29" stroke-width="0.9" id="connector51pad" stroke="#F7BD13" fill="none" cx="54.737" cy="17.2063" />
            <circle connectorname="GPIO57" r="1.71" gorn="0.2.0.30" stroke-width="0.9" id="connector46pad" stroke="#F7BD13" fill="none" cx="33.137" cy="10.0063" />
            <circle connectorname="I2C1.SCL" r="1.71" gorn="0.2.0.31" stroke-width="0.9" id="connector49pad" stroke="#F7BD13" fill="none" cx="47.537" cy="17.2063" />
            <circle connectorname="GPIO58" r="1.71" gorn="0.2.0.32" stroke-width="0.9" id="connector44pad" stroke="#F7BD13" fill="none" cx="25.937" cy="10.0063" />
            <circle connectorname="UART4.TX" r="1.71" gorn="0.2.0.33" stroke-width="0.9" id="connector47pad" stroke="#F7BD13" fill="none" cx="40.337" cy="17.2063" />
            <circle connectorname="GPIO59" r="1.71" gorn="0.2.0.34" stroke-width="0.9" id="connector42pad" stroke="#F7BD13" fill="none" cx="18.737" cy="10.0063" />
            <circle connectorname="UART4.RX" r="1.71" gorn="0.2.0.35" stroke-width="0.9" id="connector45pad" stroke="#F7BD13" fill="none" cx="33.137" cy="17.2063" />
            <circle connectorname="PWM0A" r="1.71" gorn="0.2.0.36" stroke-width="0.9" id="connector40pad" stroke="#F7BD13" fill="none" cx="141.137" cy="82.0066" />
            <circle connectorname="GPIO23" r="1.71" gorn="0.2.0.37" stroke-width="0.9" id="connector43pad" stroke="#F7BD13" fill="none" cx="25.937" cy="17.2063" />
            <circle connectorname="GPIO26" r="1.71" gorn="0.2.0.38" stroke-width="0.9" id="connector38pad" stroke="#F7BD13" fill="none" cx="133.937" cy="82.0066" />
            <circle connectorname="PWM1A" r="1.71" gorn="0.2.0.39" stroke-width="0.9" id="connector41pad" stroke="#F7BD13" fill="none" cx="18.737" cy="17.2063" />
            <rect stroke-width="0.9" stroke="#F7BD13" width="3.42" fill="none" x="17.027" y="15.4963" height="3.42" />
            <circle connectorname="UART0.RX" r="1.71" gorn="0.2.0.41" stroke-width="0.9" id="connector36pad" stroke="#F7BD13" fill="none" cx="126.737" cy="82.0066" />
            <circle connectorname="PRU1.10" r="1.71" gorn="0.2.0.42" stroke-width="0.9" id="connector39pad" stroke="#F7BD13" fill="none" cx="141.137" cy="89.2066" />
            <circle connectorname="UART0.TX" r="1.71" gorn="0.2.0.43" stroke-width="0.9" id="connector34pad" stroke="#F7BD13" fill="none" cx="119.537" cy="82.0066" />
            <circle connectorname="PRU0.1" r="1.71" gorn="0.2.0.44" stroke-width="0.9" id="connector37pad" stroke="#F7BD13" fill="none" cx="133.937" cy="89.2066" />
            <circle connectorname="28" r="1.71" gorn="0.2.0.45" stroke-width="0.9" id="connector32pad" stroke="#F7BD13" fill="none" cx="112.337" cy="82.0066" />
            <circle connectorname="PRU0.4" r="1.71" gorn="0.2.0.46" stroke-width="0.9" id="connector35pad" stroke="#F7BD13" fill="none" cx="126.737" cy="89.2066" />
            <circle connectorname="I2C2.SDA" r="1.71" gorn="0.2.0.47" stroke-width="0.9" id="connector30pad" stroke="#F7BD13" fill="none" cx="105.137" cy="82.0066" />
            <circle connectorname="PRU0.7" r="1.71" gorn="0.2.0.48" stroke-width="0.9" id="connector33pad" stroke="#F7BD13" fill="none" cx="119.537" cy="89.2066" />
            <circle connectorname="VOUT" r="1.71" gorn="0.2.0.49" stroke-width="0.9" id="connector28pad" stroke="#F7BD13" fill="none" cx="97.9373" cy="82.0066" />
            <circle connectorname="AIN4(1.8V)" r="1.71" gorn="0.2.0.50" stroke-width="0.9" id="connector31pad" stroke="#F7BD13" fill="none" cx="112.337" cy="89.2066" />
            <circle connectorname="GND" r="1.71" gorn="0.2.0.51" stroke-width="0.9" id="connector26pad" stroke="#F7BD13" fill="none" cx="90.7373" cy="82.0066" />
            <circle connectorname="AIN3(1.8V)" r="1.71" gorn="0.2.0.52" stroke-width="0.9" id="connector29pad" stroke="#F7BD13" fill="none" cx="105.137" cy="89.2066" />
            <circle connectorname="GPIO20" r="1.71" gorn="0.2.0.53" stroke-width="0.9" id="connector24pad" stroke="#F7BD13" fill="none" cx="83.5373" cy="82.0066" />
            <circle connectorname="AIN2(1.8V)" r="1.71" gorn="0.2.0.54" stroke-width="0.9" id="connector27pad" stroke="#F7BD13" fill="none" cx="97.9373" cy="89.2066" />
            <circle connectorname="AIN.VREFP" r="1.71" gorn="0.2.0.55" stroke-width="0.9" id="connector22pad" stroke="#F7BD13" fill="none" cx="76.3373" cy="82.0066" />
            <circle connectorname="AIN1(1.8V)" r="1.71" gorn="0.2.0.56" stroke-width="0.9" id="connector25pad" stroke="#F7BD13" fill="none" cx="90.7373" cy="89.2066" />
            <circle connectorname="GND" r="1.71" gorn="0.2.0.57" stroke-width="0.9" id="connector20pad" stroke="#F7BD13" fill="none" cx="69.137" cy="82.0066" />
            <circle connectorname="AIN0(1.8V)" r="1.71" gorn="0.2.0.58" stroke-width="0.9" id="connector23pad" stroke="#F7BD13" fill="none" cx="83.5373" cy="89.2066" />
            <circle connectorname="3.3V" r="1.71" gorn="0.2.0.59" stroke-width="0.9" id="connector18pad" stroke="#F7BD13" fill="none" cx="61.937" cy="82.0066" />
            <circle connectorname="17" r="1.71" gorn="0.2.0.60" stroke-width="0.9" id="connector21pad" stroke="#F7BD13" fill="none" cx="76.3373" cy="89.2066" />
            <circle connectorname="SPI0.MOSI" r="1.71" gorn="0.2.0.61" stroke-width="0.9" id="connector16pad" stroke="#F7BD13" fill="none" cx="54.737" cy="82.0066" />
            <circle connectorname="GND" r="1.71" gorn="0.2.0.62" stroke-width="0.9" id="connector19pad" stroke="#F7BD13" fill="none" cx="69.137" cy="89.2066" />
            <circle connectorname="SPI0.MISO" r="1.71" gorn="0.2.0.63" stroke-width="0.9" id="connector14pad" stroke="#F7BD13" fill="none" cx="47.537" cy="82.0066" />
            <circle connectorname="USB1.ID" r="1.71" gorn="0.2.0.64" stroke-width="0.9" id="connector17pad" stroke="#F7BD13" fill="none" cx="61.937" cy="89.2066" />
            <circle connectorname="SPI0.CLK" r="1.71" gorn="0.2.0.65" stroke-width="0.9" id="connector12pad" stroke="#F7BD13" fill="none" cx="40.337" cy="82.0066" />
            <circle connectorname="USB1.DP" r="1.71" gorn="0.2.0.66" stroke-width="0.9" id="connector15pad" stroke="#F7BD13" fill="none" cx="54.737" cy="89.2066" />
            <circle connectorname="SPI0.CS" r="1.71" gorn="0.2.0.67" stroke-width="0.9" id="connector10pad" stroke="#F7BD13" fill="none" cx="33.137" cy="82.0066" />
            <circle connectorname="USB1.DN" r="1.71" gorn="0.2.0.68" stroke-width="0.9" id="connector13pad" stroke="#F7BD13" fill="none" cx="47.537" cy="89.2066" />
            <circle connectorname="GPIO89" r="1.71" gorn="0.2.0.69" stroke-width="0.9" id="connector8pad" stroke="#F7BD13" fill="none" cx="25.937" cy="82.0066" />
            <circle connectorname="USB1.VIN" r="1.71" gorn="0.2.0.70" stroke-width="0.9" id="connector11pad" stroke="#F7BD13" fill="none" cx="40.337" cy="89.2066" />
            <circle connectorname="AIN6/GPIO87" r="1.71" gorn="0.2.0.71" stroke-width="0.9" id="connector6pad" stroke="#F7BD13" fill="none" cx="18.737" cy="82.0066" />
            <circle connectorname="USB1.VBUS" r="1.71" gorn="0.2.0.72" stroke-width="0.9" id="connector9pad" stroke="#F7BD13" fill="none" cx="33.137" cy="89.2066" />
            <circle connectorname="USB1.DRVVBUS" r="1.71" gorn="0.2.0.73" stroke-width="0.9" id="connector7pad" stroke="#F7BD13" fill="none" cx="25.937" cy="89.2066" />
        </g>
    </g>
</svg>
